<svg width="66" height="66" viewBox="0 0 66 66" fill="none" xmlns="http://www.w3.org/2000/svg">
<g filter="url(#filter0_d_62_47)">
<rect x="1" y="1" width="64" height="64" rx="12" fill="black"/>
<rect x="1" y="1" width="64" height="64" rx="12" fill="url(#paint0_linear_62_47)" fill-opacity="0.4"/>
<path d="M57.3096 30.7494L35.2495 8.68995C33.9793 7.41919 31.919 7.41919 30.6477 8.68995L26.0673 13.2715L31.8778 19.0821C33.2282 18.6257 34.7767 18.932 35.8527 20.0086C36.9354 21.0919 37.239 22.6535 36.771 24.009L42.3719 29.6095C43.7274 29.1421 45.2901 29.4445 46.3722 30.5283C47.8843 32.0405 47.8843 34.4908 46.3722 36.004C44.859 37.5167 42.4088 37.5167 40.895 36.004C39.7579 34.8658 39.4764 33.1941 40.0532 31.7931L34.8294 26.5698V40.3151C35.1979 40.4976 35.5459 40.7407 35.8527 41.0475C37.3649 42.5597 37.3649 45.0099 35.8527 46.5237C34.3406 48.0353 31.8888 48.0353 30.3777 46.5237C28.8656 45.0094 28.8656 42.5591 30.3777 41.0475C30.7516 40.6741 31.1844 40.3915 31.6463 40.2023V26.3289C31.1844 26.1398 30.7527 25.8599 30.3777 25.4838C29.2324 24.3389 28.9569 22.6574 29.5441 21.2508L23.8162 15.5216L8.68938 30.6471C7.41864 31.919 7.41864 33.9794 8.68938 35.2501L30.7505 57.3101C32.0207 58.5809 34.0805 58.5809 35.3524 57.3101L57.3096 35.3524C58.5803 34.0816 58.5803 32.0202 57.3096 30.7494Z" fill="#F05133"/>
</g>
<defs>
<filter id="filter0_d_62_47" x="0" y="0" width="66" height="66" filterUnits="userSpaceOnUse" color-interpolation-filters="sRGB">
<feFlood flood-opacity="0" result="BackgroundImageFix"/>
<feColorMatrix in="SourceAlpha" type="matrix" values="0 0 0 0 0 0 0 0 0 0 0 0 0 0 0 0 0 0 127 0" result="hardAlpha"/>
<feOffset/>
<feGaussianBlur stdDeviation="0.5"/>
<feColorMatrix type="matrix" values="0 0 0 0 1 0 0 0 0 0.388235 0 0 0 0 0.211765 0 0 0 0.5 0"/>
<feBlend mode="normal" in2="BackgroundImageFix" result="effect1_dropShadow_62_47"/>
<feBlend mode="normal" in="SourceGraphic" in2="effect1_dropShadow_62_47" result="shape"/>
</filter>
<linearGradient id="paint0_linear_62_47" x1="1" y1="1" x2="65" y2="65" gradientUnits="userSpaceOnUse">
<stop stop-color="white" stop-opacity="0"/>
<stop offset="0.5" stop-color="#FF6336" stop-opacity="0.3"/>
<stop offset="1" stop-color="#F05133" stop-opacity="0.7"/>
</linearGradient>
</defs>
</svg>
