<svg width="66" height="66" viewBox="0 0 66 66" fill="none" xmlns="http://www.w3.org/2000/svg">
<g filter="url(#filter0_d_62_50)">
<rect x="1" y="1" width="64" height="64" rx="12" fill="black"/>
<rect x="1" y="1" width="64" height="64" rx="12" fill="url(#paint0_linear_62_50)" fill-opacity="0.2"/>
<path d="M31.4202 8.89189C31.3165 8.90132 30.9864 8.93432 30.6893 8.9579C23.8373 9.57557 17.4191 13.2722 13.3542 18.9538C11.0906 22.1129 9.64286 25.6964 9.09583 29.492C8.90249 30.8169 8.87891 31.2083 8.87891 33.0047C8.87891 34.8012 8.90249 35.1925 9.09583 36.5174C10.4068 45.5751 16.8533 53.1852 25.5963 56.0048C27.1619 56.5093 28.8124 56.8535 30.6893 57.061C31.4202 57.1411 34.5798 57.1411 35.3107 57.061C38.5504 56.7026 41.295 55.9011 44.0019 54.5196C44.4168 54.3074 44.497 54.2508 44.4404 54.2036C44.4027 54.1754 42.6343 51.8037 40.5122 48.9369L36.6547 43.7268L31.8211 36.574C29.1614 32.6417 26.9733 29.426 26.9544 29.426C26.9355 29.4213 26.9167 32.5992 26.9072 36.4797C26.8931 43.2741 26.8884 43.5476 26.8035 43.7079C26.6809 43.939 26.5866 44.0333 26.3885 44.137C26.2376 44.2124 26.1056 44.2266 25.3935 44.2266H24.5777L24.3607 44.0898C24.2193 44.0003 24.1155 43.8824 24.0448 43.7456L23.9457 43.5335L23.9552 34.0798L23.9693 24.6213L24.1155 24.4375C24.191 24.3384 24.3513 24.2111 24.4645 24.1498C24.6578 24.0555 24.7333 24.0461 25.5491 24.0461C26.5111 24.0461 26.6715 24.0838 26.9214 24.3573C26.9921 24.4327 29.6094 28.3745 32.7406 33.1226C35.8719 37.8707 40.1538 44.3539 42.257 47.5365L46.0768 53.3219L46.2701 53.1946C47.982 52.0819 49.7928 50.4976 51.2264 48.8473C54.2775 45.344 56.244 41.0722 56.9042 36.5174C57.0975 35.1925 57.1211 34.8012 57.1211 33.0047C57.1211 31.2083 57.0975 30.8169 56.9042 29.492C55.5932 20.4344 49.1467 12.8243 40.4037 10.0046C38.8617 9.50485 37.2206 9.16065 35.3815 8.95318C34.9287 8.90603 31.8116 8.85417 31.4202 8.89189ZM41.295 23.4803C41.5214 23.5935 41.7053 23.8103 41.7713 24.0367C41.809 24.1593 41.8185 26.7808 41.809 32.6888L41.7949 41.1665L40.3 38.875L38.8004 36.5835V30.4209C38.8004 26.4366 38.8192 24.197 38.8475 24.0885C38.923 23.8245 39.088 23.617 39.3144 23.4944C39.5077 23.3954 39.5785 23.386 40.3189 23.386C41.0168 23.386 41.1394 23.3954 41.295 23.4803Z" fill="white"/>
</g>
<defs>
<filter id="filter0_d_62_50" x="0" y="0" width="66" height="66" filterUnits="userSpaceOnUse" color-interpolation-filters="sRGB">
<feFlood flood-opacity="0" result="BackgroundImageFix"/>
<feColorMatrix in="SourceAlpha" type="matrix" values="0 0 0 0 0 0 0 0 0 0 0 0 0 0 0 0 0 0 127 0" result="hardAlpha"/>
<feOffset/>
<feGaussianBlur stdDeviation="0.5"/>
<feComposite in2="hardAlpha" operator="out"/>
<feColorMatrix type="matrix" values="0 0 0 0 1 0 0 0 0 1 0 0 0 0 1 0 0 0 0.5 0"/>
<feBlend mode="normal" in2="BackgroundImageFix" result="effect1_dropShadow_62_50"/>
<feBlend mode="normal" in="SourceGraphic" in2="effect1_dropShadow_62_50" result="shape"/>
</filter>
<linearGradient id="paint0_linear_62_50" x1="1" y1="1" x2="65" y2="65" gradientUnits="userSpaceOnUse">
<stop stop-opacity="0"/>
<stop offset="0.5" stop-color="white" stop-opacity="0.3"/>
<stop offset="1" stop-color="white" stop-opacity="0.7"/>
</linearGradient>
</defs>
</svg>
