<svg width="66" height="66" viewBox="0 0 66 66" fill="none" xmlns="http://www.w3.org/2000/svg">
<g filter="url(#filter0_d_62_49)">
<rect x="1" y="1" width="64" height="64" rx="12" fill="black"/>
<rect x="1" y="1" width="64" height="64" rx="12" fill="url(#paint0_linear_62_49)" fill-opacity="0.4"/>
<g clip-path="url(#clip0_62_49)">
<path d="M32.9997 18.28C26.5144 18.28 22.461 21.5426 20.8397 28.0679C23.2717 24.8053 26.109 23.5818 29.3517 24.3974C31.2018 24.8628 32.5242 26.2133 33.9879 27.7082C36.3723 30.1433 39.132 32.9618 45.1597 32.9618C51.645 32.9618 55.6984 29.6992 57.3197 23.174C54.8877 26.4366 52.0504 27.66 48.8077 26.8444C46.9576 26.379 45.6352 25.0286 44.1715 23.5337C41.787 21.0985 39.0274 18.28 32.9997 18.28ZM20.8397 32.9618C14.3544 32.9618 10.301 36.2244 8.67969 42.7496C11.1117 39.487 13.949 38.2635 17.1917 39.0792C19.0418 39.5446 20.3642 40.895 21.8279 42.3899C24.2123 44.8251 26.972 47.6436 32.9997 47.6436C39.485 47.6436 43.5384 44.3809 45.1597 37.8557C42.7277 41.1183 39.8904 42.3418 36.6477 41.5262C34.7976 41.0608 33.4752 39.7103 32.0115 38.2154C29.627 35.7802 26.8674 32.9618 20.8397 32.9618Z" fill="url(#paint1_linear_62_49)"/>
</g>
</g>
<defs>
<filter id="filter0_d_62_49" x="0" y="0" width="66" height="66" filterUnits="userSpaceOnUse" color-interpolation-filters="sRGB">
<feFlood flood-opacity="0" result="BackgroundImageFix"/>
<feColorMatrix in="SourceAlpha" type="matrix" values="0 0 0 0 0 0 0 0 0 0 0 0 0 0 0 0 0 0 127 0" result="hardAlpha"/>
<feOffset/>
<feGaussianBlur stdDeviation="0.5"/>
<feComposite in2="hardAlpha" operator="out"/>
<feColorMatrix type="matrix" values="0 0 0 0 0.156863 0 0 0 0 0.713726 0 0 0 0 0.890196 0 0 0 0.5 0"/>
<feBlend mode="normal" in2="BackgroundImageFix" result="effect1_dropShadow_62_49"/>
<feBlend mode="normal" in="SourceGraphic" in2="effect1_dropShadow_62_49" result="shape"/>
</filter>
<linearGradient id="paint0_linear_62_49" x1="1" y1="1" x2="65" y2="64.04" gradientUnits="userSpaceOnUse">
<stop stop-color="white" stop-opacity="0"/>
<stop offset="0.5" stop-color="#28B6E3" stop-opacity="0.3"/>
<stop offset="1" stop-color="#2298BD" stop-opacity="0.7"/>
</linearGradient>
<linearGradient id="paint1_linear_62_49" x1="-337.205" y1="1465.31" x2="11596.6" y2="5579.21" gradientUnits="userSpaceOnUse">
<stop stop-color="#2298BD"/>
<stop offset="1" stop-color="#0ED7B5"/>
</linearGradient>
<clipPath id="clip0_62_49">
<rect width="48.64" height="29.44" fill="white" transform="translate(8.67969 18.28)"/>
</clipPath>
</defs>
</svg>
