<svg width="66" height="66" viewBox="0 0 66 66" fill="none" xmlns="http://www.w3.org/2000/svg">
<g filter="url(#filter0_d_62_48)">
<g clip-path="url(#clip0_62_48)">
<rect x="1" y="1" width="64" height="64" rx="12" fill="black"/>
<rect x="1" y="1" width="64" height="64" rx="12" fill="black"/>
<rect x="1" y="1" width="64" height="64" rx="12" fill="url(#paint0_linear_62_48)" fill-opacity="0.4"/>
<path fill-rule="evenodd" clip-rule="evenodd" d="M45.2999 54.0418V58.7663C46.0787 59.16 46.9997 59.4552 48.0631 59.6521C49.1264 59.8489 50.2471 59.9473 51.4253 59.9473C52.5735 59.9473 53.6642 59.8391 54.6976 59.6225C55.731 59.406 56.6371 59.0492 57.4159 58.5521C58.1947 58.0552 58.8112 57.4055 59.2655 56.6033C59.7197 55.8011 59.9469 54.8095 59.9469 53.6285C59.9469 52.7721 59.8171 52.0216 59.5575 51.377C59.2979 50.7323 58.9236 50.159 58.4343 49.657C57.9451 49.155 57.3585 48.7047 56.6746 48.3061C55.9906 47.9074 55.2193 47.531 54.3607 47.1767C53.7317 46.9207 53.1676 46.6722 52.6683 46.4311C52.1691 46.1899 51.7448 45.9439 51.3953 45.6929C51.0459 45.4419 50.7763 45.1761 50.5866 44.8957C50.397 44.6151 50.302 44.2977 50.302 43.9433C50.302 43.6186 50.3869 43.3258 50.5567 43.0649C50.7264 42.8041 50.966 42.5802 51.2755 42.3932C51.5851 42.2062 51.9644 42.061 52.4137 41.9576C52.8631 41.8543 53.3622 41.8027 53.9114 41.8027C54.3107 41.8027 54.7326 41.8322 55.1769 41.8912C55.6212 41.9503 56.068 42.0413 56.5173 42.1643C56.9666 42.2874 57.4034 42.4424 57.8278 42.6294C58.2521 42.8164 58.6439 43.0329 59.0034 43.279V38.8646C58.2746 38.589 57.4783 38.3848 56.6147 38.2519C55.751 38.1191 54.76 38.0526 53.6418 38.0526C52.5036 38.0526 51.4253 38.1732 50.4069 38.4143C49.3885 38.6555 48.4925 39.0319 47.7186 39.5437C46.9448 40.0556 46.3333 40.7076 45.884 41.5C45.4348 42.2923 45.2101 43.2396 45.2101 44.342C45.2101 45.7495 45.6219 46.9503 46.4457 47.9444C47.2693 48.9384 48.5198 49.78 50.1972 50.469C50.8562 50.7348 51.4703 50.9955 52.0393 51.2515C52.6084 51.5074 53.1002 51.7732 53.5145 52.0487C53.9288 52.3243 54.2558 52.6245 54.4955 52.9493C54.7351 53.2741 54.8549 53.6432 54.8549 54.0566C54.8549 54.3617 54.78 54.6447 54.6303 54.9055C54.4805 55.1664 54.2533 55.3927 53.9488 55.5846C53.6443 55.7766 53.2649 55.9266 52.8106 56.0349C52.3563 56.1432 51.8247 56.1973 51.2156 56.1973C50.1772 56.1973 49.1489 56.0177 48.1304 55.6584C47.1121 55.2992 46.1685 54.7604 45.2999 54.0418ZM37.2464 42.4015H43.3919V38.5245H26.2627V42.4015H32.3781V59.6642H37.2464V42.4015Z" fill="#3178C6"/>
</g>
</g>
<defs>
<filter id="filter0_d_62_48" x="0" y="0" width="66" height="66" filterUnits="userSpaceOnUse" color-interpolation-filters="sRGB">
<feFlood flood-opacity="0" result="BackgroundImageFix"/>
<feColorMatrix in="SourceAlpha" type="matrix" values="0 0 0 0 0 0 0 0 0 0 0 0 0 0 0 0 0 0 127 0" result="hardAlpha"/>
<feOffset/>
<feGaussianBlur stdDeviation="0.5"/>
<feComposite in2="hardAlpha" operator="out"/>
<feColorMatrix type="matrix" values="0 0 0 0 0.227451 0 0 0 0 0.560784 0 0 0 0 0.92549 0 0 0 0.5 0"/>
<feBlend mode="normal" in2="BackgroundImageFix" result="effect1_dropShadow_62_48"/>
<feBlend mode="normal" in="SourceGraphic" in2="effect1_dropShadow_62_48" result="shape"/>
</filter>
<linearGradient id="paint0_linear_62_48" x1="1" y1="1" x2="65" y2="65" gradientUnits="userSpaceOnUse">
<stop stop-color="#3A8FEC" stop-opacity="0.1"/>
<stop offset="0.389423" stop-color="#3A8FEC" stop-opacity="0.3"/>
<stop offset="1" stop-color="#3178C6" stop-opacity="0.7"/>
</linearGradient>
<clipPath id="clip0_62_48">
<rect x="1" y="1" width="64" height="64" rx="12" fill="white"/>
</clipPath>
</defs>
</svg>
