<svg width="50" height="50" viewBox="0 0 50 50" fill="none" xmlns="http://www.w3.org/2000/svg">
<g filter="url(#filter0_d_68_147)">
<rect x="1" y="1" width="48" height="48" rx="10" fill="black"/>
<rect x="1" y="1" width="48" height="48" rx="10" fill="url(#paint0_linear_68_147)" fill-opacity="0.4"/>
<path d="M12.9997 18.283L11.7832 19.327L13.1437 20.9132C13.0515 20.0485 13.0012 19.1717 12.9997 18.283Z" fill="#4AC9F9"/>
<path d="M15.006 23.083L16.179 24.4503L16.7602 23.9515C16.7602 23.9515 16.7602 23.9508 16.7602 23.95L18.0322 22.8588L25.0875 16.8063C25.0875 16.8055 25.0875 16.8048 25.0875 16.804L25.116 16.78L26.5125 17.9725L29.943 20.9005L34.0762 24.43L34.3695 24.0865L35.3632 22.9225L36.3787 21.733L38.4585 19.2955L34.6972 16.084L33.552 15.106L32.4105 14.1318L31.2682 13.1568L30.126 12.1818L28.9837 11.2075L27.843 10.2325L26.7007 9.25676L25.5585 8.28176L25.1062 7.89551L22.551 10.0878L19.968 12.304L17.94 14.044L16.1707 15.562L14.5365 16.9645L11.7832 19.327L15.006 23.083Z" fill="#FF2BBE"/>
<path d="M27.3045 34.4688C26.5658 34.6495 25.7948 34.75 24.9998 34.75C24.7605 34.75 24.5235 34.7403 24.2888 34.723C23.2433 34.6473 22.2458 34.4043 21.3188 34.0248C20.2853 33.6018 19.3395 33.0093 18.5198 32.2765C17.7368 31.5775 17.067 30.754 16.542 29.8375L15.8468 30.3603L11.7285 33.4593C12.6975 34.9765 13.923 36.3123 15.3368 37.417C16.347 38.2068 17.4548 38.8735 18.6405 39.4C19.7078 39.874 20.8343 40.2363 22.011 40.4635C22.9785 40.6503 23.9775 40.75 24.9998 40.75C25.1025 40.75 25.203 40.7418 25.305 40.7395C26.385 40.7185 27.4373 40.5895 28.4528 40.3608C27.8798 39.2658 27.4815 38.0575 27.3248 36.7578C27.231 35.9815 27.231 35.2165 27.3045 34.4688Z" fill="#4AC9F9"/>
<path d="M36.1502 31.2985L33.6752 29.4363C32.9747 30.8043 31.9607 31.984 30.7285 32.8833C29.7175 33.6213 28.5587 34.165 27.3055 34.4695C27.2327 35.2173 27.232 35.9823 27.3257 36.7585C27.4825 38.0583 27.8807 39.2665 28.4537 40.3615C29.461 40.135 30.4307 39.8125 31.354 39.4023C32.275 38.9935 33.1487 38.5 33.9662 37.93C35.8 36.6505 37.3532 34.996 38.5067 33.0715L36.1502 31.2985Z" fill="#4AC9F9"/>
<path d="M11.7832 19.327L13.1437 20.9132C13.0515 20.0485 13.0012 19.1717 12.9997 18.283L11.7832 19.327Z" fill="#E20CAA"/>
<path d="M16.0002 18.25C16.0002 17.3395 16.0625 16.4433 16.1712 15.562L14.537 16.9645L13.001 18.283C13.0025 19.1718 13.052 20.0485 13.145 20.9133L15.0065 23.083L16.1795 24.4503L16.7607 23.9515C16.268 22.1335 16.0002 20.2233 16.0002 18.25Z" fill="#FF2BBE"/>
<path d="M19.9683 12.304L17.9402 14.044L16.171 15.562C16.0622 16.4432 16 17.3395 16 18.25C16 20.2232 16.2677 22.1335 16.7597 23.9507L18.0325 22.8587L19.33 21.7457C19.1163 20.6125 19 19.4447 19 18.25C19 16.171 19.3435 14.173 19.9683 12.304Z" fill="#FF3DA8"/>
<path d="M25.5588 8.28176L25.1065 7.89551L22.5513 10.0878L19.9683 12.304C19.3435 14.173 19 16.171 19 18.25C19 19.4448 19.1163 20.6125 19.33 21.745L20.6635 20.6013L22.0577 19.405C22.0307 19.0218 22 18.64 22 18.25C22 14.467 23.3358 10.9975 25.5588 8.28176Z" fill="#FF5190"/>
<path d="M26.701 9.25674L25.5588 8.28174C23.3358 10.9975 22 14.467 22 18.25C22 18.64 22.0307 19.0217 22.0585 19.405L23.5045 18.1645L25.0878 16.8062C25.3675 14.3305 26.3538 12.0707 27.8433 10.2325L26.701 9.25674Z" fill="#FF6D6E"/>
<path d="M30.1259 12.1817L28.9837 11.2067L27.8414 10.2317C26.3519 12.0699 25.3657 14.3297 25.0859 16.8054L25.1159 16.7799L26.5124 17.9724L28.0552 19.2894C28.0207 18.9482 27.9997 18.6017 27.9997 18.2499C27.9997 15.9542 28.7984 13.8474 30.1259 12.1817Z" fill="#FF884D"/>
<path d="M31 18.25C31 16.6975 31.5295 15.2718 32.4108 14.131L31.2685 13.156L30.1262 12.181C28.7987 13.8475 28 15.9543 28 18.25C28 18.6018 28.021 18.9483 28.057 19.2903L29.9432 20.9005L34.0765 24.43L34.3698 24.0865C32.3568 22.918 31 20.7445 31 18.25Z" fill="#FF943F"/>
<path d="M34 18.25C34 17.4407 34.2618 16.6967 34.6975 16.084L33.5522 15.106L32.41 14.131C31.5295 15.2717 31 16.6975 31 18.25C31 20.7445 32.3568 22.918 34.3698 24.0865L35.3635 22.9225L36.379 21.733C34.9878 21.184 34 19.8355 34 18.25Z" fill="#FFA32D"/>
<path d="M34.6975 16.084C34.2618 16.6967 34 17.4407 34 18.25C34 19.8355 34.9878 21.184 36.3783 21.733L38.4587 19.2955L34.6975 16.084Z" fill="#FFC208"/>
<path d="M15.8468 30.3602L11.7285 33.4592C12.6975 34.9765 13.923 36.3122 15.3368 37.417C15.2835 36.784 15.2498 36.1457 15.2498 35.5C15.2498 33.7307 15.4605 32.0117 15.8468 30.3602Z" fill="#8638FD"/>
<path d="M18.25 35.5C18.25 34.4013 18.3452 33.3258 18.52 32.2773C17.737 31.5783 17.0672 30.754 16.5422 29.8375L15.847 30.3603C15.4607 32.0118 15.25 33.7308 15.25 35.5C15.25 36.1458 15.2838 36.784 15.337 37.4163C16.3473 38.206 17.455 38.8735 18.6407 39.4C18.385 38.14 18.25 36.8358 18.25 35.5Z" fill="#7B52FC"/>
<path d="M18.6407 39.4C19.708 39.874 20.8345 40.2362 22.0112 40.4635C21.5177 38.8967 21.25 37.2295 21.25 35.5C21.25 35.0027 21.2762 34.5115 21.319 34.0247C20.2855 33.6017 19.3397 33.0092 18.52 32.2765C18.3452 33.3257 18.25 34.4012 18.25 35.5C18.25 36.8357 18.385 38.14 18.6407 39.4Z" fill="#5B4AFF"/>
<path d="M25.3052 40.7395C24.6265 39.1285 24.25 37.3585 24.25 35.5C24.25 35.2375 24.2747 34.9818 24.289 34.723C23.2435 34.6473 22.246 34.4043 21.319 34.0248C21.2762 34.5115 21.25 35.0028 21.25 35.5C21.25 37.2295 21.5177 38.8968 22.0112 40.4635C22.9787 40.6503 23.9778 40.75 25 40.75C25.1028 40.75 25.2032 40.7418 25.3052 40.7395Z" fill="#775DFC"/>
<path d="M25.3052 40.7395C26.3852 40.7185 27.4375 40.5895 28.453 40.3607C27.88 39.2657 27.4818 38.0575 27.325 36.7577C27.2313 35.9815 27.2313 35.2165 27.3047 34.4688C26.566 34.6495 25.795 34.75 25 34.75C24.7607 34.75 24.5238 34.7403 24.289 34.723C24.2748 34.9818 24.25 35.2375 24.25 35.5C24.25 37.3585 24.6265 39.1285 25.3052 40.7395Z" fill="#716BFB"/>
<path d="M30.25 35.5C30.25 34.5783 30.424 33.6993 30.7285 32.8833C29.7175 33.6213 28.5587 34.165 27.3055 34.4695C27.2327 35.2173 27.232 35.9823 27.3257 36.7586C27.4825 38.0583 27.8807 39.2665 28.4537 40.3615C29.461 40.135 30.4307 39.8125 31.354 39.4023C30.658 38.2645 30.25 36.9318 30.25 35.5Z" fill="#6094FA"/>
<path d="M31.354 39.4023C32.275 38.9935 33.1488 38.5 33.9663 37.93C33.5148 37.2288 33.25 36.3963 33.25 35.5C33.25 33.5793 34.456 31.9443 36.1503 31.2985L33.6753 29.4363C32.9748 30.8043 31.9608 31.984 30.7285 32.8833C30.424 33.6993 30.25 34.5783 30.25 35.5C30.25 36.9318 30.658 38.2645 31.354 39.4023Z" fill="#58A8FA"/>
<path d="M38.5067 33.0716L36.1503 31.2986C34.456 31.9443 33.25 33.5793 33.25 35.5001C33.25 36.3963 33.5148 37.2288 33.9663 37.9301C35.8 36.6506 37.3532 34.9961 38.5067 33.0716Z" fill="#4AC9F9"/>
</g>
<defs>
<filter id="filter0_d_68_147" x="0" y="0" width="50" height="50" filterUnits="userSpaceOnUse" color-interpolation-filters="sRGB">
<feFlood flood-opacity="0" result="BackgroundImageFix"/>
<feColorMatrix in="SourceAlpha" type="matrix" values="0 0 0 0 0 0 0 0 0 0 0 0 0 0 0 0 0 0 127 0" result="hardAlpha"/>
<feOffset/>
<feGaussianBlur stdDeviation="0.5"/>
<feComposite in2="hardAlpha" operator="out"/>
<feColorMatrix type="matrix" values="0 0 0 0 1 0 0 0 0 0.760784 0 0 0 0 0.0313726 0 0 0 0.5 0"/>
<feBlend mode="normal" in2="BackgroundImageFix" result="effect1_dropShadow_68_147"/>
<feBlend mode="normal" in="SourceGraphic" in2="effect1_dropShadow_68_147" result="shape"/>
</filter>
<linearGradient id="paint0_linear_68_147" x1="1" y1="1" x2="49" y2="49" gradientUnits="userSpaceOnUse">
<stop stop-color="white" stop-opacity="0.1"/>
<stop offset="0.5" stop-color="#FF943F" stop-opacity="0.3"/>
<stop offset="1" stop-color="#4AC9F9" stop-opacity="0.7"/>
</linearGradient>
</defs>
</svg>
