<svg width="50" height="50" viewBox="0 0 50 50" fill="none" xmlns="http://www.w3.org/2000/svg">
<g filter="url(#filter0_d_68_92)">
<rect x="1" y="1" width="48" height="48" rx="10" fill="black"/>
<rect x="1" y="1" width="48" height="48" rx="10" fill="url(#paint0_linear_68_92)" fill-opacity="0.4"/>
<path d="M19.7969 43.2812C23.1438 43.2812 25.8438 40.5813 25.8438 37.2344V31.1875H19.7969C16.45 31.1875 13.75 33.8875 13.75 37.2344C13.75 40.5813 16.45 43.2812 19.7969 43.2812Z" fill="#0ACF83"/>
<path d="M13.75 25.1406C13.75 21.7938 16.45 19.0938 19.7969 19.0938H25.8438V31.1875H19.7969C16.45 31.1875 13.75 28.4875 13.75 25.1406Z" fill="#A259FF"/>
<path d="M13.75 13.0469C13.75 9.7 16.45 7 19.7969 7H25.8438V19.0938H19.7969C16.45 19.0938 13.75 16.3938 13.75 13.0469Z" fill="#F24E1E"/>
<path d="M25.8438 7H31.8906C35.2375 7 37.9375 9.7 37.9375 13.0469C37.9375 16.3938 35.2375 19.0938 31.8906 19.0938H25.8438V7Z" fill="#FF7262"/>
<path d="M37.9375 25.1406C37.9375 28.4875 35.2375 31.1875 31.8906 31.1875C28.5438 31.1875 25.8438 28.4875 25.8438 25.1406C25.8438 21.7938 28.5438 19.0938 31.8906 19.0938C35.2375 19.0938 37.9375 21.7938 37.9375 25.1406Z" fill="#1ABCFE"/>
</g>
<defs>
<filter id="filter0_d_68_92" x="0" y="0" width="50" height="50" filterUnits="userSpaceOnUse" color-interpolation-filters="sRGB">
<feFlood flood-opacity="0" result="BackgroundImageFix"/>
<feColorMatrix in="SourceAlpha" type="matrix" values="0 0 0 0 0 0 0 0 0 0 0 0 0 0 0 0 0 0 127 0" result="hardAlpha"/>
<feOffset/>
<feGaussianBlur stdDeviation="0.5"/>
<feColorMatrix type="matrix" values="0 0 0 0 0.101961 0 0 0 0 0.737255 0 0 0 0 0.996078 0 0 0 0.5 0"/>
<feBlend mode="normal" in2="BackgroundImageFix" result="effect1_dropShadow_68_92"/>
<feBlend mode="normal" in="SourceGraphic" in2="effect1_dropShadow_68_92" result="shape"/>
</filter>
<linearGradient id="paint0_linear_68_92" x1="1" y1="1" x2="49" y2="49" gradientUnits="userSpaceOnUse">
<stop stop-color="white" stop-opacity="0.1"/>
<stop offset="0.298077" stop-color="#F24E1E" stop-opacity="0.25"/>
<stop offset="0.504808" stop-color="#A259FF" stop-opacity="0.2"/>
<stop offset="0.802885" stop-color="#1ABCFE" stop-opacity="0.3"/>
<stop offset="1" stop-color="#0ACF83" stop-opacity="0.7"/>
</linearGradient>
</defs>
</svg>
