<svg width="50" height="50" viewBox="0 0 50 50" fill="none" xmlns="http://www.w3.org/2000/svg">
<g filter="url(#filter0_d_68_37)">
<rect x="1" y="1" width="48" height="48" rx="10" fill="black"/>
<rect x="1" y="1" width="48" height="48" rx="10" fill="url(#paint0_linear_68_37)" fill-opacity="0.4"/>
<path fill-rule="evenodd" clip-rule="evenodd" d="M25 5C13.95 5 5 13.95 5 25C5 33.85 10.725 41.325 18.675 43.975C19.675 44.15 20.05 43.55 20.05 43.025C20.05 42.55 20.025 40.975 20.025 39.3C15 40.225 13.7 38.075 13.3 36.95C13.075 36.375 12.1 34.6 11.25 34.125C10.55 33.75 9.55 32.825 11.225 32.8C12.8 32.775 13.925 34.25 14.3 34.85C16.1 37.875 18.975 37.025 20.125 36.5C20.3 35.2 20.825 34.325 21.4 33.825C16.95 33.325 12.3 31.6 12.3 23.95C12.3 21.775 13.075 19.975 14.35 18.575C14.15 18.075 13.45 16.025 14.55 13.275C14.55 13.275 16.225 12.75 20.05 15.325C21.65 14.875 23.35 14.65 25.05 14.65C26.75 14.65 28.45 14.875 30.05 15.325C33.875 12.725 35.55 13.275 35.55 13.275C36.65 16.025 35.95 18.075 35.75 18.575C37.025 19.975 37.8 21.75 37.8 23.95C37.8 31.625 33.125 33.325 28.675 33.825C29.4 34.45 30.025 35.65 30.025 37.525C30.025 40.2 30 42.35 30 43.025C30 43.55 30.375 44.175 31.375 43.975C39.275 41.325 45 33.825 45 25C45 13.95 36.05 5 25 5Z" fill="white"/>
</g>
<defs>
<filter id="filter0_d_68_37" x="0" y="0" width="50" height="50" filterUnits="userSpaceOnUse" color-interpolation-filters="sRGB">
<feFlood flood-opacity="0" result="BackgroundImageFix"/>
<feColorMatrix in="SourceAlpha" type="matrix" values="0 0 0 0 0 0 0 0 0 0 0 0 0 0 0 0 0 0 127 0" result="hardAlpha"/>
<feOffset/>
<feGaussianBlur stdDeviation="0.5"/>
<feComposite in2="hardAlpha" operator="out"/>
<feColorMatrix type="matrix" values="0 0 0 0 1 0 0 0 0 1 0 0 0 0 1 0 0 0 0.5 0"/>
<feBlend mode="normal" in2="BackgroundImageFix" result="effect1_dropShadow_68_37"/>
<feBlend mode="normal" in="SourceGraphic" in2="effect1_dropShadow_68_37" result="shape"/>
</filter>
<linearGradient id="paint0_linear_68_37" x1="1" y1="1" x2="49" y2="49" gradientUnits="userSpaceOnUse">
<stop stop-color="white" stop-opacity="0"/>
<stop offset="0.5" stop-color="white" stop-opacity="0.2"/>
<stop offset="1" stop-color="white" stop-opacity="0.3"/>
</linearGradient>
</defs>
</svg>
