<svg width="50" height="50" viewBox="0 0 50 50" fill="none" xmlns="http://www.w3.org/2000/svg">
<g filter="url(#filter0_d_68_142)">
<rect x="1" y="1" width="48" height="48" rx="10" fill="white"/>
<rect x="1" y="1" width="48" height="48" rx="10" fill="url(#paint0_linear_68_142)"/>
<path d="M24.3331 28.9317H18.1331L16.8664 32.9487C16.8331 33.1026 16.6998 33.2052 16.5498 33.1881H13.4164C13.2331 33.1881 13.1831 33.0855 13.2331 32.8804L18.5998 17.0342C18.6498 16.8633 18.6998 16.6752 18.7664 16.4701C18.8331 16.1111 18.8664 15.7351 18.8664 15.359C18.8498 15.2735 18.9164 15.1881 18.9998 15.171H23.3164C23.4498 15.171 23.5164 15.2223 23.5331 15.3077L29.6164 32.9146C29.6664 33.1026 29.6164 33.1881 29.4498 33.1881H25.9664C25.8498 33.2052 25.7331 33.1197 25.6998 33L24.3331 28.9317ZM19.0998 25.4616H23.3331C23.2331 25.1026 23.0998 24.6752 22.9498 24.2308C22.7998 23.7693 22.6498 23.2735 22.4998 22.7607C22.3331 22.2308 22.1831 21.718 22.0164 21.1881C21.8498 20.6581 21.6998 20.1624 21.5664 19.6667C21.4331 19.1881 21.3164 18.7436 21.1998 18.3334H21.1664C21.0164 19.0684 20.8331 19.8034 20.5998 20.5385C20.3498 21.359 20.0998 22.2137 19.8331 23.0684C19.5998 23.9402 19.3498 24.7436 19.0998 25.4616ZM33.3331 18.1624C32.7831 18.1795 32.2498 17.9573 31.8498 17.5641C31.4664 17.1368 31.2664 16.5727 31.2831 15.9915C31.2664 15.4103 31.4831 14.8633 31.8831 14.4701C32.2831 14.077 32.8164 13.8718 33.3664 13.8718C34.0164 13.8718 34.5164 14.077 34.8831 14.4701C35.2498 14.8804 35.4498 15.4274 35.4331 15.9915C35.4498 16.5727 35.2498 17.1368 34.8498 17.5641C34.4664 17.9744 33.8998 18.1966 33.3331 18.1624ZM31.4664 33V19.8376C31.4664 19.6667 31.5331 19.5983 31.6831 19.5983H34.9831C35.1331 19.5983 35.1998 19.6838 35.1998 19.8376V33C35.1998 33.1881 35.1331 33.2735 34.9831 33.2735H31.7164C31.5498 33.2735 31.4664 33.171 31.4664 33Z" fill="#FF9A00"/>
</g>
<defs>
<filter id="filter0_d_68_142" x="0" y="0" width="50" height="50" filterUnits="userSpaceOnUse" color-interpolation-filters="sRGB">
<feFlood flood-opacity="0" result="BackgroundImageFix"/>
<feColorMatrix in="SourceAlpha" type="matrix" values="0 0 0 0 0 0 0 0 0 0 0 0 0 0 0 0 0 0 127 0" result="hardAlpha"/>
<feOffset/>
<feGaussianBlur stdDeviation="0.5"/>
<feColorMatrix type="matrix" values="0 0 0 0 1 0 0 0 0 0.603922 0 0 0 0 0 0 0 0 0.5 0"/>
<feBlend mode="normal" in2="BackgroundImageFix" result="effect1_dropShadow_68_142"/>
<feBlend mode="normal" in="SourceGraphic" in2="effect1_dropShadow_68_142" result="shape"/>
</filter>
<linearGradient id="paint0_linear_68_142" x1="1" y1="1" x2="49" y2="49" gradientUnits="userSpaceOnUse">
<stop offset="1" stop-color="#330000"/>
</linearGradient>
</defs>
</svg>
