<svg width="50" height="50" viewBox="0 0 50 50" fill="none" xmlns="http://www.w3.org/2000/svg">
<g filter="url(#filter0_d_68_122)">
<rect x="1" y="1" width="48" height="48" rx="10" fill="black"/>
<rect x="1" y="1" width="48" height="48" rx="10" fill="url(#paint0_linear_68_122)" fill-opacity="0.4"/>
<path d="M25.0009 43.877C24.4713 43.877 23.977 43.738 23.518 43.4948L18.8224 40.7496C18.1163 40.3674 18.4693 40.2284 18.6812 40.1589C19.6344 39.8461 19.8109 39.7766 20.7995 39.2206C20.9054 39.1512 21.0466 39.1859 21.1526 39.2554L24.7537 41.3751C24.895 41.4446 25.0715 41.4446 25.1774 41.3751L39.2644 33.348C39.4056 33.2786 39.4762 33.1396 39.4762 32.9658V16.9465C39.4762 16.7727 39.4056 16.6337 39.2644 16.5642L25.1774 8.57192C25.0362 8.50243 24.8597 8.50243 24.7537 8.57192L10.6668 16.5642C10.5256 16.6337 10.4549 16.8075 10.4549 16.9465V32.9658C10.4549 33.1048 10.5256 33.2786 10.6668 33.348L14.5151 35.5372C16.5981 36.5797 17.9044 35.3635 17.9044 34.1473V18.3364C17.9044 18.1279 18.081 17.9194 18.3281 17.9194H20.1287C20.3405 17.9194 20.5524 18.0932 20.5524 18.3364V34.1473C20.5524 36.8925 19.0342 38.4909 16.3863 38.4909C15.5743 38.4909 14.9388 38.4909 13.1382 37.6222L9.43108 35.5372C8.51313 35.016 7.94824 34.043 7.94824 33.0006V16.9812C7.94824 15.9387 8.51313 14.9658 9.43108 14.4445L23.518 6.41748C24.4007 5.93099 25.6011 5.93099 26.4837 6.41748L40.5707 14.4445C41.4886 14.9658 42.0535 15.9387 42.0535 16.9812V33.0006C42.0535 34.043 41.4886 35.016 40.5707 35.5372L26.4837 43.5643C26.0247 43.7728 25.4952 43.877 25.0009 43.877ZM29.3435 32.8616C23.165 32.8616 21.894 30.0816 21.894 27.7187C21.894 27.5102 22.0705 27.3017 22.3176 27.3017H24.1535C24.3654 27.3017 24.5419 27.4407 24.5419 27.6492C24.8243 29.4909 25.6364 30.3944 29.3788 30.3944C32.3444 30.3944 33.6155 29.7341 33.6155 28.1704C33.6155 27.267 33.2624 26.6067 28.6374 26.155C24.789 25.7727 22.3883 24.9388 22.3883 21.9156C22.3883 19.1009 24.789 17.433 28.8139 17.433C33.333 17.433 35.5573 18.9619 35.8397 22.2978C35.8397 22.4021 35.8044 22.5063 35.7338 22.6106C35.6632 22.6801 35.5573 22.7496 35.4513 22.7496H33.6155C33.4389 22.7496 33.2624 22.6106 33.2271 22.4368C32.8034 20.5256 31.7089 19.9001 28.8139 19.9001C25.5658 19.9001 25.1774 21.0121 25.1774 21.8461C25.1774 22.8538 25.6364 23.1666 30.0143 23.7225C34.3569 24.2785 36.4046 25.0778 36.4046 28.0662C36.3693 31.1241 33.8273 32.8616 29.3435 32.8616Z" fill="#539E43"/>
</g>
<defs>
<filter id="filter0_d_68_122" x="0" y="0" width="50" height="50" filterUnits="userSpaceOnUse" color-interpolation-filters="sRGB">
<feFlood flood-opacity="0" result="BackgroundImageFix"/>
<feColorMatrix in="SourceAlpha" type="matrix" values="0 0 0 0 0 0 0 0 0 0 0 0 0 0 0 0 0 0 127 0" result="hardAlpha"/>
<feOffset/>
<feGaussianBlur stdDeviation="0.5"/>
<feComposite in2="hardAlpha" operator="out"/>
<feColorMatrix type="matrix" values="0 0 0 0 0.403922 0 0 0 0 0.768627 0 0 0 0 0.32549 0 0 0 0.5 0"/>
<feBlend mode="normal" in2="BackgroundImageFix" result="effect1_dropShadow_68_122"/>
<feBlend mode="normal" in="SourceGraphic" in2="effect1_dropShadow_68_122" result="shape"/>
</filter>
<linearGradient id="paint0_linear_68_122" x1="1" y1="1" x2="49" y2="49" gradientUnits="userSpaceOnUse">
<stop stop-color="white" stop-opacity="0.1"/>
<stop offset="0.5" stop-color="#67C453" stop-opacity="0.3"/>
<stop offset="1" stop-color="#539E43" stop-opacity="0.7"/>
</linearGradient>
</defs>
</svg>
