<svg width="50" height="50" viewBox="0 0 50 50" fill="none" xmlns="http://www.w3.org/2000/svg">
<g filter="url(#filter0_d_68_102)">
<rect x="1" y="1" width="48" height="48" rx="10" fill="#001E36"/>
<path d="M14 33.0512V15.4615C14 15.3418 14.05 15.2735 14.1667 15.2735C14.45 15.2735 14.7167 15.2735 15.1 15.2564C15.5 15.2393 15.9167 15.2393 16.3667 15.2222C16.8167 15.2051 17.3 15.2051 17.8167 15.188C18.3333 15.1709 18.8333 15.1709 19.3333 15.1709C20.7 15.1709 21.8333 15.3418 22.7667 15.7008C23.6 15.9914 24.3667 16.47 25 17.1025C25.5333 17.6495 25.95 18.3162 26.2167 19.0512C26.4667 19.7692 26.6 20.5042 26.6 21.2735C26.6 22.7435 26.2667 23.9572 25.6 24.9145C24.9333 25.8718 24 26.5897 22.9167 27C21.7833 27.4273 20.5333 27.5812 19.1667 27.5812C18.7667 27.5812 18.5 27.5812 18.3333 27.5641C18.1667 27.547 17.9333 27.547 17.6167 27.547V33.0341C17.6333 33.1538 17.55 33.2564 17.4333 33.2735C17.4167 33.2735 17.4 33.2735 17.3667 33.2735H14.2C14.0667 33.2735 14 33.2051 14 33.0512ZM17.6333 18.5726V24.3162C17.8667 24.3333 18.0833 24.3504 18.2833 24.3504H19.1667C19.8167 24.3504 20.4667 24.2478 21.0833 24.0427C21.6167 23.8888 22.0833 23.5641 22.45 23.1367C22.8 22.7094 22.9667 22.1282 22.9667 21.376C22.9833 20.8461 22.85 20.3162 22.5833 19.8547C22.3 19.4102 21.9 19.0683 21.4167 18.8803C20.8 18.6239 20.1333 18.5213 19.45 18.5384C19.0167 18.5384 18.6333 18.5384 18.3167 18.5555C17.9833 18.5384 17.75 18.5555 17.6333 18.5726Z" fill="#31A8FF"/>
<path d="M36.9996 23.2734C36.4996 22.9999 35.9663 22.8119 35.3996 22.6922C34.783 22.5555 34.1663 22.47 33.533 22.47C33.1996 22.4529 32.8496 22.5042 32.533 22.5896C32.3163 22.6409 32.133 22.7606 32.0163 22.9315C31.933 23.0683 31.883 23.2392 31.883 23.3931C31.883 23.5469 31.9496 23.7008 32.0496 23.8375C32.1996 24.0255 32.3996 24.1794 32.6163 24.299C32.9996 24.5042 33.3996 24.6922 33.7996 24.8631C34.6996 25.1708 35.5663 25.5982 36.3663 26.111C36.9163 26.47 37.3663 26.9486 37.683 27.5298C37.9496 28.0768 38.083 28.6751 38.0663 29.2905C38.083 30.0939 37.8496 30.8973 37.4163 31.564C36.9496 32.2478 36.2996 32.7777 35.5496 33.0854C34.733 33.4443 33.733 33.6324 32.533 33.6324C31.7663 33.6324 31.0163 33.564 30.2663 33.4102C29.683 33.3076 29.0996 33.1196 28.5663 32.8631C28.4496 32.7948 28.3663 32.6751 28.383 32.5384V29.564C28.383 29.5127 28.3996 29.4443 28.4496 29.4102C28.4996 29.376 28.5497 29.3931 28.5997 29.4272C29.2497 29.8204 29.933 30.0939 30.6663 30.2649C31.2996 30.4358 31.9663 30.5213 32.633 30.5213C33.2663 30.5213 33.7163 30.4358 34.0163 30.2819C34.283 30.1623 34.4663 29.8717 34.4663 29.564C34.4663 29.3247 34.333 29.1025 34.0663 28.8802C33.7996 28.658 33.2497 28.4016 32.433 28.0768C31.583 27.7691 30.7996 27.3589 30.0663 26.8461C29.5496 26.47 29.1163 25.9743 28.7996 25.3931C28.533 24.8461 28.3996 24.2478 28.4163 23.6495C28.4163 22.9144 28.6163 22.2136 28.983 21.5811C29.3996 20.8973 30.0163 20.3503 30.733 20.0084C31.5163 19.5982 32.4997 19.4102 33.683 19.4102C34.3663 19.4102 35.0663 19.4614 35.7496 19.564C36.2496 19.6324 36.733 19.7691 37.183 19.9572C37.2497 19.9743 37.3163 20.0426 37.3496 20.111C37.3663 20.1794 37.383 20.2478 37.383 20.3161V23.1025C37.383 23.1708 37.3496 23.2392 37.2996 23.2734C37.1496 23.3076 37.0663 23.3076 36.9996 23.2734Z" fill="#31A8FF"/>
</g>
<defs>
<filter id="filter0_d_68_102" x="0" y="0" width="50" height="50" filterUnits="userSpaceOnUse" color-interpolation-filters="sRGB">
<feFlood flood-opacity="0" result="BackgroundImageFix"/>
<feColorMatrix in="SourceAlpha" type="matrix" values="0 0 0 0 0 0 0 0 0 0 0 0 0 0 0 0 0 0 127 0" result="hardAlpha"/>
<feOffset/>
<feGaussianBlur stdDeviation="0.5"/>
<feComposite in2="hardAlpha" operator="out"/>
<feColorMatrix type="matrix" values="0 0 0 0 0.192157 0 0 0 0 0.658824 0 0 0 0 1 0 0 0 0.5 0"/>
<feBlend mode="normal" in2="BackgroundImageFix" result="effect1_dropShadow_68_102"/>
<feBlend mode="normal" in="SourceGraphic" in2="effect1_dropShadow_68_102" result="shape"/>
</filter>
</defs>
</svg>
