<svg width="50" height="50" viewBox="0 0 50 50" fill="none" xmlns="http://www.w3.org/2000/svg">
<g filter="url(#filter0_d_68_97)">
<rect x="1" y="1" width="48" height="48" rx="10" fill="black"/>
<rect x="1" y="1" width="48" height="48" rx="10" fill="url(#paint0_linear_68_97)" fill-opacity="0.4"/>
<path d="M38.5002 27.7H29.5002C28.5061 27.7 27.7002 28.5058 27.7002 29.5V38.5C27.7002 39.4941 28.5061 40.3 29.5002 40.3H38.5002C39.4943 40.3 40.3002 39.4941 40.3002 38.5V29.5C40.3002 28.5058 39.4943 27.7 38.5002 27.7Z" stroke="white" stroke-width="2"/>
<path d="M38.5002 9.69995H29.5002C28.5061 9.69995 27.7002 10.5058 27.7002 11.5V20.5C27.7002 21.4941 28.5061 22.3 29.5002 22.3H38.5002C39.4943 22.3 40.3002 21.4941 40.3002 20.5V11.5C40.3002 10.5058 39.4943 9.69995 38.5002 9.69995Z" stroke="#FF0072" stroke-width="2"/>
<path d="M20.5002 27.7H11.5002C10.5061 27.7 9.7002 28.5058 9.7002 29.5V38.5C9.7002 39.4941 10.5061 40.3 11.5002 40.3H20.5002C21.4943 40.3 22.3002 39.4941 22.3002 38.5V29.5C22.3002 28.5058 21.4943 27.7 20.5002 27.7Z" stroke="white" stroke-width="2"/>
<path d="M20.5002 9.69995H11.5002C10.5061 9.69995 9.7002 10.5058 9.7002 11.5V20.5C9.7002 21.4941 10.5061 22.3 11.5002 22.3H20.5002C21.4943 22.3 22.3002 21.4941 22.3002 20.5V11.5C22.3002 10.5058 21.4943 9.69995 20.5002 9.69995Z" stroke="white" stroke-width="2"/>
<path d="M22.2996 18.7C23.7908 18.7 24.9996 17.4912 24.9996 16C24.9996 14.5089 23.7908 13.3 22.2996 13.3C20.8084 13.3 19.5996 14.5089 19.5996 16C19.5996 17.4912 20.8084 18.7 22.2996 18.7Z" fill="white"/>
<path d="M27.7 18.7C29.1912 18.7 30.4 17.4912 30.4 16C30.4 14.5089 29.1912 13.3 27.7 13.3C26.2088 13.3 25 14.5089 25 16C25 17.4912 26.2088 18.7 27.7 18.7Z" fill="white"/>
<path d="M33.9998 25C35.491 25 36.6998 23.7911 36.6998 22.3C36.6998 20.8088 35.491 19.6 33.9998 19.6C32.5086 19.6 31.2998 20.8088 31.2998 22.3C31.2998 23.7911 32.5086 25 33.9998 25Z" fill="white"/>
<path d="M33.9998 30.4C35.491 30.4 36.6998 29.1912 36.6998 27.7C36.6998 26.2088 35.491 25 33.9998 25C32.5086 25 31.2998 26.2088 31.2998 27.7C31.2998 29.1912 32.5086 30.4 33.9998 30.4Z" fill="white"/>
<path d="M22.2996 36.7C23.7908 36.7 24.9996 35.4912 24.9996 34C24.9996 32.5089 23.7908 31.3 22.2996 31.3C20.8084 31.3 19.5996 32.5089 19.5996 34C19.5996 35.4912 20.8084 36.7 22.2996 36.7Z" fill="white"/>
<path d="M27.7 36.7C29.1912 36.7 30.4 35.4912 30.4 34C30.4 32.5089 29.1912 31.3 27.7 31.3C26.2088 31.3 25 32.5089 25 34C25 35.4912 26.2088 36.7 27.7 36.7Z" fill="white"/>
<path d="M34.0002 29.5C34.9943 29.5 35.8002 28.6941 35.8002 27.7C35.8002 26.7059 34.9943 25.9 34.0002 25.9C33.0061 25.9 32.2002 26.7059 32.2002 27.7C32.2002 28.6941 33.0061 29.5 34.0002 29.5Z" fill="black"/>
<path d="M22.3 35.8C23.2941 35.8 24.1 34.9941 24.1 34C24.1 33.0058 23.2941 32.2 22.3 32.2C21.3059 32.2 20.5 33.0058 20.5 34C20.5 34.9941 21.3059 35.8 22.3 35.8Z" fill="black"/>
<path d="M27.7004 35.8C28.6945 35.8 29.5004 34.9941 29.5004 34C29.5004 33.0058 28.6945 32.2 27.7004 32.2C26.7063 32.2 25.9004 33.0058 25.9004 34C25.9004 34.9941 26.7063 35.8 27.7004 35.8Z" fill="black"/>
<path opacity="0.35" d="M23.2002 15.55H26.8002V16.45H23.2002V15.55ZM33.5502 26.35V22.75H34.4502V26.35H33.5502ZM23.2002 33.55H26.8002V34.45H23.2002V33.55Z" fill="black"/>
<path d="M22.3 17.8C23.2941 17.8 24.1 16.9941 24.1 16C24.1 15.0058 23.2941 14.2 22.3 14.2C21.3059 14.2 20.5 15.0058 20.5 16C20.5 16.9941 21.3059 17.8 22.3 17.8Z" fill="black"/>
<path d="M27.7004 17.8C28.6945 17.8 29.5004 16.9941 29.5004 16C29.5004 15.0058 28.6945 14.2 27.7004 14.2C26.7063 14.2 25.9004 15.0058 25.9004 16C25.9004 16.9941 26.7063 17.8 27.7004 17.8Z" fill="#FF0072"/>
<path d="M34.0002 24.1C34.9943 24.1 35.8002 23.2941 35.8002 22.3C35.8002 21.3059 34.9943 20.5 34.0002 20.5C33.0061 20.5 32.2002 21.3059 32.2002 22.3C32.2002 23.2941 33.0061 24.1 34.0002 24.1Z" fill="#FF0072"/>
</g>
<defs>
<filter id="filter0_d_68_97" x="0" y="0" width="50" height="50" filterUnits="userSpaceOnUse" color-interpolation-filters="sRGB">
<feFlood flood-opacity="0" result="BackgroundImageFix"/>
<feColorMatrix in="SourceAlpha" type="matrix" values="0 0 0 0 0 0 0 0 0 0 0 0 0 0 0 0 0 0 127 0" result="hardAlpha"/>
<feOffset/>
<feGaussianBlur stdDeviation="0.5"/>
<feComposite in2="hardAlpha" operator="out"/>
<feColorMatrix type="matrix" values="0 0 0 0 1 0 0 0 0 0 0 0 0 0 0.447059 0 0 0 0.5 0"/>
<feBlend mode="normal" in2="BackgroundImageFix" result="effect1_dropShadow_68_97"/>
<feBlend mode="normal" in="SourceGraphic" in2="effect1_dropShadow_68_97" result="shape"/>
</filter>
<linearGradient id="paint0_linear_68_97" x1="1" y1="1" x2="49" y2="49" gradientUnits="userSpaceOnUse">
<stop stop-color="white" stop-opacity="0.1"/>
<stop offset="0.5" stop-color="#FF80B9" stop-opacity="0.3"/>
<stop offset="1" stop-color="#FF0072" stop-opacity="0.7"/>
</linearGradient>
</defs>
</svg>
