<svg width="50" height="50" viewBox="0 0 50 50" fill="none" xmlns="http://www.w3.org/2000/svg">
<g filter="url(#filter0_d_68_77)">
<rect x="1" y="1" width="48" height="48" rx="10" fill="black"/>
<rect x="1" y="1" width="48" height="48" rx="10" fill="url(#paint0_linear_68_77)" fill-opacity="0.4"/>
<path d="M31.9443 31.7809C29.413 36.9559 24.9805 40.4378 19.1165 41.5825C18.2173 41.8028 17.2943 41.9105 16.3686 41.9031C12.9936 41.9031 9.89989 40.4969 8.39802 38.1934C6.38145 35.125 5.6952 28.6197 12.344 23.8075C12.479 24.5416 12.7546 25.5484 12.9374 26.1447C11.6322 27.1144 10.5639 28.3673 9.8127 29.8094C8.5752 32.2394 8.71302 34.6666 10.1783 36.9109C11.1908 38.4241 12.794 39.3438 14.8555 39.625C17.4305 39.9509 20.0427 39.459 22.3227 38.2188C25.8974 36.34 28.2796 34.0956 29.8377 31.0272C29.3971 30.5719 29.1363 29.9724 29.1036 29.3397C29.0801 28.6607 29.3269 28.0001 29.7898 27.5029C30.2528 27.0057 30.8941 26.7124 31.573 26.6875H31.6686C32.329 26.6842 32.9654 26.9349 33.4461 27.3877C33.9268 27.8405 34.215 28.4607 34.2511 29.1201C34.2873 29.7795 34.0685 30.4275 33.6402 30.9301C33.2118 31.4327 32.6067 31.7515 31.9499 31.8203L31.9443 31.7809ZM40.0077 26.0997C43.4418 29.9922 43.5346 34.5738 42.2071 37.2316C40.9696 39.6588 37.7071 42.0888 33.3196 42.0888C31.2714 42.047 29.2566 41.5625 27.4133 40.6684C28.0574 40.21 28.9715 39.4759 29.4749 39.0175C30.8963 39.6333 32.426 39.9603 33.9749 39.9794C36.8155 39.9794 38.9671 38.6519 40.2496 36.2247C41.0736 34.6216 41.1215 32.7428 40.3424 30.8191C39.3864 28.3986 37.6854 26.3449 35.4852 24.955C32.5986 23.0092 29.1957 21.9718 25.7146 21.9766H24.8905C24.6984 22.4205 24.3857 22.8017 23.9881 23.077C23.5904 23.3524 23.1236 23.511 22.6405 23.5347H22.5533C21.8851 23.5265 21.2464 23.2581 20.7729 22.7866C20.2994 22.315 20.0284 21.6774 20.0174 21.0093C20.0064 20.3411 20.2564 19.695 20.7141 19.2081C21.1719 18.7213 21.8014 18.4321 22.469 18.4019H22.5618C23.027 18.4022 23.4831 18.5308 23.88 18.7734C24.2769 19.016 24.5993 19.3633 24.8118 19.7772H25.5458C31.3958 19.7772 36.5315 22.0216 40.0077 26.0997ZM16.7343 32.5684C16.6861 32.1014 16.7992 31.6319 17.0549 31.2381C14.4899 26.7944 13.1174 21.1609 15.224 15.2969C16.7343 10.8897 20.5368 7.91125 24.6599 7.91125C29.0586 7.91125 33.6402 11.7616 34.1886 19.1809C33.5024 18.9531 32.5011 18.6184 31.8993 18.4947C31.7502 16.0675 29.6999 10.0206 24.8427 10.1106C23.1018 10.1584 20.5368 10.9825 19.2177 12.6756C17.5861 14.6967 16.6369 17.1829 16.5065 19.7772C16.1973 23.3344 17.0319 26.8974 18.8886 29.9472C18.9911 29.9097 19.1004 29.8944 19.2093 29.9022H19.2993C19.9795 29.8899 20.6369 30.1483 21.1266 30.6206C21.6163 31.093 21.8984 31.7405 21.9107 32.4208C21.923 33.1011 21.6645 33.7584 21.1922 34.2481C20.7199 34.7378 20.0724 35.0199 19.3921 35.0322H19.2993C18.6356 35.0298 17.9984 34.7715 17.5206 34.3109C17.0427 33.8503 16.7611 33.2231 16.7343 32.56V32.5684Z" fill="#764ABC"/>
</g>
<defs>
<filter id="filter0_d_68_77" x="0" y="0" width="50" height="50" filterUnits="userSpaceOnUse" color-interpolation-filters="sRGB">
<feFlood flood-opacity="0" result="BackgroundImageFix"/>
<feColorMatrix in="SourceAlpha" type="matrix" values="0 0 0 0 0 0 0 0 0 0 0 0 0 0 0 0 0 0 127 0" result="hardAlpha"/>
<feOffset/>
<feGaussianBlur stdDeviation="0.5"/>
<feComposite in2="hardAlpha" operator="out"/>
<feColorMatrix type="matrix" values="0 0 0 0 0.729412 0 0 0 0 0.643137 0 0 0 0 0.866667 0 0 0 0.5 0"/>
<feBlend mode="normal" in2="BackgroundImageFix" result="effect1_dropShadow_68_77"/>
<feBlend mode="normal" in="SourceGraphic" in2="effect1_dropShadow_68_77" result="shape"/>
</filter>
<linearGradient id="paint0_linear_68_77" x1="1" y1="1" x2="49" y2="49" gradientUnits="userSpaceOnUse">
<stop stop-color="white" stop-opacity="0.1"/>
<stop offset="0.5" stop-color="#BBA5DE" stop-opacity="0.3"/>
<stop offset="1" stop-color="#764ABC" stop-opacity="0.7"/>
</linearGradient>
</defs>
</svg>
