<svg width="50" height="50" viewBox="0 0 50 50" fill="none" xmlns="http://www.w3.org/2000/svg">
<g filter="url(#filter0_d_68_162)">
<rect x="1" y="1" width="48" height="48" rx="10" fill="black"/>
<rect x="1" y="1" width="48" height="48" rx="10" fill="url(#paint0_linear_68_162)" fill-opacity="0.4"/>
<path fill-rule="evenodd" clip-rule="evenodd" d="M7 22.2587C7 22.4608 7.05935 22.5942 7.09261 22.7239C7.30938 23.5672 7.77532 24.291 8.32813 24.9511C9.11549 25.8919 10.0798 26.6493 11.0675 27.3615C11.9243 27.9792 12.7985 28.583 13.6587 29.196C13.8064 29.3012 13.946 29.4223 14.1063 29.5514C13.9684 29.6262 13.8537 29.692 13.7344 29.7527C12.5992 30.33 11.5071 30.9773 10.5004 31.7614C9.89367 32.2341 9.30702 32.7364 8.8927 33.3928C8.22605 34.4487 7.99008 35.5735 8.48698 36.7745C8.63206 37.1253 8.85342 37.4284 9.16567 37.6524C9.26688 37.7248 9.38043 37.7967 9.49885 37.8249C9.8022 37.8965 10.1113 37.9434 10.4184 38L11.288 37.9994C12.2497 37.9135 13.1251 37.5831 13.9162 37.0356C15.1526 36.1799 15.9855 35.0327 16.3436 33.5602C16.604 32.49 16.6146 31.4186 16.3078 30.3533C16.2784 30.2546 16.2446 30.1573 16.2063 30.0618C16.169 29.966 16.1252 29.8729 16.0735 29.7535L18.0451 28.6166L18.0746 28.6419C18.0388 28.7595 18.0007 28.8768 17.9683 28.9956C17.734 29.8536 17.5783 30.7265 17.6342 31.617C17.6939 32.5659 17.9579 33.4541 18.5119 34.2468C18.9598 34.888 20.027 34.9119 20.5029 34.2684C20.6718 34.0398 20.8355 33.8009 20.9586 33.5458C21.28 32.8802 21.5776 32.2027 21.8847 31.5299L21.9383 31.4068C21.9162 31.7254 21.8904 32.0052 21.8787 32.2853C21.8603 32.7226 21.8858 33.1574 22.0349 33.5734C22.1625 33.9294 22.3796 34.1954 22.7862 34.2422C23.0643 34.2741 23.2859 34.1465 23.4904 33.9846C23.8071 33.7336 24.0696 33.4207 24.262 33.0648C24.807 32.061 25.3667 31.0632 25.8608 30.0342C26.3952 28.9211 26.8626 27.7756 27.3589 26.6436L27.4409 26.4429C27.5582 26.9049 27.6399 27.3575 27.7904 27.7859C27.9654 28.2831 28.1818 28.7684 28.4175 29.2403C28.5291 29.4631 28.5162 29.6077 28.3616 29.7946C27.7148 30.5767 27.0791 31.3683 26.4428 32.159C26.302 32.3336 26.1618 32.5113 26.0446 32.7019C25.9734 32.8223 25.9266 32.9556 25.9069 33.0941C25.8872 33.2216 25.9175 33.3519 25.9914 33.4575C26.0653 33.5632 26.1772 33.636 26.3035 33.6608C26.5584 33.7159 26.8198 33.7346 27.0799 33.7163C27.9679 33.6508 28.7742 33.3382 29.487 32.8086C30.4106 32.1225 30.7071 31.1863 30.4834 30.0767C30.4229 29.7757 30.316 29.483 30.2119 29.1928C30.1651 29.062 30.162 28.9703 30.2471 28.8484C30.9855 27.7911 31.6163 26.6694 32.2029 25.5219C32.2261 25.4768 32.2499 25.4316 32.2907 25.3833C32.4808 26.3753 32.7669 27.3313 33.2796 28.1988C33.0181 28.4516 32.7592 28.6807 32.5249 28.9332C32.0091 29.4893 31.5618 30.0931 31.3284 30.8295C31.228 31.1469 31.1509 31.4695 31.1956 31.8085C31.265 32.335 31.6951 32.6772 32.2115 32.5573C33.3166 32.3008 34.2705 31.7786 34.9676 30.8536C35.4367 30.2308 35.4794 29.5362 35.283 28.8084C35.2291 28.6106 35.1651 28.4159 35.0963 28.1891C35.369 28.1042 35.6348 28.0025 35.9098 27.9395C37.3374 27.6128 38.7495 27.6698 40.1253 28.1868C40.9284 28.4887 41.5772 28.9939 41.962 29.7886C42.432 30.7602 42.1722 31.682 41.259 32.2962C41.1738 32.3534 41.0763 32.3986 41.0058 32.4701C40.9832 32.4964 40.9663 32.5271 40.9562 32.5603C40.9461 32.5934 40.9429 32.6284 40.947 32.6628C40.953 32.6982 41.0462 32.7424 41.0998 32.7419C41.4001 32.7396 41.6435 32.5817 41.8772 32.4195C42.4627 32.0133 42.8899 31.4667 42.9819 30.747L43 30.6929L42.9779 30.2242C42.969 30.1972 42.9845 30.1705 42.9825 30.15C42.8581 29.102 42.2998 28.2891 41.4878 27.6519C40.5473 26.9144 39.4368 26.6108 38.2624 26.5628C37.3099 26.5217 36.3586 26.6685 35.4625 26.9949C35.2053 27.0884 34.9504 27.1991 34.6917 27.3035C34.657 27.2405 34.6198 27.1801 34.5891 27.1177C34.3236 26.5725 34.0019 26.0515 33.9308 25.4264C33.8803 24.9825 33.8184 24.5391 33.9236 24.1C34.0248 23.6777 34.1567 23.2625 34.2808 22.8458C34.3448 22.6313 34.2998 22.5111 34.0956 22.4145C34.0245 22.3789 33.9486 22.354 33.8703 22.3403C33.3685 22.2673 32.8736 22.309 32.3876 22.4507C32.2155 22.5011 32.0905 22.5977 32.0524 22.7886C32.0306 22.8981 31.9862 23.0031 31.9552 23.1112C31.8282 23.5606 31.7381 24.0187 31.5328 24.4468C31.0184 25.5207 30.4312 26.5541 29.8302 27.5801C29.7652 27.6908 29.6966 27.7994 29.6146 27.9337C29.4036 27.4909 29.1785 27.0936 29.1103 26.6278C29.0331 26.101 28.9723 25.5751 29.1031 25.0524C29.2003 24.6625 29.3273 24.2797 29.4443 23.895C29.4996 23.7122 29.4741 23.6161 29.309 23.5198C29.2255 23.4712 29.1312 23.4281 29.0371 23.414C28.5226 23.3354 27.9969 23.3785 27.502 23.5399C27.3463 23.5905 27.2646 23.6915 27.217 23.8525C27.0771 24.3275 26.9578 24.814 26.7614 25.2657C25.966 27.0944 25.1477 28.9136 24.3302 30.7326C24.1596 31.1124 23.9597 31.479 23.7673 31.8488C23.7186 31.9425 23.6475 32.025 23.5867 32.113C23.538 32.0552 23.519 32.0156 23.5193 31.9759C23.5208 31.7421 23.493 31.5014 23.5374 31.2754C23.6739 30.5919 23.8247 29.9114 23.9899 29.2342C24.1246 28.6747 24.2815 28.1203 24.4308 27.5645C24.481 27.3785 24.4819 27.2045 24.3485 27.0481C24.1246 26.7862 23.6567 26.7287 23.3791 26.9305L23.2564 27.0001L23.2802 26.8017C23.3387 26.3764 23.3504 25.9526 23.234 25.5337C23.0889 25.0115 22.7173 24.711 22.1771 24.7277C21.9254 24.7355 21.661 24.7786 21.4279 24.8706C20.4476 25.2559 19.6938 25.9382 19.0521 26.7592C18.9926 26.8354 18.9189 26.8992 18.835 26.9472C18.0055 27.4084 17.1734 27.8639 16.3416 28.321L15.4158 28.8297C15.1675 28.5922 14.9418 28.3458 14.6858 28.1367C13.9039 27.4973 13.1093 26.8736 12.322 26.2413C11.6241 25.6809 10.948 25.0972 10.4307 24.3551C10.0459 23.803 9.7979 23.1989 9.77411 22.5163C9.744 21.6465 9.99001 20.8518 10.4316 20.1119C10.9964 19.1654 11.7669 18.4057 12.6139 17.7177C13.5099 16.9902 14.479 16.3726 15.4835 15.8087C16.8887 15.02 18.3341 14.3219 19.8839 13.861C21.4729 13.3883 23.0852 13.1177 24.7483 13.3063C25.402 13.3805 26.0368 13.5306 26.6197 13.8512C27.0662 14.0965 27.4323 14.4176 27.6026 14.9197C27.7707 15.4136 27.7655 15.9142 27.6491 16.416C27.4125 17.4321 26.8577 18.2697 26.1595 19.0182C25.0143 20.2451 23.6174 21.0804 22.0447 21.6321C21.1404 21.9498 20.1996 22.1511 19.2448 22.2311C18.4623 22.2969 17.6961 22.2273 16.9552 21.9545C16.4646 21.7736 16.0374 21.497 15.6939 21.0956C15.6326 21.0237 15.554 20.9458 15.4396 21.0131C15.3275 21.0792 15.3077 21.1862 15.3453 21.2946C15.408 21.4746 15.466 21.662 15.5637 21.8231C15.8095 22.227 16.1679 22.52 16.5624 22.7713C17.3202 23.2547 18.1672 23.4171 19.0455 23.4548C20.3782 23.5126 21.6785 23.3131 22.9605 22.9545C24.7907 22.4427 26.382 21.5387 27.6583 20.1125C28.7209 18.925 29.4799 17.5848 29.6424 15.9666C29.7219 15.1767 29.6373 14.403 29.2685 13.6824C28.8686 12.9017 28.2326 12.3212 27.4722 11.9213C26.3648 11.339 25.1697 11 23.9362 11H22.7004C21.2066 11 19.7623 11.4293 18.3585 11.9414C17.2959 12.3293 16.2539 12.787 15.2423 13.2937C13.0394 14.3975 10.9878 15.7285 9.30272 17.5586C8.46318 18.4704 7.75238 19.4765 7.3435 20.6611C7.22009 21.0148 7.11379 21.3743 7.02495 21.7382M15.0072 32.0932C14.9117 33.3753 14.3322 34.4147 13.3852 35.2566C12.8524 35.7299 12.2414 36.0669 11.5297 36.1854C11.2717 36.2282 11.0076 36.2386 10.7573 36.1313C10.4003 35.9783 10.3203 35.6606 10.3134 35.3222C10.3028 34.7828 10.4912 34.2951 10.7496 33.831C11.0868 33.2261 11.5811 32.7649 12.1089 32.3341C12.9405 31.6553 13.8425 31.0808 14.7663 30.5385L14.836 30.5097C14.9788 31.0388 15.0468 31.5613 15.0072 32.0932ZM22.2207 26.5211C22.1534 26.9305 22.0691 27.3403 21.9498 27.7371C21.5375 29.1106 21.0079 30.4416 20.4353 31.7548C20.3295 31.9977 20.1755 32.2194 20.0416 32.4497C20.0188 32.4851 19.9915 32.5174 19.9604 32.5458C19.7947 32.71 19.6376 32.7013 19.5539 32.4865C19.4564 32.237 19.3965 31.9698 19.3448 31.7056C19.3101 31.5282 19.3185 31.3419 19.3076 31.1601C19.3187 29.868 19.7119 28.6937 20.3788 27.6005C20.6538 27.1496 20.9531 26.72 21.4104 26.4348C21.5527 26.3461 21.7066 26.2778 21.8678 26.2318C22.1115 26.1631 22.2612 26.2761 22.2207 26.5211ZM27.1422 32.8089L28.911 30.7378C28.9847 31.5069 27.6809 33.0423 27.1422 32.8089ZM32.7916 31.4152C32.6666 31.4871 32.5304 31.5388 32.4022 31.6052C32.2849 31.6662 32.2462 31.6047 32.2428 31.5035C32.241 31.4334 32.25 31.3635 32.2694 31.2961C32.5083 30.4514 32.9478 29.7302 33.6019 29.1437L33.6478 29.1201C33.9589 29.9928 33.5993 30.9511 32.7916 31.4152Z" fill="#CB6699"/>
</g>
<defs>
<filter id="filter0_d_68_162" x="0" y="0" width="50" height="50" filterUnits="userSpaceOnUse" color-interpolation-filters="sRGB">
<feFlood flood-opacity="0" result="BackgroundImageFix"/>
<feColorMatrix in="SourceAlpha" type="matrix" values="0 0 0 0 0 0 0 0 0 0 0 0 0 0 0 0 0 0 127 0" result="hardAlpha"/>
<feOffset/>
<feGaussianBlur stdDeviation="0.5"/>
<feComposite in2="hardAlpha" operator="out"/>
<feColorMatrix type="matrix" values="0 0 0 0 0.945098 0 0 0 0 0.47451 0 0 0 0 0.709804 0 0 0 0.5 0"/>
<feBlend mode="normal" in2="BackgroundImageFix" result="effect1_dropShadow_68_162"/>
<feBlend mode="normal" in="SourceGraphic" in2="effect1_dropShadow_68_162" result="shape"/>
</filter>
<linearGradient id="paint0_linear_68_162" x1="1" y1="1" x2="49" y2="49" gradientUnits="userSpaceOnUse">
<stop stop-color="white" stop-opacity="0.1"/>
<stop offset="0.5" stop-color="#F179B5" stop-opacity="0.3"/>
<stop offset="1" stop-color="#CB6699" stop-opacity="0.7"/>
</linearGradient>
</defs>
</svg>
