<svg width="50" height="50" viewBox="0 0 50 50" fill="none" xmlns="http://www.w3.org/2000/svg">
<g filter="url(#filter0_d_68_107)">
<rect x="1" y="1" width="48" height="48" rx="10" fill="black"/>
<rect x="1" y="1" width="48" height="48" rx="10" fill="url(#paint0_linear_68_107)" fill-opacity="0.4"/>
<path d="M27.5221 11.896C27.3412 11.5548 27.0928 11.2541 26.792 11.012C26.4912 10.7699 26.1443 10.5915 25.7724 10.4878C25.4005 10.384 25.0113 10.357 24.6286 10.4084C24.246 10.4598 23.8777 10.5885 23.5464 10.7867C23.1005 11.0568 22.7335 11.4393 22.4821 11.896L18.3331 19.3862L19.3917 20.0196C22.337 21.8322 24.7976 24.3336 26.5614 27.3084C28.3252 30.2832 29.3394 33.6421 29.5167 37.096H26.6041C26.425 34.1661 25.5427 31.3224 24.0319 28.8057C22.5211 26.289 20.4263 24.1732 17.9247 22.6375L16.8661 22.0063L13.0006 29.0106L14.0592 29.6428C15.3572 30.4521 16.4576 31.5414 17.2801 32.831C18.1025 34.1206 18.626 35.5778 18.8124 37.096H12.1602C12.0303 37.0954 11.906 37.0433 11.8145 36.9511C11.7229 36.8589 11.6717 36.7342 11.672 36.6043C11.6708 36.5135 11.6933 36.4239 11.7372 36.3445L13.5912 32.9965C12.9701 32.4492 12.2525 32.0223 11.4751 31.7376L9.64024 35.0777C9.25306 35.774 9.14842 36.5925 9.348 37.3637C9.54757 38.135 10.0361 38.8 10.7124 39.2211C11.1496 39.4841 11.65 39.6236 12.1602 39.625H21.3155V38.3627C21.3272 36.3838 20.8794 34.4292 20.0074 32.6527C19.1353 30.8762 17.8629 29.3264 16.2901 28.1252L17.7526 25.495C19.7672 26.9764 21.4027 28.9135 22.5254 31.148C23.6481 33.3825 24.2261 35.8509 24.2124 38.3515V39.6182H31.9749V38.3537C31.9959 34.4512 31.0655 30.6025 29.264 27.1406C27.4625 23.6788 24.8443 20.7082 21.6361 18.4862L24.5814 13.1616C24.6113 13.1054 24.6524 13.056 24.7021 13.0162C24.7517 12.9764 24.809 12.9471 24.8703 12.93C24.9316 12.913 24.9957 12.9086 25.0588 12.917C25.1219 12.9255 25.1826 12.9467 25.2372 12.9793C25.3108 13.0236 25.3713 13.0864 25.4127 13.1616L38.2524 36.3445C38.3164 36.4591 38.334 36.594 38.3015 36.7212C38.2691 36.8485 38.1891 36.9584 38.078 37.0285C38.0035 37.0747 37.9171 37.0982 37.8294 37.096H34.8256C34.8627 37.942 34.8672 38.7835 34.8256 39.6295H37.8395C38.6276 39.6126 39.3769 39.2836 39.9226 38.7147C40.4683 38.1458 40.7659 37.3835 40.7499 36.5953C40.7506 36.0654 40.6166 35.544 40.3606 35.08L27.5221 11.896Z" fill="#FB4226"/>
</g>
<defs>
<filter id="filter0_d_68_107" x="0" y="0" width="50" height="50" filterUnits="userSpaceOnUse" color-interpolation-filters="sRGB">
<feFlood flood-opacity="0" result="BackgroundImageFix"/>
<feColorMatrix in="SourceAlpha" type="matrix" values="0 0 0 0 0 0 0 0 0 0 0 0 0 0 0 0 0 0 127 0" result="hardAlpha"/>
<feOffset/>
<feGaussianBlur stdDeviation="0.5"/>
<feComposite in2="hardAlpha" operator="out"/>
<feColorMatrix type="matrix" values="0 0 0 0 1 0 0 0 0 0.317647 0 0 0 0 0.14902 0 0 0 0.5 0"/>
<feBlend mode="normal" in2="BackgroundImageFix" result="effect1_dropShadow_68_107"/>
<feBlend mode="normal" in="SourceGraphic" in2="effect1_dropShadow_68_107" result="shape"/>
</filter>
<linearGradient id="paint0_linear_68_107" x1="1" y1="1" x2="49" y2="49" gradientUnits="userSpaceOnUse">
<stop stop-color="white" stop-opacity="0.1"/>
<stop offset="0.5" stop-color="#FF5126" stop-opacity="0.3"/>
<stop offset="1" stop-color="#FB4226" stop-opacity="0.7"/>
</linearGradient>
</defs>
</svg>
