<svg width="50" height="50" viewBox="0 0 50 50" fill="none" xmlns="http://www.w3.org/2000/svg">
<g filter="url(#filter0_d_68_132)">
<rect x="1" y="1" width="48" height="48" rx="10" fill="black"/>
<rect x="1" y="1" width="48" height="48" rx="10" fill="url(#paint0_linear_68_132)" fill-opacity="0.4"/>
<path d="M28.041 42.1347C27.0966 43.2819 25.1817 42.6533 25.1589 41.1885L24.8262 19.7633H39.7611C42.4662 19.7633 43.9749 22.7771 42.2928 24.8207L28.041 42.1347Z" fill="url(#paint1_linear_68_132)"/>
<path d="M28.041 42.1347C27.0966 43.2819 25.1817 42.6533 25.1589 41.1885L24.8262 19.7633H39.7611C42.4662 19.7633 43.9749 22.7771 42.2928 24.8207L28.041 42.1347Z" fill="url(#paint2_linear_68_132)" fill-opacity="0.2"/>
<path d="M21.9668 7.65978C22.9112 6.51243 24.8261 7.14109 24.8489 8.60596L24.9947 30.0311H10.2466C7.54145 30.0311 6.03271 27.0173 7.71488 24.9737L21.9668 7.65978Z" fill="#3ECF8E"/>
</g>
<defs>
<filter id="filter0_d_68_132" x="0" y="0" width="50" height="50" filterUnits="userSpaceOnUse" color-interpolation-filters="sRGB">
<feFlood flood-opacity="0" result="BackgroundImageFix"/>
<feColorMatrix in="SourceAlpha" type="matrix" values="0 0 0 0 0 0 0 0 0 0 0 0 0 0 0 0 0 0 127 0" result="hardAlpha"/>
<feOffset/>
<feGaussianBlur stdDeviation="0.5"/>
<feComposite in2="hardAlpha" operator="out"/>
<feColorMatrix type="matrix" values="0 0 0 0 0.243137 0 0 0 0 0.811765 0 0 0 0 0.556863 0 0 0 0.5 0"/>
<feBlend mode="normal" in2="BackgroundImageFix" result="effect1_dropShadow_68_132"/>
<feBlend mode="normal" in="SourceGraphic" in2="effect1_dropShadow_68_132" result="shape"/>
</filter>
<linearGradient id="paint0_linear_68_132" x1="1" y1="1" x2="49" y2="49" gradientUnits="userSpaceOnUse">
<stop stop-color="white" stop-opacity="0.1"/>
<stop offset="0.5" stop-color="#3ECF8E" stop-opacity="0.3"/>
<stop offset="1" stop-color="#249361" stop-opacity="0.7"/>
</linearGradient>
<linearGradient id="paint1_linear_68_132" x1="24.8262" y1="24.5138" x2="37.9531" y2="30.2212" gradientUnits="userSpaceOnUse">
<stop stop-color="#249361"/>
<stop offset="1" stop-color="#3ECF8E"/>
</linearGradient>
<linearGradient id="paint2_linear_68_132" x1="18.9413" y1="16.7416" x2="24.6614" y2="27.9045" gradientUnits="userSpaceOnUse">
<stop/>
<stop offset="1" stop-opacity="0"/>
</linearGradient>
</defs>
</svg>
