<svg width="50" height="50" viewBox="0 0 50 50" fill="none" xmlns="http://www.w3.org/2000/svg">
<g filter="url(#filter0_d_68_127)">
<rect x="1" y="1" width="48" height="48" rx="10" fill="black"/>
<rect x="1" y="1" width="48" height="48" rx="10" fill="url(#paint0_linear_68_127)" fill-opacity="0.4"/>
<g clip-path="url(#clip0_68_127)">
<path d="M16.6581 41.9707L8.125 8.03503L41.875 17.5132" fill="black"/>
<path d="M20.8262 27.3849L22.958 35.873" stroke="white" stroke-miterlimit="10"/>
<path d="M29.2468 29.7699L20.8262 27.3849" stroke="white" stroke-miterlimit="10"/>
<path d="M22.958 35.873L29.2468 29.7699" stroke="white" stroke-miterlimit="10"/>
<path d="M22.9577 35.873L14.5371 33.488" stroke="white" stroke-miterlimit="10"/>
<path d="M14.5371 33.488L16.669 41.9818L22.9577 35.873" fill="black"/>
<path d="M14.5371 33.488L16.669 41.9818L22.9577 35.873" stroke="white" stroke-miterlimit="10"/>
<path d="M14.5371 33.488L20.8259 27.3849" stroke="white" stroke-miterlimit="10"/>
<path d="M20.8262 27.385L27.1205 21.2762" stroke="white" stroke-miterlimit="10"/>
<path d="M27.1201 21.2762L33.4089 15.1731" stroke="white" stroke-miterlimit="10"/>
<path d="M24.9883 12.7881L27.1202 21.2762" stroke="white" stroke-miterlimit="10"/>
<path d="M27.1206 21.2762L18.6943 18.8969" stroke="white" stroke-miterlimit="10"/>
<path d="M18.6943 18.8969L20.8262 27.385" stroke="white" stroke-miterlimit="10"/>
<path d="M20.8259 27.385L12.4053 25" stroke="white" stroke-miterlimit="10"/>
<path d="M12.4053 25L14.5371 33.4881" stroke="white" stroke-miterlimit="10"/>
<path d="M10.2734 16.5118L12.4053 25" stroke="white" stroke-miterlimit="10"/>
<path d="M18.6941 18.8968L10.2734 16.5118" stroke="white" stroke-miterlimit="10"/>
<path d="M12.4053 25L18.694 18.8969" stroke="white" stroke-miterlimit="10"/>
<path d="M18.6943 18.8912L24.9887 12.7881" stroke="white" stroke-miterlimit="10"/>
<path d="M24.9888 12.7881L16.5625 10.4031" stroke="white" stroke-miterlimit="10"/>
<path d="M16.5625 10.4031L18.6944 18.8912" stroke="white" stroke-miterlimit="10"/>
<path d="M10.2735 16.5118L8.1416 8.01807L16.5622 10.4031" fill="black"/>
<path d="M10.2735 16.5118L8.1416 8.01807L16.5622 10.4031" stroke="white" stroke-miterlimit="10"/>
<path d="M10.2734 16.5118L16.5622 10.4031" stroke="white" stroke-miterlimit="10"/>
<path d="M35.5411 23.6612L41.8298 17.5581L33.4092 15.1731" fill="black"/>
<path d="M35.5411 23.6612L41.8298 17.5581L33.4092 15.1731" stroke="white" stroke-miterlimit="10"/>
<path d="M33.4092 15.1731L35.5411 23.6612" stroke="white" stroke-miterlimit="10"/>
<path d="M35.5407 23.6612L27.1201 21.2762" stroke="white" stroke-miterlimit="10"/>
<path d="M27.1201 21.2762L29.2464 29.77" stroke="white" stroke-miterlimit="10"/>
<path d="M29.2471 29.7699L35.5414 23.6611" stroke="white" stroke-miterlimit="10"/>
<path d="M33.4089 15.1731L24.9883 12.7881" stroke="white" stroke-miterlimit="10"/>
</g>
</g>
<defs>
<filter id="filter0_d_68_127" x="0" y="0" width="50" height="50" filterUnits="userSpaceOnUse" color-interpolation-filters="sRGB">
<feFlood flood-opacity="0" result="BackgroundImageFix"/>
<feColorMatrix in="SourceAlpha" type="matrix" values="0 0 0 0 0 0 0 0 0 0 0 0 0 0 0 0 0 0 127 0" result="hardAlpha"/>
<feOffset/>
<feGaussianBlur stdDeviation="0.5"/>
<feComposite in2="hardAlpha" operator="out"/>
<feColorMatrix type="matrix" values="0 0 0 0 1 0 0 0 0 1 0 0 0 0 1 0 0 0 0.5 0"/>
<feBlend mode="normal" in2="BackgroundImageFix" result="effect1_dropShadow_68_127"/>
<feBlend mode="normal" in="SourceGraphic" in2="effect1_dropShadow_68_127" result="shape"/>
</filter>
<linearGradient id="paint0_linear_68_127" x1="1" y1="1" x2="49" y2="49" gradientUnits="userSpaceOnUse">
<stop stop-color="white" stop-opacity="0"/>
<stop offset="0.5" stop-color="white" stop-opacity="0.2"/>
<stop offset="1" stop-color="white" stop-opacity="0.3"/>
</linearGradient>
<clipPath id="clip0_68_127">
<rect width="36" height="36" fill="white" transform="translate(7 7)"/>
</clipPath>
</defs>
</svg>
