<svg width="50" height="50" viewBox="0 0 50 50" fill="none" xmlns="http://www.w3.org/2000/svg">
<g filter="url(#filter0_d_68_137)">
<rect x="1" y="1" width="48" height="48" rx="10" fill="black"/>
<rect x="1" y="1" width="48" height="48" rx="10" fill="url(#paint0_linear_68_137)" fill-opacity="0.4"/>
<path d="M35.2316 29.8513C33.9716 29.8658 32.8684 30.5161 31.9365 31.0967C30.1945 32.1738 29.3236 32.1042 29.3236 32.1042L29.2945 32.0548C29.1755 31.8603 29.852 30.1155 29.0942 28.0367C28.2755 25.7635 26.9749 25.2148 27.0794 25.0406C27.5236 24.2887 28.6355 23.0955 29.0797 20.8716C29.3439 19.5245 29.2742 17.3064 28.6762 16.1451C28.5658 15.9303 27.5787 16.5051 27.5787 16.5051C27.5787 16.5051 26.6555 14.4468 26.3971 14.2813C25.5639 13.7471 24.6552 16.4906 24.6552 16.4906C24.026 16.429 23.391 16.515 22.8008 16.7417C22.2107 16.9685 21.6815 17.3299 21.2555 17.7971C20.9397 18.1013 20.5568 18.327 20.1378 18.4561C20.0187 18.4967 19.8736 18.4909 19.5136 19.4635C18.962 20.9355 20.4542 22.6019 20.4542 22.6019C20.4542 22.6019 18.6745 23.859 18.0155 25.4238C17.5753 26.4967 17.401 27.6601 17.5074 28.8148C17.5074 28.8148 16.2416 29.9122 16.1604 31.0445C16.0849 31.8376 16.265 32.6341 16.6742 33.3177C16.7062 33.3859 16.7515 33.4471 16.8074 33.4975C16.8634 33.5479 16.929 33.5866 17.0002 33.6112C17.0714 33.6358 17.1468 33.6459 17.2219 33.6409C17.2971 33.6359 17.3705 33.6158 17.4378 33.5819C17.4378 33.5819 16.5958 34.5632 17.3826 34.9784C18.0997 35.3529 19.3074 35.559 19.9462 34.9232C20.4107 34.4587 20.5036 33.4222 20.6749 32.9984C20.7155 32.8996 20.8549 33.1638 20.9884 33.2887C21.1116 33.3964 21.2437 33.4935 21.3833 33.579C21.3833 33.579 20.251 34.0667 20.7155 35.1787C20.8694 35.5474 21.4181 35.7826 22.3152 35.7767C22.6491 35.7767 26.31 35.5677 27.2855 35.3326C27.5804 35.2857 27.849 35.1355 28.0433 34.9087C29.6272 34.4375 31.14 33.7539 32.5403 32.8764C33.9165 31.9793 34.4797 31.7355 35.5916 31.4713C36.5091 31.2535 36.4481 29.8309 35.2316 29.8513Z" fill="#2C8EBB"/>
<path d="M25 7C21.4399 7 17.9598 8.05568 14.9997 10.0335C12.0397 12.0114 9.73255 14.8226 8.37018 18.1117C7.0078 21.4008 6.65134 25.02 7.34587 28.5116C8.04041 32.0033 9.75474 35.2106 12.2721 37.7279C14.7894 40.2453 17.9967 41.9596 21.4884 42.6541C24.98 43.3487 28.5992 42.9922 31.8883 41.6298C35.1774 40.2674 37.9886 37.9603 39.9665 35.0003C41.9443 32.0402 43 28.5601 43 25C43 20.2261 41.1036 15.6477 37.7279 12.2721C34.3523 8.89642 29.7739 7 25 7ZM35.829 32.499C34.8565 32.7342 34.4036 32.9171 33.0971 33.7648C31.6867 34.6502 30.1685 35.3507 28.5797 35.8493C28.2727 36.1012 27.9106 36.2773 27.5229 36.3632C26.4168 36.6332 22.6223 36.8364 22.3232 36.8364H22.2536C21.0923 36.8364 20.4332 36.4764 20.079 36.099C19.0919 36.5926 17.8145 36.3893 16.8855 35.8987C16.663 35.7896 16.4687 35.6307 16.3177 35.4344C16.1666 35.238 16.0629 35.0094 16.0145 34.7664C15.98 34.5686 15.98 34.3662 16.0145 34.1684C15.929 34.0792 15.8522 33.9819 15.7852 33.8781C15.2578 33.0005 15.0276 31.9762 15.129 30.9574C15.2132 29.8745 15.9623 28.9077 16.45 28.3939C16.4095 27.2332 16.6132 26.0769 17.0481 25C17.5152 23.9984 18.1901 23.1077 19.0281 22.3871C18.549 21.58 18.0613 20.3374 18.5345 19.0716C18.8742 18.1687 19.1529 17.6664 19.7655 17.4516C20.033 17.3744 20.2812 17.2419 20.4942 17.0626C21.3876 16.0921 22.621 15.5035 23.9374 15.4194C23.9926 15.28 24.0565 15.129 24.1261 14.9955C24.5906 14.0084 25.0842 13.4539 25.6619 13.2535C25.8712 13.1753 26.0961 13.1477 26.3181 13.1729C26.5401 13.1981 26.753 13.2755 26.9394 13.3987C27.1281 13.5235 27.369 13.689 28.0716 15.1406C28.3377 15.0453 28.6269 15.0352 28.899 15.1116C29.0475 15.1521 29.1859 15.223 29.3054 15.32C29.4249 15.417 29.5228 15.5379 29.5929 15.6748C30.31 17.051 30.4058 19.5042 30.0923 21.0806C29.814 22.4764 29.2355 23.795 28.3968 24.9448C29.1469 25.7253 29.7185 26.6594 30.0719 27.6826C30.4173 28.6505 30.5568 29.6799 30.4813 30.7048C30.7934 30.5554 31.0959 30.3867 31.3871 30.1997C32.2755 29.651 33.6168 28.8235 35.2165 28.8032C35.7017 28.7707 36.1813 28.9234 36.5584 29.2305C36.9355 29.5376 37.1822 29.9763 37.2487 30.4581C37.3094 30.914 37.1974 31.3762 36.9347 31.7539C36.672 32.1315 36.2776 32.3973 35.829 32.499Z" fill="#2C8EBB"/>
</g>
<defs>
<filter id="filter0_d_68_137" x="0" y="0" width="50" height="50" filterUnits="userSpaceOnUse" color-interpolation-filters="sRGB">
<feFlood flood-opacity="0" result="BackgroundImageFix"/>
<feColorMatrix in="SourceAlpha" type="matrix" values="0 0 0 0 0 0 0 0 0 0 0 0 0 0 0 0 0 0 127 0" result="hardAlpha"/>
<feOffset/>
<feGaussianBlur stdDeviation="0.5"/>
<feComposite in2="hardAlpha" operator="out"/>
<feColorMatrix type="matrix" values="0 0 0 0 0.203922 0 0 0 0 0.670588 0 0 0 0 0.882353 0 0 0 0.5 0"/>
<feBlend mode="normal" in2="BackgroundImageFix" result="effect1_dropShadow_68_137"/>
<feBlend mode="normal" in="SourceGraphic" in2="effect1_dropShadow_68_137" result="shape"/>
</filter>
<linearGradient id="paint0_linear_68_137" x1="1" y1="1" x2="49" y2="49" gradientUnits="userSpaceOnUse">
<stop stop-color="white" stop-opacity="0.1"/>
<stop offset="0.5" stop-color="#34ABE1" stop-opacity="0.3"/>
<stop offset="1" stop-color="#2C8EBB" stop-opacity="0.7"/>
</linearGradient>
</defs>
</svg>
