<svg width="152" height="152" viewBox="0 0 152 152" fill="none" xmlns="http://www.w3.org/2000/svg">
<g filter="url(#filter0_d_83_4958)">
<rect x="1.5" y="1.5" width="149" height="149" rx="19.5" stroke="white" stroke-opacity="0.5"/>
<path d="M10.8145 10.8145V10.3145H10.3145V10.8145H10.8145ZM141.186 10.8145H141.686V10.3145H141.186V10.8145ZM141.186 141.186V141.686H141.686V141.186H141.186ZM10.8145 141.186H10.3145V141.686H10.8145V141.186ZM1 103.979V104.479H151V103.979V103.479H1V103.979ZM1 76V76.5H151V76V75.5H1V76ZM1 48.0215V48.5215H151V48.0215V47.5215H1V48.0215ZM103.979 151H104.479V1H103.979H103.479V151H103.979ZM76 151H76.5V1H76H75.5V151H76ZM48.0215 151H48.5215V1H48.0215H47.5215V151H48.0215ZM145 145L145.354 144.646L7.35355 6.64645L7 7L6.64645 7.35355L144.646 145.354L145 145ZM7 145L7.35355 145.354L145.354 7.35355L145 7L144.646 6.64645L6.64645 144.646L7 145ZM10.8145 10.8145V11.3145H141.186V10.8145V10.3145H10.8145V10.8145ZM141.186 10.8145H140.686V141.186H141.186H141.686V10.8145H141.186ZM141.186 141.186V140.686H10.8145V141.186V141.686H141.186V141.186ZM10.8145 141.186H11.3145V10.8145H10.8145H10.3145V141.186H10.8145ZM103.979 76H103.479C103.479 91.176 91.176 103.479 76 103.479V103.979V104.479C91.7282 104.479 104.479 91.7282 104.479 76H103.979ZM76 103.979V103.479C60.824 103.479 48.5215 91.176 48.5215 76H48.0215H47.5215C47.5215 91.7282 60.2718 104.479 76 104.479V103.979ZM48.0215 76H48.5215C48.5215 60.824 60.824 48.5215 76 48.5215V48.0215V47.5215C60.2718 47.5215 47.5215 60.2718 47.5215 76H48.0215ZM76 48.0215V48.5215C91.176 48.5215 103.479 60.824 103.479 76H103.979H104.479C104.479 60.2718 91.7282 47.5215 76 47.5215V48.0215ZM115.404 76H114.904C114.904 97.4862 97.4862 114.904 76 114.904V115.404V115.904C98.0385 115.904 115.904 98.0385 115.904 76H115.404ZM76 115.404V114.904C54.5138 114.904 37.0957 97.4862 37.0957 76H36.5957H36.0957C36.0957 98.0385 53.9615 115.904 76 115.904V115.404ZM36.5957 76H37.0957C37.0957 54.5138 54.5138 37.0957 76 37.0957V36.5957V36.0957C53.9615 36.0957 36.0957 53.9615 36.0957 76H36.5957ZM76 36.5957V37.0957C97.4862 37.0957 114.904 54.5138 114.904 76H115.404H115.904C115.904 53.9615 98.0385 36.0957 76 36.0957V36.5957ZM141.186 76H140.686C140.686 111.725 111.725 140.686 76 140.686V141.186V141.686C112.277 141.686 141.686 112.277 141.686 76H141.186ZM76 141.186V140.686C40.2752 140.686 11.3145 111.725 11.3145 76H10.8145H10.3145C10.3145 112.277 39.7229 141.686 76 141.686V141.186ZM10.8145 76H11.3145C11.3145 40.2752 40.2752 11.3145 76 11.3145V10.8145V10.3145C39.7229 10.3145 10.3145 39.7229 10.3145 76H10.8145ZM76 10.8145V11.3145C111.725 11.3145 140.686 40.2752 140.686 76H141.186H141.686C141.686 39.7229 112.277 10.3145 76 10.3145V10.8145Z" fill="white" fill-opacity="0.3"/>
</g>
<defs>
<filter id="filter0_d_83_4958" x="0" y="0" width="152" height="152" filterUnits="userSpaceOnUse" color-interpolation-filters="sRGB">
<feFlood flood-opacity="0" result="BackgroundImageFix"/>
<feColorMatrix in="SourceAlpha" type="matrix" values="0 0 0 0 0 0 0 0 0 0 0 0 0 0 0 0 0 0 127 0" result="hardAlpha"/>
<feOffset/>
<feGaussianBlur stdDeviation="0.5"/>
<feComposite in2="hardAlpha" operator="out"/>
<feColorMatrix type="matrix" values="0 0 0 0 0.941176 0 0 0 0 0.611765 0 0 0 0 0.0901961 0 0 0 0.5 0"/>
<feBlend mode="normal" in2="BackgroundImageFix" result="effect1_dropShadow_83_4958"/>
<feBlend mode="normal" in="SourceGraphic" in2="effect1_dropShadow_83_4958" result="shape"/>
</filter>
</defs>
</svg>
