<svg width="107" height="33" viewBox="0 0 107 33" fill="none" xmlns="http://www.w3.org/2000/svg">
<path d="M10.086 22.2549C10.1818 22.7985 10.2061 23.4888 10.1587 24.3257C10.1308 25.1348 9.98675 25.9766 9.72665 26.8511C9.46654 27.7255 9.06811 28.5756 8.53135 29.4014C8.01822 30.223 7.32228 30.9062 6.44355 31.4511C5.89851 31.8153 5.33263 32.0613 4.74591 32.1891C4.17866 32.2891 3.63785 32.2626 3.12346 32.1096C2.63272 31.9524 2.19204 31.6646 1.80142 31.2461C1.40665 30.8039 1.10504 30.1991 0.896603 29.4316C0.663162 28.5223 0.571534 27.5881 0.621718 26.6288C0.691369 25.6417 0.8917 24.7047 1.22271 23.8177C1.57319 22.9029 2.03488 22.0661 2.60778 21.307C3.18068 20.548 3.85923 19.9044 4.64343 19.3762C4.81584 19.2483 4.99519 19.2289 5.18147 19.3179C5.38723 19.3791 5.54291 19.571 5.64853 19.8935C6.89841 19.795 7.91398 19.9571 8.69526 20.3799C9.47238 20.779 9.93595 21.404 10.086 22.2549ZM3.29491 28.9356C3.40053 29.2582 3.53674 29.4779 3.70356 29.5947C3.87038 29.7115 4.0525 29.7768 4.24992 29.7908C4.44317 29.7811 4.65172 29.7199 4.87557 29.6073C5.09942 29.4948 5.30937 29.3724 5.50542 29.2404C5.72093 29.0805 5.91281 28.9249 6.08106 28.7733C6.24514 28.5982 6.37585 28.4411 6.47318 28.3021C7.02662 27.5709 7.42714 26.7326 7.67474 25.7872C7.91817 24.8182 7.99339 23.7936 7.90039 22.7134C7.87539 22.5715 7.75584 22.4464 7.54175 22.3379C7.32766 22.2295 7.06074 22.1669 6.74098 22.1501C6.44068 22.1056 6.1091 22.0909 5.74623 22.1062C5.38337 22.1214 5.03857 22.17 4.71184 22.252C4.42816 22.7163 4.16255 23.214 3.915 23.7451C3.66746 24.2761 3.47344 24.8343 3.33294 25.4196C3.18827 25.9812 3.10894 26.5679 3.09495 27.1797C3.0768 27.7677 3.14345 28.3531 3.29491 28.9356Z" fill="black"/>
<path d="M18.3076 12.6168C18.0364 13.152 17.743 13.8374 17.4273 14.6729C17.1352 15.5042 16.8598 16.4301 16.601 17.4505C16.3659 18.4668 16.1649 19.538 15.9979 20.6641C15.8309 21.7902 15.7466 22.9017 15.7451 23.9987C15.763 25.0678 15.8713 26.0966 16.07 27.0851C16.2881 28.0458 16.6432 28.8849 17.1353 29.6024C17.1756 29.6928 17.243 29.7296 17.3376 29.7129C17.6907 29.5044 18.0189 29.1541 18.322 28.662C18.6447 28.1421 18.8999 27.5853 19.0876 26.9917C19.2712 26.3744 19.3839 25.7697 19.4257 25.1774C19.4633 24.5615 19.3995 24.061 19.2341 23.6759C19.1493 23.4715 18.9588 23.3589 18.6627 23.338C18.386 23.2893 18.0997 23.2545 17.8035 23.2336C17.5032 23.1891 17.2481 23.1244 17.0382 23.0395C16.8283 22.9547 16.7692 22.758 16.861 22.4493C16.9 22.3937 16.9723 22.3201 17.0779 22.2283C17.1794 22.1129 17.3185 22.0031 17.4951 21.8989C17.6716 21.7946 17.876 21.7099 18.1082 21.6445C18.3404 21.5792 18.6025 21.5452 18.8944 21.5425C19.2337 21.5314 19.5778 21.6169 19.9267 21.7991C20.2756 21.9813 20.5571 22.3338 20.7711 22.8565C21.0936 23.5795 21.2645 24.3414 21.2838 25.1422C21.3032 25.943 21.1981 26.7292 20.9686 27.5008C20.7391 28.2724 20.4067 29.0134 19.9715 29.7237C19.532 30.4105 19.0266 30.9992 18.4551 31.4899C18.2007 31.7053 17.9198 31.8402 17.6125 31.8943C16.8785 31.8775 16.2529 31.6467 15.7358 31.2017C15.2423 30.7526 14.8426 30.2138 14.5369 29.5853C14.2269 28.9333 13.9955 28.2429 13.8427 27.5144C13.7093 26.7581 13.6142 26.0803 13.5573 25.4811C13.3338 23.1078 13.4891 20.7409 14.0233 18.3803C14.577 15.9919 15.4296 13.7091 16.581 11.5321C16.7243 11.2388 16.912 11.0595 17.1442 10.9941C17.3722 10.9052 17.5932 10.915 17.8073 11.0234C17.9936 11.1124 18.1611 11.3022 18.3098 11.5928C18.4544 11.8598 18.4536 12.2011 18.3076 12.6168Z" fill="black"/>
<path d="M27.7182 29.3082C27.9864 30.1383 27.7173 30.6853 26.9109 30.9493C26.4938 31.0716 26.1184 31.016 25.7848 30.7823C25.4748 30.5446 25.2489 30.231 25.1072 29.8417C24.9612 29.4288 24.9119 29.011 24.9593 28.5884C25.0302 28.1616 25.2506 27.8912 25.6205 27.7772C26.0807 27.623 26.5137 27.7294 26.9196 28.0965C27.3214 28.4399 27.5876 28.8438 27.7182 29.3082Z" fill="black"/>
<path d="M40.3111 16.9254C40.407 17.469 40.4312 18.1592 40.3838 18.9962C40.3559 19.8053 40.2119 20.6471 39.9518 21.5216C39.6917 22.396 39.2932 23.2461 38.7565 24.0719C38.2434 24.8935 37.5474 25.5767 36.6687 26.1216C36.1236 26.4857 35.5578 26.7317 34.971 26.8596C34.4038 26.9596 33.863 26.9331 33.3486 26.7801C32.8579 26.6229 32.4172 26.3351 32.0266 25.9165C31.6318 25.4744 31.3302 24.8696 31.1217 24.1021C30.8883 23.1928 30.7967 22.2585 30.8469 21.2993C30.9165 20.3122 31.1168 19.3751 31.4478 18.4882C31.7983 17.5734 32.26 16.7365 32.8329 15.9775C33.4058 15.2185 34.0844 14.5749 34.8686 14.0467C35.041 13.9188 35.2203 13.8994 35.4066 13.9884C35.6124 14.0496 35.768 14.2415 35.8737 14.564C37.1235 14.4655 38.1391 14.6276 38.9204 15.0504C39.6975 15.4495 40.1611 16.0745 40.3111 16.9254ZM33.52 23.6061C33.6257 23.9287 33.7619 24.1484 33.9287 24.2652C34.0955 24.382 34.2776 24.4473 34.4751 24.4613C34.6683 24.4516 34.8769 24.3904 35.1007 24.2778C35.3246 24.1653 35.5345 24.0429 35.7306 23.9109C35.9461 23.751 36.1379 23.5954 36.3062 23.4438C36.4703 23.2687 36.601 23.1116 36.6983 22.9726C37.2518 22.2414 37.6523 21.4031 37.8999 20.4577C38.1433 19.4887 38.2185 18.4641 38.1255 17.3838C38.1005 17.242 37.981 17.1169 37.7669 17.0084C37.5528 16.8999 37.2859 16.8373 36.9661 16.8206C36.6658 16.7761 36.3342 16.7614 35.9714 16.7767C35.6085 16.7919 35.2637 16.8405 34.937 16.9225C34.6533 17.3868 34.3877 17.8845 34.1401 18.4156C33.8926 18.9466 33.6986 19.5048 33.5581 20.0901C33.4134 20.6517 33.3341 21.2384 33.3201 21.8502C33.3019 22.4382 33.3686 23.0236 33.52 23.6061Z" fill="black"/>
<path d="M48.7793 19.0512C49.7469 19.1486 50.5428 19.447 51.1669 19.9462C51.8106 20.4176 52.2053 21.0669 52.3512 21.8941C52.4887 22.6741 52.3461 23.4547 51.9234 24.236C51.4964 24.9936 50.9444 25.6637 50.2672 26.2461C50.099 26.3976 49.8306 26.6033 49.4622 26.8633C49.0896 27.0996 48.6794 27.3303 48.2317 27.5555C47.8035 27.7528 47.3592 27.9286 46.899 28.0829C46.4347 28.2135 46.0127 28.2392 45.6332 28.1599C45.4316 28.1223 45.2154 28.002 44.9846 27.799C44.7775 27.5918 44.5857 27.3332 44.4092 27.0231C44.2563 26.7089 44.1465 26.3627 44.0798 25.9846C44.0326 25.5786 44.0799 25.1559 44.2218 24.7166C44.5278 23.6879 44.879 22.639 45.2754 21.5699C45.6718 20.5008 46.0897 19.4157 46.5292 18.3147C46.0537 18.1061 45.6033 17.8321 45.1779 17.4929C44.7484 17.1299 44.3814 16.7072 44.077 16.2248C43.7726 15.7423 43.5447 15.2098 43.3932 14.6272C43.2612 14.0169 43.2432 13.3621 43.3393 12.6628C43.4659 11.8606 43.8713 11.1189 44.5554 10.4378C45.2395 9.75664 46.137 9.31813 47.2479 9.12226C47.7678 9.03057 48.3184 9.04316 48.8995 9.16002C49.5043 9.27272 50.0214 9.51053 50.451 9.87346C50.8763 10.2127 51.1529 10.6757 51.2808 11.2625C51.4322 11.845 51.3404 12.5679 51.0052 13.4313C50.588 14.3822 50.1826 15.331 49.789 16.2777C49.3912 17.2008 49.0074 18.1336 48.6374 19.0762L48.7793 19.0512ZM48.8156 12.8304C49.1661 11.9156 49.0528 11.4116 48.4759 11.3184C47.8558 11.2571 47.2552 11.3752 46.674 11.6727C46.1123 11.9423 45.7264 12.449 45.5164 13.1928C45.4788 13.3943 45.4732 13.639 45.4996 13.9268C45.526 14.2146 45.6038 14.5177 45.733 14.8361C45.8623 15.1545 46.0506 15.4625 46.2981 15.76C46.565 16.0298 46.8965 16.2516 47.2927 16.4254C47.5278 15.8235 47.7767 15.2312 48.0395 14.6487C48.2982 14.0426 48.5569 13.4365 48.8156 12.8304ZM46.4385 25.6783C46.6276 25.645 46.891 25.5498 47.2289 25.3927C47.5668 25.2357 47.922 25.039 48.2946 24.8027C48.6673 24.5664 49.0357 24.3065 49.4 24.0229C49.7601 23.7157 50.057 23.3953 50.2906 23.0617C50.4923 22.6849 50.3742 22.2915 49.9363 21.8813C49.522 21.4669 48.9597 21.0421 48.2493 20.6068C48.1979 20.5915 48.1583 20.5741 48.1305 20.5547C48.1263 20.531 48.1103 20.5095 48.0825 20.49C47.7432 21.3297 47.4435 22.1868 47.1833 23.0612C46.9191 23.912 46.6708 24.7844 46.4385 25.6783Z" fill="black"/>
<path d="M58.982 23.7956C59.2502 24.6256 58.9811 25.1726 58.1747 25.4367C57.7576 25.559 57.3822 25.5033 57.0486 25.2697C56.7386 25.0319 56.5127 24.7184 56.371 24.3291C56.225 23.9161 56.1757 23.4984 56.2231 23.0757C56.294 22.6489 56.5144 22.3785 56.8843 22.2646C57.3445 22.1103 57.7775 22.2167 58.1834 22.5838C58.5852 22.9273 58.8514 23.3312 58.982 23.7956Z" fill="black"/>
<path d="M68.7078 8.62826C69.1901 9.56677 69.3429 10.5025 69.1663 11.4353C69.0605 11.9414 68.904 12.5051 68.6968 13.1265C68.4896 13.7479 68.2489 14.3874 67.975 15.045C67.6968 15.6789 67.4048 16.3031 67.0988 16.9176C66.7887 17.5084 66.5057 18.0457 66.2498 18.5295C66.6669 18.4072 67.1765 18.2565 67.7785 18.0772C68.4 17.8701 69.0333 17.661 69.6784 17.4497C70.3472 17.2343 70.9944 17.0349 71.62 16.8515C72.2652 16.6403 72.8435 16.4652 73.3552 16.3262C73.611 16.2567 73.9106 16.2283 74.254 16.2408C74.621 16.2492 74.8678 16.2666 74.9943 16.2931C75.1486 16.339 75.2188 16.4606 75.2049 16.6581C75.2104 16.8277 75.1708 17.0174 75.086 17.2274C75.0011 17.4373 74.8906 17.6395 74.7543 17.8342C74.6375 18.001 74.5318 18.0927 74.4373 18.1094C73.7018 18.3609 72.8856 18.6389 71.9889 18.9432C71.1157 19.2434 70.2308 19.5457 69.334 19.85C68.4372 20.1544 67.5523 20.4566 66.6791 20.7568C65.8255 21.0292 65.0503 21.2633 64.3538 21.4593C64.0312 21.5649 63.7247 21.4849 63.4341 21.2193C63.1672 20.9496 62.981 20.6534 62.8754 20.3309C62.867 20.2836 62.8643 20.1988 62.8671 20.0764C62.8699 19.9541 62.9783 19.74 63.1925 19.4342C63.9893 18.1483 64.7437 16.7602 65.4557 15.2699C66.1872 13.7518 66.7081 12.283 67.0183 10.8636C67.0559 10.662 67.0483 10.4806 66.9955 10.3193C66.9385 10.1344 66.8704 10.0245 66.7912 9.98978C66.6563 9.91608 66.4943 9.89589 66.3053 9.92923C66.1356 9.93477 65.9347 9.97019 65.7026 10.0355C65.3758 10.1175 65.0435 10.237 64.7057 10.3941C64.3678 10.5511 64.032 10.72 63.6983 10.9007C63.3883 11.0772 63.1039 11.2614 62.8453 11.4532C62.5825 11.6214 62.3531 11.7715 62.1571 11.9036C61.8985 12.0954 61.6725 12.1961 61.4793 12.2058C61.286 12.2155 61.1122 12.1975 60.9579 12.1516C60.8231 12.0778 60.7119 12 60.6243 11.9179C60.5367 11.8359 60.4888 11.7712 60.4804 11.724C60.4359 11.61 60.4207 11.4542 60.4346 11.2568C60.4485 11.0594 60.4687 10.8974 60.4951 10.7709C60.662 10.4734 60.945 10.1433 61.3441 9.78048C61.7668 9.4135 62.2569 9.08338 62.8144 8.7901C63.3914 8.46903 64.0025 8.20288 64.6476 7.99164C65.3164 7.77624 66.0018 7.65538 66.7039 7.62907C67.1738 7.66806 67.5714 7.78073 67.8967 7.96707C68.2456 8.14925 68.516 8.36964 68.7078 8.62826Z" fill="black"/>
<path d="M85.3892 8.97688C85.485 9.52049 85.5092 10.2108 85.4619 11.0477C85.4339 11.8569 85.2899 12.6987 85.0298 13.5731C84.7697 14.4476 84.3713 15.2977 83.8345 16.1234C83.3214 16.945 82.6255 17.6282 81.7467 18.1731C81.2017 18.5373 80.6358 18.7833 80.0491 18.9111C79.4818 19.0111 78.941 18.9846 78.4266 18.8316C77.9359 18.6745 77.4952 18.3866 77.1046 17.9681C76.7098 17.5259 76.4082 16.9211 76.1998 16.1536C75.9663 15.2444 75.8747 14.3101 75.9249 13.3508C75.9945 12.3637 76.1949 11.4267 76.5259 10.5397C76.8764 9.62496 77.3381 8.78807 77.911 8.02906C78.4839 7.27004 79.1624 6.62644 79.9466 6.09824C80.119 5.97036 80.2984 5.95092 80.4846 6.03992C80.6904 6.10112 80.8461 6.293 80.9517 6.61556C82.2016 6.51703 83.2172 6.67914 83.9984 7.10189C84.7755 7.50101 85.2391 8.12601 85.3892 8.97688ZM78.5981 15.6576C78.7037 15.9802 78.8399 16.1999 79.0067 16.3167C79.1736 16.4335 79.3557 16.4989 79.5531 16.5128C79.7463 16.5031 79.9549 16.4419 80.1787 16.3294C80.4026 16.2168 80.6125 16.0945 80.8086 15.9624C81.0241 15.8026 81.216 15.6469 81.3842 15.4954C81.5483 15.3202 81.679 15.1631 81.7764 15.0241C82.3298 14.2929 82.7303 13.4546 82.9779 12.5093C83.2213 11.5403 83.2966 10.5156 83.2036 9.43537C83.1786 9.29356 83.059 9.16842 82.8449 9.05994C82.6308 8.95147 82.3639 8.88887 82.0442 8.87214C81.7439 8.82761 81.4123 8.81297 81.0494 8.82821C80.6865 8.84345 80.3417 8.89207 80.015 8.97405C79.7313 9.43836 79.4657 9.93605 79.2182 10.4671C78.9706 10.9982 78.7766 11.5563 78.6361 12.1416C78.4914 12.7033 78.4121 13.29 78.3981 13.9017C78.38 14.4898 78.4466 15.0751 78.5981 15.6576Z" fill="black"/>
<path d="M95.2284 3.95197C95.7107 4.89048 95.8635 5.82616 95.6868 6.75902C95.5811 7.26507 95.4246 7.8288 95.2174 8.45023C95.0101 9.07166 94.7695 9.71116 94.4955 10.3687C94.2174 11.0027 93.9253 11.6268 93.6194 12.2413C93.3093 12.8321 93.0263 13.3694 92.7704 13.8532C93.1875 13.7309 93.6971 13.5802 94.2991 13.4009C94.9206 13.1938 95.5539 12.9847 96.199 12.7735C96.8677 12.5581 97.515 12.3586 98.1406 12.1752C98.7857 11.964 99.3641 11.7889 99.8758 11.6499C100.132 11.5804 100.431 11.552 100.775 11.5645C101.142 11.5729 101.388 11.5903 101.515 11.6168C101.669 11.6627 101.739 11.7843 101.725 11.9818C101.731 12.1514 101.691 12.3411 101.607 12.5511C101.522 12.761 101.411 12.9633 101.275 13.1579C101.158 13.3247 101.052 13.4164 100.958 13.4331C100.222 13.6846 99.4062 13.9626 98.5094 14.2669C97.6363 14.5671 96.7513 14.8694 95.8546 15.1737C94.9578 15.4781 94.0728 15.7803 93.1997 16.0805C92.346 16.3529 91.5709 16.587 90.8743 16.783C90.5518 16.8886 90.2452 16.8086 89.9547 16.543C89.6878 16.2733 89.5016 15.9771 89.3959 15.6546C89.3876 15.6073 89.3848 15.5225 89.3876 15.4001C89.3904 15.2778 89.4989 15.0637 89.7131 14.7579C90.5099 13.472 91.2643 12.0839 91.9763 10.5936C92.7078 9.07551 93.2287 7.60675 93.5389 6.18731C93.5765 5.98573 93.5689 5.80429 93.516 5.64301C93.4591 5.4581 93.391 5.34826 93.3117 5.31349C93.1769 5.23978 93.0149 5.2196 92.8258 5.25294C92.6562 5.25848 92.4553 5.2939 92.2231 5.35922C91.8964 5.4412 91.5641 5.56071 91.2262 5.71777C90.8884 5.87482 90.5526 6.0437 90.2189 6.22439C89.9089 6.40091 89.6245 6.58508 89.3659 6.77691C89.1031 6.94509 88.8737 7.09521 88.6776 7.22726C88.419 7.41908 88.1931 7.51985 87.9998 7.52955C87.8066 7.53926 87.6328 7.52116 87.4785 7.47526C87.3436 7.40156 87.2324 7.32368 87.1449 7.24165C87.0573 7.15961 87.0093 7.09495 87.001 7.04768C86.9565 6.93367 86.9412 6.77796 86.9552 6.58054C86.9691 6.38312 86.9893 6.22116 87.0157 6.09465C87.1826 5.79715 87.4656 5.46699 87.8646 5.10419C88.2873 4.73721 88.7774 4.40709 89.335 4.11381C89.912 3.79274 90.5231 3.52659 91.1682 3.31535C91.8369 3.09995 92.5224 2.97909 93.2245 2.95278C93.6944 2.99177 94.092 3.10444 94.4173 3.29078C94.7662 3.47296 95.0366 3.69335 95.2284 3.95197Z" fill="black"/>
<path d="M105.927 15.7738C105.439 15.4942 105.057 15.123 104.78 14.66C104.5 14.1733 104.345 13.8473 104.315 13.6819C103.314 9.9349 102.811 6.18524 102.807 2.43287C102.838 1.91569 102.889 1.44369 102.96 1.01689C103.031 0.590079 103.137 0.364174 103.279 0.339168C103.444 0.309995 103.63 0.32601 103.836 0.387211C104.041 0.448411 104.228 0.537415 104.394 0.654223C104.561 0.771029 104.695 0.905905 104.795 1.05885C104.918 1.20763 104.993 1.35292 105.018 1.49473C104.953 3.89435 105.102 6.25647 105.463 8.58107C105.844 10.8779 106.307 13.1601 106.853 15.4277C106.895 15.6641 106.813 15.8246 106.609 15.9094C106.495 15.9539 106.375 15.9629 106.248 15.9365C106.141 15.8822 106.034 15.828 105.927 15.7738Z" fill="black"/>
</svg>
