<svg width="102" height="34" viewBox="0 0 102 34" fill="none" xmlns="http://www.w3.org/2000/svg">
<path d="M1.0095 15.4906C0.646551 15.0611 0.414278 14.5814 0.312679 14.0518C0.215246 13.4984 0.18111 13.139 0.210271 12.9736C0.550089 9.1099 1.35985 5.41437 2.63956 1.887C2.84522 1.41149 3.05437 0.985335 3.267 0.608533C3.47963 0.231733 3.65685 0.0558353 3.79867 0.0808407C3.96411 0.110014 4.13305 0.188542 4.30547 0.316425C4.47789 0.444307 4.62251 0.591658 4.73932 0.758479C4.85614 0.925298 4.93542 1.09768 4.97716 1.27563C5.04254 1.45776 5.06274 1.61972 5.03774 1.76154C4.15677 3.99448 3.48852 6.26494 3.03299 8.5729C2.60526 10.8614 2.26026 13.1645 1.99798 15.4821C1.95632 15.7185 1.82496 15.8416 1.60391 15.8513C1.48157 15.8541 1.36548 15.8215 1.25563 15.7533C1.17359 15.6658 1.09154 15.5782 1.0095 15.4906Z" fill="#282828"/>
<path d="M16.9074 6.88858C15.9583 8.81706 15.0446 10.7518 14.1663 12.6928C13.2923 14.6101 12.4508 16.4114 11.642 18.0965C11.4808 18.458 11.2279 18.718 10.8831 18.8766C10.5425 19.0115 10.2624 19.0108 10.0427 18.8746C9.93285 18.8065 9.84524 18.6814 9.77986 18.4993C9.71448 18.3172 9.66508 18.1135 9.63167 17.8883C9.62606 17.6436 9.63227 17.401 9.65029 17.1604C9.69611 16.9005 9.74959 16.6662 9.81072 16.4576C10.475 15.0394 11.2379 13.4071 12.0995 11.5607C12.9889 9.69476 13.9158 7.82328 14.8802 5.94624C14.3047 5.89349 13.7034 5.84839 13.0763 5.81095C12.4535 5.74986 11.8425 5.69086 11.2432 5.63394C10.644 5.57702 10.0803 5.52636 9.55195 5.48194C9.02364 5.43753 8.56623 5.40561 8.17974 5.38621C7.77793 5.31536 7.4331 5.05959 7.14522 4.61891C6.88098 4.18239 6.78427 3.76323 6.85509 3.36142C6.87592 3.24324 6.95167 3.15912 7.08235 3.10905C7.21719 3.03534 7.34578 2.99709 7.46812 2.9943C8.0993 3.00811 8.81113 3.04833 9.60359 3.11495C10.3961 3.18157 11.1983 3.2621 12.0102 3.35652C12.8263 3.42731 13.6167 3.50575 14.3813 3.59184C15.1696 3.6821 15.8592 3.77932 16.4501 3.88351C16.5919 3.90852 16.7351 3.9947 16.8798 4.14205C17.0522 4.26993 17.1947 4.4291 17.3074 4.61955C17.42 4.81001 17.507 5.00812 17.5682 5.21387C17.6294 5.41963 17.6475 5.59341 17.6225 5.73523L16.9074 6.88858Z" fill="#282828"/>
<path d="M20.3494 18.6449C20.3176 19.5166 19.8777 19.9386 19.0296 19.9109C18.5958 19.8832 18.2621 19.7025 18.0285 19.3689C17.8185 19.0394 17.7135 18.6675 17.7134 18.2532C17.7175 17.8152 17.814 17.4058 18.003 17.0248C18.2156 16.648 18.5152 16.4693 18.9017 16.4887C19.3869 16.5012 19.7575 16.7493 20.0134 17.2331C20.2734 17.6932 20.3855 18.1638 20.3494 18.6449Z" fill="#282828"/>
<path d="M36.4174 11.3157C36.3216 11.8593 36.1083 12.5163 35.7776 13.2865C35.4747 14.0374 35.0515 14.7791 34.508 15.5119C33.9646 16.2447 33.2995 16.9072 32.5127 17.4996C31.7496 18.0962 30.862 18.5002 29.8499 18.7116C29.2132 18.8674 28.5973 18.9051 28.0023 18.8245C27.435 18.7245 26.9359 18.5146 26.5048 18.1949C26.0974 17.8794 25.7817 17.4582 25.5578 16.9313C25.338 16.3807 25.2614 15.7092 25.328 14.9168C25.4196 13.9825 25.6529 13.0732 26.0281 12.1889C26.4311 11.2851 26.9398 10.4731 27.5541 9.75287C28.1963 9.01314 28.9163 8.38463 29.7142 7.86732C30.5121 7.35002 31.3698 6.9773 32.2874 6.74916C32.4931 6.68796 32.6683 6.73103 32.8129 6.87838C32.9853 7.00626 33.066 7.23982 33.055 7.57906C34.2632 7.91395 35.1621 8.41363 35.7517 9.07811C36.3455 9.71896 36.5674 10.4648 36.4174 11.3157ZM27.7513 15.2709C27.7402 15.6102 27.7931 15.8632 27.9099 16.03C28.0268 16.1968 28.1755 16.3206 28.3563 16.4012C28.5412 16.4581 28.7581 16.472 29.0069 16.4428C29.2558 16.4136 29.4949 16.3704 29.7243 16.3134C29.9815 16.2369 30.215 16.1562 30.4249 16.0714C30.639 15.9629 30.8156 15.86 30.9546 15.7627C31.7247 15.2648 32.3877 14.6141 32.9436 13.8104C33.5037 12.9831 33.9248 12.046 34.2068 10.999C34.2318 10.8572 34.1623 10.6987 33.9982 10.5236C33.8341 10.3484 33.6047 10.1983 33.3099 10.0732C33.0429 9.92866 32.7364 9.8015 32.3902 9.69171C32.044 9.58193 31.7033 9.50968 31.3683 9.47497C30.9429 9.81426 30.5231 10.1911 30.1089 10.6055C29.6947 11.0198 29.3215 11.478 28.9893 11.9799C28.6613 12.4582 28.3862 12.9824 28.1639 13.5525C27.9457 14.0989 27.8082 14.6717 27.7513 15.2709Z" fill="#282828"/>
<path d="M45.9132 8.1282C45.5976 8.1213 45.1805 8.20617 44.662 8.38281C44.1671 8.56362 43.6576 8.82715 43.1336 9.17341C42.6331 9.52383 42.1675 9.9535 41.7366 10.4624C41.3057 10.9713 40.9965 11.5504 40.809 12.1997C40.7298 12.6488 40.7744 12.9491 40.9426 13.1006C41.1776 13.2883 41.5328 13.2778 42.0082 13.0692C42.5587 12.8494 43.0905 12.5289 43.6034 12.1076C44.1399 11.6904 44.6529 11.2691 45.1421 10.8436C45.6356 10.3944 46.0992 9.97658 46.5328 9.59002C46.9707 9.17982 47.3662 8.87181 47.7192 8.666C47.8541 8.59229 48.0119 8.59574 48.1926 8.67636C48.397 8.76114 48.5813 8.8911 48.7453 9.06626C48.9094 9.24141 49.0436 9.44785 49.148 9.68558C49.2564 9.89967 49.2919 10.1131 49.2544 10.3258C48.8268 13.0286 48.3665 15.6403 47.8734 18.161C47.4041 20.6859 46.7998 23.2844 46.0608 25.9567C45.9635 26.232 45.8078 26.4239 45.5937 26.5323C45.4033 26.645 45.2059 26.6589 45.0015 26.5741C44.2187 26.3143 43.8877 25.8416 44.0086 25.1562C44.4933 23.0971 44.9545 21.0338 45.392 18.9664C45.8531 16.9031 46.2461 14.7425 46.571 12.4846C46.2402 12.8406 45.844 13.2216 45.3825 13.6276C44.9211 14.0336 44.4283 14.4098 43.9042 14.756C43.408 15.0828 42.8748 15.3422 42.3049 15.5341C41.7627 15.7066 41.2316 15.747 40.7117 15.6553C39.7899 15.4928 39.16 15.1258 38.8221 14.5545C38.4841 13.9831 38.3561 13.3269 38.4379 12.5859C38.499 11.963 38.6546 11.3568 38.9047 10.7673C39.1785 10.1819 39.5071 9.63063 39.8907 9.11339C40.298 8.60031 40.7442 8.14284 41.2293 7.74097C41.738 7.34328 42.2718 7.01092 42.8307 6.7439C43.7065 6.33781 44.5392 6.1069 45.3288 6.05118C46.1185 5.99546 46.7372 6.28733 47.185 6.92681C47.2782 7.08946 47.2977 7.32442 47.2436 7.63168C47.2172 7.91948 47.1561 8.12803 47.0602 8.25734C46.8697 8.36998 46.6543 8.41728 46.4137 8.39924C46.1774 8.35757 46.0105 8.26722 45.9132 8.1282Z" fill="#282828"/>
<path d="M52.8942 24.3834C52.8624 25.2551 52.4225 25.6771 51.5744 25.6495C51.1407 25.6217 50.807 25.441 50.5733 25.1074C50.3633 24.7779 50.2583 24.406 50.2582 23.9917C50.2623 23.5538 50.3588 23.1443 50.5478 22.7633C50.7605 22.3865 51.06 22.2078 51.4465 22.2273C51.9317 22.2397 52.3023 22.4878 52.5582 22.9716C52.8183 23.4318 52.9303 23.9024 52.8942 24.3834Z" fill="#282828"/>
<path d="M67.2202 13.4571C67.3525 14.504 67.1761 15.4355 66.6911 16.2517C66.4187 16.691 66.0788 17.1673 65.6716 17.6803C65.2643 18.1934 64.8196 18.7121 64.3372 19.2363C63.8591 19.7368 63.3712 20.2235 62.8736 20.6963C62.3802 21.1454 61.9305 21.5535 61.5246 21.9206C61.9584 21.9484 62.4888 21.981 63.1158 22.0184C63.7706 22.0364 64.4372 22.0565 65.1157 22.0786C65.8178 22.1049 66.4942 22.1389 67.1448 22.1805C67.8233 22.2027 68.4266 22.236 68.955 22.2804C69.2191 22.3026 69.5104 22.3783 69.8288 22.5076C70.1708 22.641 70.3968 22.7417 70.5066 22.8099C70.6359 22.9058 70.6603 23.0441 70.5797 23.2249C70.5269 23.3861 70.4247 23.5509 70.2732 23.7191C70.1217 23.8874 69.9487 24.0397 69.7541 24.1759C69.5873 24.2927 69.4566 24.3428 69.362 24.3261C68.5849 24.311 67.7229 24.293 66.7761 24.2723C65.853 24.2557 64.918 24.2371 63.9713 24.2164C63.0245 24.1957 62.0895 24.177 61.1664 24.1605C60.271 24.1244 59.4626 24.0794 58.741 24.0253C58.4018 24.0142 58.1411 23.8342 57.9589 23.4852C57.8003 23.1405 57.7266 22.7985 57.7376 22.4592C57.746 22.4119 57.7724 22.3313 57.8168 22.2173C57.8613 22.1033 58.0364 21.9392 58.3422 21.7251C59.5307 20.7892 60.7143 19.7429 61.893 18.586C63.0995 17.4096 64.0912 16.2075 64.8681 14.9798C64.9724 14.8032 65.0273 14.6301 65.0328 14.4605C65.0425 14.2672 65.016 14.1407 64.9535 14.081C64.852 13.9656 64.7067 13.8912 64.5176 13.8579C64.3563 13.8051 64.1554 13.7696 63.9149 13.7516C63.5798 13.7169 63.2267 13.7155 62.8555 13.7476C62.4843 13.7796 62.111 13.8235 61.7357 13.8791C61.3839 13.939 61.0538 14.0148 60.7451 14.1066C60.4407 14.1747 60.1738 14.2373 59.9444 14.2944C59.6358 14.3862 59.389 14.4036 59.2041 14.3466C59.0192 14.2896 58.862 14.2132 58.7327 14.1173C58.6312 14.0019 58.5533 13.8907 58.4991 13.7836C58.4449 13.6766 58.4219 13.5994 58.4302 13.5522C58.4274 13.4298 58.4663 13.2783 58.5469 13.0975C58.6275 12.9168 58.7019 12.7715 58.77 12.6616C59.0285 12.4392 59.4073 12.2257 59.9064 12.0212C60.4291 11.821 61.0025 11.6784 61.6267 11.5935C62.2788 11.4891 62.944 11.448 63.6224 11.4702C64.3245 11.4965 65.01 11.6173 65.6787 11.8327C66.107 12.0301 66.4421 12.272 66.684 12.5583C66.9496 12.8489 67.1283 13.1485 67.2202 13.4571Z" fill="#282828"/>
<path d="M82.7765 19.4901C82.6806 20.0337 82.4674 20.6906 82.1366 21.4609C81.8337 22.2117 81.4105 22.9535 80.8671 23.6863C80.3237 24.419 79.6585 25.0816 78.8718 25.674C78.1086 26.2705 77.221 26.6745 76.209 26.886C75.5723 27.0418 74.9564 27.0794 74.3613 26.9989C73.7941 26.8988 73.2949 26.689 72.8639 26.3693C72.4565 26.0537 72.1408 25.6325 71.9169 25.1056C71.6971 24.5551 71.6205 23.8836 71.687 23.0911C71.7786 22.1568 72.012 21.2475 72.3872 20.3632C72.7902 19.4595 73.2988 18.6475 73.9132 17.9272C74.5553 17.1875 75.2754 16.559 76.0733 16.0417C76.8712 15.5244 77.7289 15.1516 78.6464 14.9235C78.8522 14.8623 79.0273 14.9054 79.172 15.0527C79.3444 15.1806 79.4251 15.4142 79.414 15.7534C80.6222 16.0883 81.5211 16.588 82.1107 17.2525C82.7045 17.8933 82.9264 18.6392 82.7765 19.4901ZM74.1104 23.4453C74.0993 23.7845 74.1522 24.0376 74.269 24.2044C74.3858 24.3712 74.5346 24.4949 74.7154 24.5755C74.9003 24.6325 75.1172 24.6464 75.366 24.6171C75.6149 24.5879 75.854 24.5448 76.0834 24.4877C76.3405 24.4112 76.5741 24.3306 76.784 24.2457C76.9981 24.1373 77.1746 24.0343 77.3136 23.937C78.0837 23.4392 78.7468 22.7884 79.3027 21.9847C79.8628 21.1574 80.2839 20.2203 80.5659 19.1734C80.5909 19.0316 80.5213 18.8731 80.3572 18.6979C80.1931 18.5228 79.9637 18.3727 79.669 18.2476C79.402 18.103 79.0954 17.9758 78.7492 17.8661C78.403 17.7563 78.0624 17.684 77.7273 17.6493C77.302 17.9886 76.8822 18.3654 76.468 18.7798C76.0538 19.1942 75.6806 19.6523 75.3484 20.1543C75.0204 20.6326 74.7452 21.1568 74.5229 21.7268C74.3048 22.2732 74.1672 22.8461 74.1104 23.4453Z" fill="#282828"/>
<path d="M85.9376 30.4657C85.5747 30.0362 85.3424 29.5566 85.2408 29.0269C85.1434 28.4736 85.1092 28.1142 85.1384 27.9487C85.4782 24.085 86.288 20.3895 87.5677 16.8621C87.7733 16.3866 87.9825 15.9605 88.1951 15.5837C88.4078 15.2069 88.585 15.031 88.7268 15.056C88.8922 15.0851 89.0612 15.1637 89.2336 15.2915C89.406 15.4194 89.5506 15.5668 89.6674 15.7336C89.7843 15.9004 89.8636 16.0728 89.9053 16.2508C89.9707 16.4329 89.9909 16.5948 89.9659 16.7367C89.0849 18.9696 88.4167 21.2401 87.9611 23.548C87.5334 25.8365 87.1884 28.1396 86.9261 30.4573C86.8844 30.6936 86.7531 30.8167 86.532 30.8264C86.4097 30.8292 86.2936 30.7966 86.1838 30.7285C86.1017 30.6409 86.0197 30.5533 85.9376 30.4657Z" fill="#282828"/>
<path d="M96.7584 25.5744C97.6343 25.997 98.2802 26.5495 98.6961 27.2321C99.1397 27.8952 99.2886 28.6404 99.1428 29.4676C99.0053 30.2476 98.6044 30.9324 97.94 31.522C97.2797 32.0879 96.5318 32.5287 95.6963 32.8445C95.4864 32.9293 95.1639 33.0308 94.7288 33.1491C94.2978 33.2437 93.8335 33.3202 93.3358 33.3787C92.8659 33.4177 92.3883 33.4309 91.9031 33.4185C91.4221 33.3824 91.0168 33.2622 90.6873 33.0579C90.5107 32.9536 90.3487 32.7667 90.2012 32.497C90.0775 32.2314 89.9856 31.9228 89.9258 31.5711C89.8896 31.2235 89.9048 30.8606 89.9714 30.4825C90.0659 30.0848 90.2549 29.7038 90.5384 29.3395C91.1778 28.4775 91.8665 27.6119 92.6045 26.7429C93.3426 25.8738 94.1063 24.9971 94.8958 24.1128C94.5204 23.7542 94.1908 23.3427 93.9071 22.8783C93.6276 22.3904 93.4272 21.8677 93.3062 21.3102C93.1851 20.7527 93.153 20.1743 93.2099 19.5751C93.2946 18.9564 93.5016 18.3349 93.831 17.7106C94.2243 17.0001 94.8588 16.4418 95.7346 16.0357C96.6104 15.6296 97.6037 15.5245 98.7145 15.7204C99.2345 15.8121 99.7476 16.0122 100.254 16.3208C100.783 16.6335 101.188 17.0339 101.468 17.5218C101.751 17.9862 101.853 18.5159 101.772 19.1109C101.716 19.7101 101.382 20.3581 100.772 21.0547C100.055 21.8056 99.3492 22.5585 98.6556 23.3135C97.9662 24.0449 97.2865 24.7902 96.6166 25.5494L96.7584 25.5744ZM98.9197 19.7411C99.5619 19.0014 99.6278 18.4891 99.1175 18.2041C98.5558 17.9345 97.951 17.84 97.3032 17.9208C96.6831 17.982 96.1473 18.3262 95.6956 18.9533C95.5913 19.1299 95.5024 19.3579 95.4288 19.6373C95.3551 19.9168 95.3246 20.2282 95.3372 20.5716C95.3498 20.915 95.4215 21.2689 95.5522 21.6331C95.7108 21.9779 95.9465 22.2997 96.2594 22.5986C96.6861 22.1133 97.1225 21.6419 97.5687 21.1844C98.0191 20.7033 98.4694 20.2222 98.9197 19.7411ZM92.2926 31.0014C92.4817 31.0347 92.7618 31.0354 93.133 31.0034C93.5042 30.9713 93.9053 30.908 94.3362 30.8134C94.7672 30.7188 95.2023 30.6006 95.6416 30.4587C96.0851 30.2932 96.4736 30.0936 96.8072 29.86C97.1256 29.575 97.1491 29.1648 96.8779 28.6296C96.6303 28.0985 96.2472 27.507 95.7285 26.855C95.6854 26.8231 95.6541 26.7932 95.6346 26.7654C95.6388 26.7417 95.6311 26.716 95.6117 26.6882C95.0056 27.3612 94.4309 28.0641 93.8875 28.7969C93.3482 29.506 92.8166 30.2408 92.2926 31.0014Z" fill="#282828"/>
</svg>
