<svg width="241" height="173" viewBox="0 0 241 173" fill="none" xmlns="http://www.w3.org/2000/svg">
<path d="M240.815 159.263C241.163 158.518 240.864 157.566 240.148 157.136L228.476 150.127C227.76 149.697 226.897 149.951 226.55 150.696C226.203 151.44 226.502 152.392 227.218 152.822L237.593 159.053L232.562 169.834C232.215 170.578 232.514 171.53 233.23 171.96C233.946 172.39 234.808 172.136 235.156 171.391L240.815 159.263ZM3.73606 1.25502C3.49356 0.419428 2.68237 -0.0943003 1.9242 0.107574C1.16604 0.309448 0.748006 1.15048 0.990503 1.98607L3.73606 1.25502ZM2.36328 1.62054C0.990503 1.98607 0.990518 1.98612 0.990535 1.98618C0.990542 1.9862 0.990559 1.98626 0.990573 1.98631C0.990602 1.98641 0.990634 1.98652 0.990672 1.98665C0.990746 1.98691 0.99084 1.98723 0.990951 1.98761C0.991174 1.98838 0.991471 1.9894 0.991842 1.99067C0.992584 1.99322 0.993621 1.99678 0.994955 2.00134C0.997622 2.01047 1.00147 2.02362 1.00651 2.04075C1.0166 2.075 1.03144 2.12519 1.05107 2.19098C1.09034 2.32256 1.1488 2.51656 1.22674 2.77042C1.38262 3.27811 1.61646 4.02523 1.93069 4.99117L4.64326 4.15291C4.33525 3.20609 4.10724 2.47747 3.95684 1.9876C3.88164 1.74267 3.82584 1.55745 3.78914 1.43449C3.77079 1.37301 3.75722 1.3271 3.74838 1.29708C3.74397 1.28207 3.74074 1.27104 3.73868 1.26401C3.73766 1.2605 3.73692 1.25799 3.73649 1.25649C3.73627 1.25574 3.73612 1.25524 3.73605 1.255C3.73602 1.25487 3.736 1.25481 3.736 1.25482C3.736 1.25482 3.73601 1.25484 3.73602 1.25487C3.73602 1.25489 3.73603 1.25492 3.73603 1.25493C3.73605 1.25497 3.73606 1.25502 2.36328 1.62054ZM4.04576 11.1662C4.68024 12.9394 5.41711 14.9388 6.25962 17.1368L8.91194 16.1284C8.07922 13.9559 7.35144 11.9811 6.72539 10.2314L4.04576 11.1662ZM8.62425 23.1188C9.3926 25.0061 10.2221 26.9923 11.1141 29.0657L13.7133 27.9266C12.8307 25.8751 12.01 23.9101 11.2501 22.0433L8.62425 23.1188ZM13.7255 34.9776C14.5839 36.8715 15.4887 38.821 16.4406 40.8187L18.9843 39.5571C18.0422 37.5801 17.1469 35.6509 16.2974 33.7767L13.7255 34.9776ZM19.2414 46.5557C20.1787 48.4301 21.1548 50.3382 22.1706 52.2747L24.6542 50.8931C23.6493 48.9771 22.6834 47.0891 21.7559 45.2344L19.2414 46.5557ZM25.2298 57.9697C26.2406 59.8073 27.2858 61.6649 28.3658 63.5383L30.7824 62.0347C29.7143 60.182 28.6806 58.3448 27.6807 56.5271L25.2298 57.9697ZM31.6244 69.0584C32.724 70.8779 33.8561 72.7082 35.0211 74.5457L37.362 72.9171C36.2106 71.1011 35.0916 69.2918 34.0044 67.493L31.6244 69.0584ZM38.4894 79.8869C39.6625 81.6509 40.866 83.4182 42.1003 85.1856L44.356 83.4289C43.137 81.6835 41.9482 79.9378 40.7892 78.195L38.4894 79.8869ZM45.8253 90.3891C47.0742 92.0907 48.352 93.7895 49.6591 95.4827L51.8177 93.5939C50.528 91.9232 49.2668 90.2465 48.034 88.5668L45.8253 90.3891ZM53.6386 100.505C54.9653 102.136 56.3202 103.76 57.7033 105.372L59.7515 103.348C58.388 101.758 57.0521 100.158 55.7435 98.5487L53.6386 100.505ZM61.9187 110.154C63.3308 111.713 64.7705 113.258 66.2381 114.788L68.161 112.626C66.7157 111.119 65.2974 109.596 63.906 108.061L61.9187 110.154ZM70.6917 119.298C72.1886 120.77 73.7128 122.225 75.2646 123.66L77.046 121.358C75.5193 119.946 74.0194 118.515 72.5459 117.066L70.6917 119.298ZM79.9556 127.864C81.5356 129.235 83.1424 130.586 84.7764 131.912L86.3994 129.473C84.7934 128.169 83.2137 126.842 81.66 125.493L79.9556 127.864ZM89.6983 135.774C91.3579 137.031 93.044 138.263 94.7568 139.469L96.2045 136.897C94.5224 135.713 92.8663 134.503 91.2359 133.268L89.6983 135.774ZM99.896 142.95C101.63 144.08 103.39 145.181 105.176 146.253L106.432 143.557C104.68 142.506 102.952 141.424 101.25 140.315L99.896 142.95ZM110.511 149.32C112.312 150.31 114.137 151.269 115.989 152.196L117.041 149.388C115.225 148.479 113.434 147.538 111.668 146.566L110.511 149.32ZM121.493 154.819C123.35 155.66 125.231 156.468 127.137 157.241L127.975 154.336C126.106 153.578 124.261 152.785 122.44 151.961L121.493 154.819ZM132.779 159.4C134.679 160.085 136.603 160.734 138.55 161.348L139.169 158.364C137.259 157.762 135.372 157.125 133.509 156.454L132.779 159.4ZM144.299 163.035C146.227 163.56 148.179 164.049 150.152 164.501L150.553 161.458C148.616 161.014 146.701 160.534 144.809 160.019L144.299 163.035ZM155.981 165.717C157.922 166.082 159.885 166.412 161.869 166.706L162.055 163.622C160.107 163.334 158.179 163.01 156.273 162.651L155.981 165.717ZM167.759 167.461C169.698 167.672 171.656 167.848 173.633 167.989L173.614 164.882C171.67 164.744 169.746 164.571 167.841 164.364L167.759 167.461ZM179.58 168.299C181.501 168.364 183.438 168.395 185.394 168.392L185.181 165.279C183.256 165.282 181.35 165.251 179.461 165.188L179.58 168.299ZM191.315 168.277C193.233 168.206 195.167 168.102 197.118 167.965L196.724 164.858C194.802 164.994 192.897 165.096 191.009 165.165L191.315 168.277ZM202.928 167.46C204.867 167.26 206.821 167.026 208.792 166.759L208.23 163.67C206.287 163.933 204.36 164.163 202.449 164.361L202.928 167.46ZM214.457 165.905C216.36 165.589 218.277 165.241 220.21 164.862L219.498 161.798C217.59 162.172 215.697 162.515 213.819 162.827L214.457 165.905ZM225.91 163.66C227.755 163.243 229.612 162.798 231.483 162.324L230.634 159.29C228.785 159.759 226.95 160.199 225.128 160.61L225.91 163.66ZM237.135 160.811C238.084 160.544 239.036 160.27 239.991 159.987L239.046 156.98C238.101 157.259 237.16 157.531 236.222 157.795L237.135 160.811Z" fill="#7E7E7E"/>
</svg>
