<svg width="199" height="498" viewBox="0 0 199 498" fill="none" xmlns="http://www.w3.org/2000/svg">
<path d="M0.904585 491.982C0.188191 491.665 -0.111295 490.76 0.235666 489.961L5.88985 476.944C6.23681 476.145 7.09884 475.755 7.81526 476.073C8.53166 476.391 8.83114 477.296 8.48418 478.094L3.45824 489.665L13.8355 494.267C14.5519 494.584 14.8514 495.489 14.5044 496.288C14.1575 497.087 13.2954 497.477 12.579 497.159L0.904585 491.982ZM158.061 3.05822C157.787 2.27503 158.17 1.35286 158.917 0.998488C159.664 0.644119 160.492 0.991748 160.767 1.77494L158.061 3.05822ZM1.05983 489.107C115.585 437.291 170.001 359.406 188.283 272.829C206.595 186.107 188.705 90.413 158.061 3.05822L160.767 1.77494C191.484 89.3395 209.591 185.702 191.092 273.309C172.562 361.06 117.358 439.775 2.00583 491.966L1.05983 489.107Z" fill="url(#paint0_linear_784_72790)"/>
<defs>
<linearGradient id="paint0_linear_784_72790" x1="-28.5917" y1="300.771" x2="233.944" y2="203.432" gradientUnits="userSpaceOnUse">
<stop stop-color="#FFE597"/>
<stop offset="1" stop-color="#AAFF82"/>
</linearGradient>
</defs>
</svg>
