<svg width="576" height="495" viewBox="0 0 576 495" fill="none" xmlns="http://www.w3.org/2000/svg">
<path d="M225.533 493.982C224.963 494.635 224.037 494.725 223.466 494.183L214.164 485.348C213.594 484.806 213.594 483.836 214.164 483.183C214.735 482.53 215.661 482.439 216.231 482.982L224.5 490.835L232.768 481.37C233.339 480.717 234.265 480.627 234.835 481.169C235.406 481.711 235.406 482.68 234.835 483.334L225.533 493.982ZM454.999 333L455.018 334.529L454.999 333ZM299.756 22.0329C183.862 12.8112 85.4529 56.6984 36.4005 106.433C11.8352 131.34 -0.0633285 157.387 3.80475 178.846C7.65934 200.231 27.3414 217.899 67.8836 225.485L67.1171 228.514C26.1594 220.851 5.09149 202.769 0.930474 179.685C-3.21706 156.675 9.60314 129.535 34.4753 104.317C84.2978 53.8013 183.638 9.68841 300.243 18.9667L299.756 22.0329ZM67.8836 225.485C108.526 233.09 131.075 224.447 141.052 207.913C146.091 199.565 148.112 188.951 147.48 176.82C146.849 164.696 143.57 151.171 138.139 137.127C127.276 109.038 107.88 79.0765 84.2817 54.3967C60.6716 29.7051 32.9651 10.4157 5.53662 3.49688L6.4625 0.50272C34.5345 7.58393 62.6409 27.2322 86.4373 52.1187C110.245 77.0171 129.85 107.274 140.862 135.748C146.368 149.985 149.746 163.828 150.399 176.369C151.052 188.904 148.988 200.256 143.479 209.383C132.363 227.803 107.975 236.16 67.1171 228.514L67.8836 225.485ZM223.038 493.142C223.038 435.042 225.342 397.114 231.9 372.65C235.187 360.39 239.576 351.371 245.391 344.874C251.23 338.35 258.388 334.5 266.981 332.38C275.537 330.269 285.563 329.861 297.213 330.233C308.864 330.605 322.276 331.765 337.582 332.841C368.229 334.995 406.728 336.833 454.98 331.471L455.018 334.529C406.521 339.917 367.833 338.068 337.12 335.909C321.746 334.829 308.436 333.676 296.855 333.306C285.272 332.936 275.556 333.356 267.393 335.37C259.268 337.375 252.731 340.947 247.431 346.868C242.107 352.816 237.915 361.266 234.709 373.225C228.282 397.199 225.961 434.708 225.961 492.858L223.038 493.142ZM454.98 331.471C515.437 324.754 549.93 303.138 564.549 274.769C579.184 246.372 574.284 210.482 554.378 174.441C514.591 102.405 415.586 31.2494 299.756 22.0329L300.243 18.9667C416.913 28.25 516.704 99.8674 556.941 172.718C577.046 209.12 582.465 246.201 567.091 276.034C551.702 305.896 515.859 327.769 455.018 334.529L454.98 331.471Z" fill="url(#paint0_linear_784_72711)"/>
<defs>
<linearGradient id="paint0_linear_784_72711" x1="84.6465" y1="257.049" x2="561.293" y2="161.985" gradientUnits="userSpaceOnUse">
<stop stop-color="#FFE597"/>
<stop offset="1" stop-color="#AAFF82"/>
</linearGradient>
</defs>
</svg>
