<svg width="658" height="144" viewBox="0 0 658 144" fill="none" xmlns="http://www.w3.org/2000/svg">
<path d="M38.5851 10.7367L39.5391 11.8943L39.5391 11.8943L38.5851 10.7367ZM107.815 74.4276L107.519 72.9572L107.519 72.9572L107.815 74.4276ZM78.7424 133.812L79.9209 132.884L79.9208 132.884L78.7424 133.812ZM112.204 139.986L112.443 141.467L112.443 141.467L112.204 139.986ZM305 70.6841V69.1841H304.94L304.88 69.1889L305 70.6841ZM354 137L354.14 138.493L354 137ZM509 133.812L508.867 135.306L509 133.812ZM522.5 28.5L521.577 27.3172L522.5 28.5ZM657.178 120.674C657.917 120.299 658.212 119.397 657.838 118.658L651.736 106.616C651.361 105.877 650.459 105.581 649.72 105.956C648.981 106.33 648.685 107.233 649.06 107.972L654.484 118.676L643.78 124.1C643.041 124.474 642.745 125.377 643.12 126.116C643.494 126.855 644.397 127.151 645.136 126.776L657.178 120.674ZM35.5809 15.2879C36.1277 14.8396 36.7085 14.3266 37.3412 13.7722C37.981 13.2116 38.6946 12.5903 39.5391 11.8943L37.6312 9.57915C36.7505 10.305 36.0093 10.9506 35.3642 11.5158C34.712 12.0872 34.1778 12.5589 33.679 12.9677L35.5809 15.2879ZM39.5391 11.8943C42.2294 9.67704 45.5073 9.41455 48.4369 10.7371C51.3916 12.0709 54.051 15.0612 55.1919 19.4401L58.095 18.6837C56.7519 13.5291 53.5439 9.75106 49.6713 8.0028C45.7736 6.24326 41.2643 6.58492 37.6311 9.57916L39.5391 11.8943ZM55.1919 19.4401C55.7135 21.4422 55.4288 24.5326 54.5569 28.2542C53.7004 31.9099 52.339 35.9336 50.9322 39.6741C49.526 43.4129 48.0945 46.8174 47.0954 49.2667C46.6034 50.4728 46.2007 51.4848 45.9725 52.1701C45.8726 52.4701 45.7502 52.865 45.7231 53.2091C45.7154 53.3071 45.7088 53.4713 45.7412 53.6626C45.7697 53.8305 45.8607 54.217 46.2078 54.547C46.6234 54.9422 47.1365 55.0106 47.5089 54.954C47.8215 54.9064 48.047 54.7755 48.1495 54.7105L46.5427 52.177C46.596 52.1432 46.7797 52.0304 47.0574 51.9881C47.395 51.9367 47.8803 51.9976 48.275 52.3729C48.6011 52.683 48.678 53.0372 48.6989 53.1606C48.7238 53.3074 48.7162 53.4149 48.7139 53.4445C48.7083 53.5151 48.7091 53.4477 48.8189 53.1179C49.0101 52.5434 49.3732 51.6255 49.8732 50.3998C50.8579 47.9857 52.3148 44.5199 53.7401 40.7302C55.1648 36.9422 56.578 32.7791 57.4778 28.9385C58.3622 25.1639 58.8153 21.4484 58.095 18.6837L55.1919 19.4401ZM48.1495 54.7105C48.3937 54.5556 48.649 54.3197 48.8551 54.1188C49.0905 53.8894 49.3698 53.5974 49.6825 53.2538C50.3093 52.565 51.1017 51.6349 51.9965 50.5118C53.7863 48.2654 56.0106 45.2157 58.1649 41.7294C62.4245 34.8362 66.6056 25.9282 66.251 18.0918L63.2541 18.2274C63.5648 25.0936 59.8294 33.3287 55.6129 40.1524C53.5291 43.5246 51.3755 46.4768 49.6501 48.6424C48.7873 49.7254 48.0377 50.6039 47.4638 51.2345C47.1761 51.5506 46.9401 51.7961 46.7613 51.9703C46.5532 52.1732 46.4953 52.2071 46.5427 52.177L48.1495 54.7105ZM66.251 18.0918C65.894 10.2032 62.1621 5.71703 57.8894 3.30708C53.7228 0.956992 49.1595 0.636463 46.9962 0.742384L47.1429 3.73879C48.9554 3.65005 52.9009 3.93769 56.4156 5.92009C59.8241 7.84263 62.9457 11.4133 63.2541 18.2274L66.251 18.0918ZM46.9962 0.742384C45.7066 0.805529 44.2364 1.31792 42.815 1.98834C41.361 2.67418 39.8203 3.59233 38.3522 4.5961C35.4556 6.57649 32.6429 9.02774 31.291 10.8981L33.7224 12.6554C34.7747 11.1996 37.2555 8.98008 40.0454 7.0726C41.4205 6.13244 42.8212 5.30238 44.0948 4.70165C45.4011 4.08551 46.4447 3.77298 47.1429 3.73879L46.9962 0.742384ZM31.291 10.8981C30.8158 11.5555 30.3923 11.8537 30.0485 11.9966C29.7042 12.1398 29.312 12.1803 28.8098 12.1118C28.2875 12.0405 27.7061 11.8603 27.0092 11.6038C26.37 11.3685 25.5402 11.0306 24.777 10.7818L23.8471 13.634C24.5495 13.863 25.1763 14.1259 25.9728 14.4191C26.7116 14.6911 27.5449 14.967 28.4043 15.0843C29.2839 15.2043 30.2405 15.1657 31.2 14.7669C32.1601 14.3678 32.9956 13.6611 33.7224 12.6554L31.291 10.8981ZM24.777 10.7818C23.8052 10.465 22.2299 10.3089 20.4459 10.3473C18.6185 10.3866 16.4303 10.6331 14.1818 11.2106C9.71888 12.3569 4.77949 14.8778 2.193 19.9405L4.86454 21.3054C6.90147 17.3184 10.8881 15.154 14.9281 14.1163C16.9312 13.6018 18.8887 13.3815 20.5105 13.3466C22.1757 13.3108 23.3533 13.473 23.8471 13.634L24.777 10.7818ZM2.193 19.9405C-2.94214 29.9918 3.01211 44.5256 17.8775 50.0865L18.9286 47.2766C5.2828 42.172 0.752819 29.3535 4.86454 21.3054L2.193 19.9405ZM17.8775 50.0865C25.0239 52.7598 33.2372 55.5763 40.2474 57.3549C43.7478 58.2431 46.9986 58.8856 49.6905 59.1116C51.0366 59.2246 52.2843 59.2373 53.376 59.1094C54.4506 58.9834 55.4879 58.7087 56.3218 58.1589L54.6704 55.6543C54.3849 55.8426 53.8689 56.0311 53.0268 56.1298C52.2017 56.2265 51.169 56.2252 49.9415 56.1221C47.4862 55.916 44.4165 55.3177 40.9852 54.4471C34.1323 52.7083 26.0379 49.9361 18.9286 47.2766L17.8775 50.0865ZM56.3218 58.1589C57.611 57.3088 59.2128 55.6623 60.927 53.9019C62.7037 52.0774 64.7323 49.9845 67.0048 48.0096C71.5947 44.0208 76.8833 40.7826 82.6021 41.1194L82.7785 38.1246C75.827 37.7152 69.7572 41.6431 65.037 45.7451C62.6545 47.8156 60.54 49.9992 58.7777 51.8089C56.9531 53.6827 55.62 55.0282 54.6704 55.6543L56.3218 58.1589ZM82.6021 41.1194C88.3422 41.4575 92.733 44.6532 95.9158 49.6385C99.1202 54.6577 101.037 61.4168 101.72 68.5573L104.706 68.2715C103.995 60.8342 101.985 53.5701 98.4444 48.0242C94.8821 42.4443 89.7087 38.5328 82.7785 38.1246L82.6021 41.1194ZM101.72 68.5573C103.097 82.9484 100.991 95.8215 95.6214 104.664L98.1857 106.221C104.008 96.6317 106.119 83.036 104.706 68.2715L101.72 68.5573ZM95.6214 104.664C90.0329 113.868 86.5151 120.813 86.2839 128.332L89.2824 128.424C89.4868 121.781 92.5822 115.45 98.1857 106.221L95.6214 104.664ZM86.2839 128.332C86.2317 130.028 85.9651 130.856 85.7513 131.2C85.6629 131.343 85.6195 131.344 85.6545 131.328C85.6885 131.312 85.6831 131.333 85.5823 131.317C85.3146 131.277 84.8245 131.056 84.1289 130.51C83.4699 129.992 82.7694 129.298 82.0926 128.542L79.8581 130.544C80.5964 131.368 81.4272 132.203 82.2759 132.869C83.088 133.507 84.0822 134.125 85.1354 134.284C85.6951 134.368 86.3094 134.328 86.9047 134.055C87.5011 133.782 87.9609 133.329 88.2997 132.783C88.9406 131.751 89.2257 130.269 89.2824 128.424L86.2839 128.332ZM82.0926 128.542C80.7888 127.087 75.7115 119.944 70.9544 111.27C68.5861 106.951 66.3222 102.298 64.6578 97.8279C62.9852 93.336 61.9589 89.1367 61.9737 85.6943L58.9738 85.6813C58.9566 89.6527 60.1232 94.2472 61.8464 98.8748C63.5778 103.524 65.9127 108.316 68.324 112.712C73.1262 121.469 78.3317 128.84 79.8581 130.544L82.0926 128.542ZM61.9737 85.6943C62.0334 71.8889 74.9429 64.8488 83.5358 67.3231L84.366 64.4403C73.9125 61.4302 59.0423 69.8318 58.9738 85.6813L61.9737 85.6943ZM83.5358 67.3231C87.8838 68.5751 90.981 71.7481 94.3223 74.7639C97.5019 77.6339 101.107 80.5455 106.034 79.4098L105.36 76.4864C102.106 77.2367 99.5998 75.4862 96.3324 72.537C93.2266 69.7337 89.5412 65.9305 84.366 64.4403L83.5358 67.3231ZM106.034 79.4098C110.21 78.447 115.663 76.9927 120.936 77.1361C126.125 77.2771 130.893 78.9566 133.967 84.1031L136.543 82.5646C132.772 76.2521 126.851 74.2957 121.018 74.1372C115.268 73.9809 109.365 75.5632 105.36 76.4864L106.034 79.4098ZM133.967 84.1031C137.018 89.2104 136.131 94.695 133.432 99.9805C130.724 105.283 126.317 110.114 122.837 113.609L124.963 115.726C128.479 112.194 133.171 107.088 136.104 101.345C139.045 95.5849 140.337 88.9162 136.543 82.5646L133.967 84.1031ZM122.837 113.609C119.431 117.029 112.598 122.208 106.604 126.752C103.637 129 100.886 131.087 98.936 132.678C97.9676 133.469 97.1538 134.171 96.6027 134.729C96.3381 134.997 96.066 135.298 95.8744 135.603C95.7833 135.748 95.6443 135.994 95.5798 136.308C95.5099 136.648 95.5039 137.241 95.9577 137.747L98.1922 135.745C98.587 136.186 98.5644 136.688 98.5182 136.912C98.4956 137.022 98.4635 137.1 98.4464 137.138C98.4282 137.177 98.4144 137.199 98.4133 137.201C98.4129 137.202 98.4341 137.169 98.4947 137.098C98.5524 137.03 98.6319 136.944 98.7367 136.838C99.1684 136.401 99.8772 135.782 100.833 135.002C102.731 133.453 105.433 131.404 108.416 129.142C114.321 124.666 121.371 119.332 124.963 115.726L122.837 113.609ZM95.9577 137.747C96.3532 138.189 96.8543 138.274 97.0537 138.298C97.2981 138.327 97.5281 138.309 97.7005 138.288C98.054 138.243 98.4587 138.141 98.8697 138.017C99.7083 137.766 100.82 137.349 102.113 136.819C104.712 135.754 108.186 134.171 111.973 132.35C119.545 128.71 128.463 124.073 134.286 120.627L132.758 118.045C127.037 121.432 118.203 126.027 110.673 129.647C106.909 131.456 103.495 133.01 100.975 134.043C99.7094 134.562 98.7044 134.935 98.007 135.144C97.6501 135.251 97.432 135.298 97.3253 135.311C97.2676 135.318 97.3081 135.307 97.4058 135.319C97.4584 135.325 97.8556 135.37 98.1922 135.745L95.9577 137.747ZM134.286 120.627C140.384 117.017 146.478 109.703 149.271 101.391C152.086 93.016 151.598 83.4274 144.152 75.6181L141.981 77.6883C148.472 84.4962 148.983 92.8321 146.428 100.435C143.851 108.103 138.204 114.821 132.758 118.045L134.286 120.627ZM144.152 75.6181C136.743 67.8477 128.274 67.0671 121.311 68.3081C117.855 68.9241 114.758 70.0365 112.33 71.0214C111.129 71.5083 110.044 71.9844 109.219 72.3308C108.326 72.7057 107.797 72.901 107.519 72.9572L108.112 75.898C108.74 75.7714 109.557 75.4425 110.38 75.0968C111.271 74.7228 112.272 74.2821 113.457 73.8015C115.8 72.8511 118.677 71.8249 121.838 71.2615C128.109 70.1438 135.453 70.8413 141.981 77.6883L144.152 75.6181ZM107.519 72.9572C106.134 73.2363 104.708 72.7471 102.955 71.4588C101.177 70.1529 99.3751 68.2676 97.215 66.1507C93.0327 62.0521 87.721 57.2963 80.1574 57.2596L80.1429 60.2596C86.3797 60.2899 90.9102 64.1725 95.1152 68.2933C97.1488 70.2862 99.1767 72.4058 101.178 73.8764C103.204 75.3646 105.506 76.4232 108.112 75.898L107.519 72.9572ZM80.1574 57.2596C72.9875 57.2248 65.0982 59.3756 59.2455 64.2708C53.3261 69.2218 49.6175 76.8811 50.7585 87.4985L53.7413 87.1779C52.7037 77.5222 56.0449 70.8588 61.1702 66.572C66.3622 62.2294 73.5124 60.2274 80.1429 60.2596L80.1574 57.2596ZM50.7585 87.4985C51.8884 98.0126 57.4959 108.373 63.2958 116.765C69.0755 125.129 75.3012 131.866 77.5639 134.74L79.9208 132.884C77.4279 129.718 71.4966 123.355 65.7637 115.06C60.0509 106.794 54.7901 96.9369 53.7413 87.1779L50.7585 87.4985ZM77.5639 134.74C79.9923 137.824 82.1685 140.798 87.2145 142.235C92.0877 143.623 99.5212 143.557 112.443 141.467L111.964 138.506C99.0713 140.591 92.218 140.541 88.0364 139.35C84.0274 138.208 82.3805 136.007 79.9209 132.884L77.5639 134.74ZM112.443 141.467C123.056 139.751 134.62 134.962 147.355 128.727C153.734 125.604 160.44 122.1 167.493 118.415C174.551 114.726 181.962 110.852 189.776 106.973C221.024 91.461 258.645 75.9073 305.12 72.1793L304.88 69.1889C257.855 72.961 219.838 88.7008 188.442 104.286C180.596 108.181 173.158 112.069 166.103 115.756C159.043 119.445 152.373 122.93 146.036 126.032C133.34 132.249 122.112 136.864 111.964 138.506L112.443 141.467ZM305 72.1841C345.661 72.1841 365.661 87.8084 371.601 103.187C374.584 110.911 374.076 118.641 370.896 124.585C367.729 130.505 361.862 134.756 353.86 135.507L354.14 138.493C363.138 137.65 369.896 132.814 373.541 126.001C377.174 119.211 377.666 110.562 374.399 102.106C367.84 85.1235 346.339 69.1841 305 69.1841V72.1841ZM353.86 135.507C342.158 136.604 333.315 135.926 326.887 134.01C320.478 132.1 316.551 128.99 314.477 125.245C312.396 121.488 312.05 116.856 313.281 111.654C314.513 106.447 317.306 100.767 321.355 95.0645C329.455 83.6586 342.417 72.3904 357.211 64.9111C372.011 57.4289 388.481 53.8171 403.65 57.4586L404.35 54.5414C388.269 50.681 371.054 54.5508 355.857 62.2338C340.654 69.9198 327.308 81.5006 318.909 93.3276C314.71 99.2413 311.707 105.274 310.362 110.963C309.014 116.658 309.309 122.105 311.852 126.698C314.403 131.304 319.083 134.815 326.03 136.885C332.959 138.95 342.222 139.611 354.14 138.493L353.86 135.507ZM403.65 57.4586C419.024 61.1493 429.351 67.4233 437.165 74.8134C445.015 82.238 450.372 90.8211 455.799 99.3031C461.194 107.735 466.669 116.084 474.7 122.634C482.778 129.221 493.353 133.924 508.867 135.306L509.133 132.318C494.147 130.983 484.159 126.476 476.596 120.309C468.987 114.103 463.743 106.152 458.326 97.6861C452.941 89.2699 447.391 80.3566 439.226 72.6339C431.024 64.8767 420.226 58.3525 404.35 54.5414L403.65 57.4586ZM508.867 135.306C535.35 137.665 553.682 129.007 565.131 115.289C576.528 101.635 580.957 83.1491 580.074 66.039C579.193 48.9691 573.001 32.9232 562.724 24.2768C557.552 19.9247 551.338 17.4497 544.315 17.7271C537.313 18.0036 529.666 21.0083 521.577 27.3172L523.423 29.6828C531.164 23.6446 538.224 20.97 544.433 20.7248C550.621 20.4804 556.121 22.6413 560.793 26.5723C570.205 34.4921 576.221 49.6015 577.078 66.1936C577.932 82.7452 573.627 100.428 562.828 113.367C552.083 126.241 534.758 134.6 509.133 132.318L508.867 135.306ZM521.577 27.3172C515.219 32.2766 511.135 37.1331 509.183 41.9468C507.205 46.8244 507.463 51.5494 509.572 56.0465C511.653 60.4841 515.504 64.6374 520.61 68.5628C525.729 72.4975 532.201 76.273 539.652 79.9255C569.382 94.4995 615.57 107.515 656.033 120.761L656.967 117.91C616.264 104.585 570.452 91.6829 540.973 77.2318C533.622 73.6281 527.341 69.9531 522.439 66.1843C517.524 62.4064 514.084 58.6032 512.288 54.7727C510.519 51.0018 510.312 47.1469 511.963 43.0742C513.641 38.9377 517.281 34.4734 523.423 29.6828L521.577 27.3172Z" fill="url(#paint0_linear_1122_16803)"/>
<defs>
<linearGradient id="paint0_linear_1122_16803" x1="578.776" y1="71.9497" x2="1.89258" y2="71.9497" gradientUnits="userSpaceOnUse">
<stop stopColor="#FFE597"/>
<stop offset="1" stopColor="#AAFF82"/>
</linearGradient>
</defs>
</svg>
