<svg width="42" height="25" viewBox="0 0 42 25" fill="none" xmlns="http://www.w3.org/2000/svg">
<path d="M3.17224 14.6283C3.17922 14.727 3.16604 14.8709 3.13271 15.06C3.10355 15.2255 3.03685 15.3965 2.93262 15.5731C2.83255 15.726 2.69911 15.8609 2.53231 15.9777C2.3933 16.0751 2.20562 16.1029 1.96927 16.0612C1.50761 15.6386 1.14742 15.1243 0.88871 14.5181C0.824604 13.7757 0.791063 12.929 0.788086 11.9781C0.808744 11.0313 0.859287 10.0532 0.939714 9.04382C1.02431 8.01081 1.13462 6.97016 1.27065 5.92185C1.43031 4.87772 1.60736 3.8732 1.8018 2.90831C1.83096 2.74286 1.88027 2.53222 1.94974 2.27639C2.04283 2.02474 2.15748 1.78906 2.29368 1.56938C2.43405 1.32606 2.58972 1.13417 2.76069 0.993728C2.93583 0.829648 3.15339 0.770529 3.41338 0.816372C3.72064 0.87055 3.95215 1.00885 4.10791 1.23128C4.26366 1.45371 4.30405 1.77764 4.22906 2.20308C4.03879 3.14434 3.85965 4.16067 3.69166 5.25208C3.55146 6.32402 3.43282 7.41195 3.33573 8.51586C3.23864 9.61977 3.16935 10.7042 3.12786 11.7692C3.11417 12.8147 3.12897 13.7677 3.17224 14.6283Z" fill="#282828"/>
<path d="M8.58945 18.1059C8.67268 17.2188 8.78856 16.2157 8.93709 15.0965C9.10925 13.9815 9.29739 12.8449 9.50152 11.6867C9.70982 10.5049 9.91395 9.34678 10.1139 8.21227C10.3375 7.08192 10.5542 6.06002 10.7639 5.14657C10.8056 4.91021 10.9432 4.7517 11.1767 4.67103C11.4381 4.57089 11.6376 4.54514 11.7752 4.59378C12.1923 4.71607 12.4489 4.91971 12.5449 5.20471C12.6687 5.47024 12.7146 5.83171 12.6827 6.28912C12.5258 7.0413 12.3688 7.79347 12.2119 8.54564C12.0786 9.30199 11.9571 10.0604 11.8474 10.8209C12.9443 10.8194 13.8994 10.5857 14.7126 10.1198C15.5495 9.65811 16.1882 9.07618 16.6287 8.37401C16.7969 8.11122 16.94 7.78309 17.0581 7.38962C17.1999 7.00032 17.2825 6.60059 17.306 6.19045C17.3338 5.75668 17.2843 5.34585 17.1577 4.95797C17.0589 4.55063 16.851 4.20934 16.534 3.9341C16.0682 3.53515 15.5301 3.26968 14.9197 3.13769C14.3094 3.0057 13.6545 2.98772 12.9553 3.08375C12.2838 3.16031 11.5915 3.35505 10.8783 3.66797C10.1888 3.98505 9.52018 4.39111 8.87241 4.88615C8.88083 5.25319 8.77732 5.56394 8.56188 5.81839C8.35061 6.04921 8.08093 6.19662 7.75284 6.26062C7.55542 6.27455 7.34755 6.14042 7.12922 5.85822C6.91506 5.55238 6.83089 5.26947 6.87671 5.00948C7.04335 4.06405 7.44706 3.29446 8.08785 2.70071C8.75644 2.0875 9.5342 1.61538 10.4211 1.28436C11.308 0.953347 12.2332 0.750927 13.1967 0.677105C14.1601 0.603283 15.0318 0.635137 15.8118 0.772666C16.9699 0.976877 17.8786 1.49046 18.5377 2.31343C19.201 3.11276 19.5849 4.04559 19.6894 5.11194C19.8733 6.97213 19.4621 8.54462 18.4558 9.8294C17.4732 11.1183 16.0512 12.1349 14.1897 12.8789C15.2855 13.852 16.3047 14.775 17.2475 15.648C18.2139 16.5251 19.1699 17.4613 20.1155 18.4567C20.2323 18.6235 20.3485 18.8633 20.4639 19.1761C20.6072 19.4694 20.5127 19.8671 20.1806 20.369C19.9804 20.6749 19.6989 20.8202 19.3361 20.805C19.001 20.7703 18.6889 20.6056 18.3996 20.3109C17.9546 19.7937 17.4408 19.2523 16.8582 18.6865C16.3033 18.1013 15.711 17.5216 15.0811 16.9475C14.4553 16.3498 13.8254 15.7757 13.1913 15.2252C12.5614 14.6511 11.9607 14.1187 11.3892 13.628C11.2462 14.5776 11.0914 15.5251 10.9248 16.4705C10.7859 17.3965 10.661 18.3127 10.55 19.2192C10.4916 19.5501 10.3554 19.7698 10.1413 19.8783C9.93144 19.9631 9.68467 19.9805 9.40104 19.9305C9.2634 19.8819 9.1459 19.788 9.04855 19.649C8.95537 19.4864 8.86427 19.3119 8.77526 19.1256C8.71404 18.9199 8.66256 18.728 8.62082 18.5501C8.58324 18.3485 8.57278 18.2004 8.58945 18.1059Z" fill="#282828"/>
<path d="M26.5076 18.743C26.5145 18.8417 26.5014 18.9856 26.468 19.1747C26.4389 19.3401 26.3722 19.5111 26.2679 19.6877C26.1679 19.8407 26.0344 19.9756 25.8676 20.0924C25.7286 20.1897 25.5409 20.2175 25.3046 20.1759C24.8429 19.7533 24.4828 19.2389 24.224 18.6328C24.1599 17.8904 24.1264 17.0437 24.1234 16.0927C24.1441 15.1459 24.1946 14.1678 24.275 13.1585C24.3596 12.1255 24.4699 11.0848 24.606 10.0365C24.7656 8.99237 24.9427 7.98785 25.1371 7.02295C25.1663 6.8575 25.2156 6.64687 25.2851 6.39104C25.3782 6.13938 25.4928 5.90371 25.629 5.68403C25.7694 5.4407 25.925 5.24882 26.096 5.10838C26.2712 4.9443 26.4887 4.88518 26.7487 4.93102C27.056 4.9852 27.2875 5.1235 27.4432 5.34593C27.599 5.56835 27.6394 5.89229 27.5644 6.31773C27.3741 7.25899 27.195 8.27532 27.027 9.36673C26.8868 10.4387 26.7681 11.5266 26.6711 12.6305C26.574 13.7344 26.5047 14.8189 26.4632 15.8838C26.4495 16.9293 26.4643 17.8824 26.5076 18.743Z" fill="#282828"/>
<path d="M41.2938 8.88482C41.1784 8.98633 40.9845 9.04961 40.712 9.07467C40.4673 9.08027 40.2317 8.9656 40.005 8.73068C39.8409 8.55552 39.6414 8.37412 39.4064 8.18646C39.1755 7.97517 38.919 7.77152 38.6367 7.57553C38.3545 7.37954 38.068 7.20718 37.7774 7.05846C37.4868 6.90974 37.1997 6.81037 36.9161 6.76036C36.5616 6.69785 36.1688 6.71389 35.7379 6.80849C35.3305 6.90726 34.958 7.08528 34.6202 7.34253C33.9724 7.83757 33.6695 8.38122 33.7113 8.97348C33.7809 9.54627 34.105 10.1274 34.6835 10.7168C35.0547 11.0991 35.4594 11.4994 35.8974 11.9178C36.3396 12.3126 36.77 12.7053 37.1885 13.0959C37.6307 13.4907 38.0395 13.8674 38.415 14.2261C38.8141 14.5889 39.1603 14.9058 39.4537 15.1769C39.8291 15.5355 40.1768 15.9136 40.4966 16.3112C40.8165 16.7088 41.0807 17.1453 41.2894 17.6208C41.5022 18.0726 41.6455 18.5731 41.7193 19.1222C41.7931 19.6714 41.7716 20.2769 41.655 20.9387C41.2604 22.2095 40.5571 23.1577 39.5451 23.7835C38.561 24.3898 37.4829 24.6993 36.3109 24.712C35.2849 24.726 34.3102 24.5176 33.387 24.0868C32.4874 23.6601 31.7713 23.022 31.2387 22.1726C31.1065 21.9544 31.0106 21.6694 30.9507 21.3176C30.8909 20.9659 30.9207 20.7275 31.0402 20.6023C31.2195 20.4146 31.4927 20.3165 31.8597 20.3082C32.2309 20.2761 32.5006 20.3359 32.6689 20.4874C33.125 21.0796 33.6986 21.5585 34.3897 21.924C35.0849 22.2659 35.8509 22.4132 36.6879 22.3658C37.3274 22.3324 37.8695 22.1599 38.3144 21.8484C38.7633 21.5133 39.0789 21.1059 39.2609 20.6262C39.4707 20.127 39.4935 19.5827 39.3294 18.9933C39.193 18.3843 38.8453 17.7991 38.2863 17.2375C37.4464 16.3339 36.5272 15.4651 35.5289 14.631C34.5541 13.8012 33.5724 12.8726 32.5837 11.8453C32.1234 11.2767 31.8133 10.6859 31.6532 10.0728C31.5169 9.46387 31.4966 8.88759 31.5924 8.34397C31.6924 7.77671 31.9043 7.26575 32.2281 6.81108C32.5561 6.33277 32.9683 5.93022 33.4645 5.60343C33.965 5.253 34.5217 4.9978 35.1348 4.83783C35.7479 4.67786 36.4013 4.63467 37.095 4.70826C38.0488 4.82769 38.9233 5.18904 39.7187 5.79232C40.5182 6.37196 41.1335 7.02879 41.5647 7.76281C41.6579 7.92546 41.6739 8.11106 41.6128 8.31962C41.5753 8.53234 41.4689 8.72074 41.2938 8.88482Z" fill="#282828"/>
</svg>
