<svg width="239" height="61" viewBox="0 0 239 61" fill="none" xmlns="http://www.w3.org/2000/svg">
<path d="M3.82876 16.44C3.85276 16.536 3.86476 16.68 3.86476 16.872C3.86476 17.04 3.82876 17.22 3.75676 17.412C3.68476 17.58 3.57676 17.736 3.43276 17.88C3.31276 18 3.13276 18.06 2.89276 18.06C2.36476 17.724 1.92076 17.28 1.56076 16.728C1.36876 16.008 1.18876 15.18 1.02076 14.244C0.876758 13.308 0.756758 12.336 0.660758 11.328C0.564758 10.296 0.492758 9.25199 0.444758 8.19599C0.420758 7.13999 0.420758 6.11999 0.444758 5.13599C0.444758 4.96799 0.456758 4.75199 0.480758 4.48799C0.528758 4.22399 0.600758 3.97199 0.696758 3.73199C0.792758 3.46799 0.912758 3.25199 1.05676 3.08399C1.20076 2.89199 1.40476 2.79599 1.66876 2.79599C1.98076 2.79599 2.23276 2.89199 2.42476 3.08399C2.61676 3.27599 2.71276 3.58799 2.71276 4.01999C2.68876 4.97999 2.68876 6.01199 2.71276 7.11599C2.76076 8.19599 2.83276 9.28799 2.92876 10.392C3.02476 11.496 3.14476 12.576 3.28876 13.632C3.45676 14.664 3.63676 15.6 3.82876 16.44Z" fill="url(#paint0_linear_1122_16799)"/>
<path d="M28.5332 3.98399C28.4852 4.12799 28.3172 4.29599 28.0292 4.48799C27.7412 4.67999 27.5012 4.77599 27.3092 4.77599C26.2772 4.67999 25.2452 4.59599 24.2132 4.52399C23.2052 4.45199 22.1732 4.40399 21.1172 4.37999C21.2612 5.21999 21.3932 6.05999 21.5132 6.89999C21.6572 7.73999 21.7892 8.57999 21.9092 9.41999C23.9492 9.34799 25.9652 9.23999 27.9572 9.09599C28.2932 9.09599 28.6292 9.20399 28.9652 9.41999C29.3012 9.63599 29.4692 9.83999 29.4692 10.032C29.4692 10.296 29.3612 10.536 29.1452 10.752C28.9292 10.944 28.6652 11.064 28.3532 11.112C27.3452 11.28 26.3252 11.412 25.2932 11.508C24.2852 11.58 23.2532 11.64 22.1972 11.688C22.3172 12.528 22.4132 13.368 22.4852 14.208C22.5812 15.024 22.6652 15.84 22.7372 16.656C22.7852 16.992 22.7492 17.352 22.6292 17.736C22.5332 18.096 22.3652 18.276 22.1252 18.276C21.9092 18.276 21.7052 18.216 21.5132 18.096C21.3212 17.976 21.1412 17.844 20.9732 17.7C20.8292 17.532 20.7092 17.352 20.6132 17.16C20.5172 16.968 20.4572 16.8 20.4332 16.656C20.1932 14.592 19.9292 12.54 19.6412 10.5C19.3772 8.45999 19.0772 6.40799 18.7412 4.34399H17.5532C17.2172 4.34399 16.9052 4.30799 16.6172 4.23599C16.3292 4.16399 16.1132 3.98399 15.9692 3.69599C15.9212 3.62399 15.8852 3.50399 15.8612 3.33599C15.8612 3.16799 15.8732 2.99999 15.8972 2.83199C15.9452 2.66399 16.0172 2.50799 16.1132 2.36399C16.2092 2.21999 16.3412 2.12399 16.5092 2.07599C17.4452 1.93199 18.4412 1.87199 19.4972 1.89599C20.5772 1.91999 21.6212 1.99199 22.6292 2.11199C23.6612 2.20799 24.6212 2.35199 25.5092 2.54399C26.4212 2.73599 27.2012 2.93999 27.8492 3.15599C28.2572 3.39599 28.4852 3.67199 28.5332 3.98399Z" fill="url(#paint1_linear_1122_16799)"/>
<path d="M35.5045 16.44C35.5285 16.536 35.5405 16.68 35.5405 16.872C35.5405 17.04 35.5045 17.22 35.4325 17.412C35.3605 17.58 35.2525 17.736 35.1085 17.88C34.9885 18 34.8085 18.06 34.5685 18.06C34.0405 17.724 33.5965 17.28 33.2365 16.728C33.0445 16.008 32.8645 15.18 32.6965 14.244C32.5525 13.308 32.4325 12.336 32.3365 11.328C32.2405 10.296 32.1685 9.25199 32.1205 8.19599C32.0965 7.13999 32.0965 6.11999 32.1205 5.13599C32.1205 4.96799 32.1325 4.75199 32.1565 4.48799C32.2045 4.22399 32.2765 3.97199 32.3725 3.73199C32.4685 3.46799 32.5885 3.25199 32.7325 3.08399C32.8765 2.89199 33.0805 2.79599 33.3445 2.79599C33.6565 2.79599 33.9085 2.89199 34.1005 3.08399C34.2925 3.27599 34.3885 3.58799 34.3885 4.01999C34.3645 4.97999 34.3645 6.01199 34.3885 7.11599C34.4365 8.19599 34.5085 9.28799 34.6045 10.392C34.7005 11.496 34.8205 12.576 34.9645 13.632C35.1325 14.664 35.3125 15.6 35.5045 16.44Z" fill="url(#paint2_linear_1122_16799)"/>
<path d="M52.7471 4.77599C52.5791 6.81599 52.3751 8.90399 52.1351 11.04C51.9191 13.152 51.6191 15.144 51.2351 17.016C51.1391 17.472 51.0071 17.796 50.8391 17.988C50.6711 18.18 50.4311 18.312 50.1191 18.384C49.8551 18.432 49.4831 18.348 49.0031 18.132C48.5471 17.916 48.1631 17.604 47.8511 17.196C47.4431 16.644 46.9991 16.044 46.5191 15.396C46.0631 14.724 45.5591 14.052 45.0071 13.38C44.4791 12.684 43.9151 12 43.3151 11.328C42.7391 10.656 42.1271 10.032 41.4791 9.45599C41.4071 11.04 41.3471 12.612 41.2991 14.172C41.2511 15.708 41.2511 17.256 41.2991 18.816C41.2991 19.032 41.1071 19.14 40.7231 19.14C40.2671 19.14 39.8951 18.912 39.6071 18.456C39.3191 17.976 39.1511 17.496 39.1031 17.016C39.0311 16.536 38.9951 15.852 38.9951 14.964C38.9951 14.052 39.0071 13.104 39.0311 12.12C39.0791 11.136 39.1271 10.188 39.1751 9.27599C39.2231 8.36399 39.2711 7.64399 39.3191 7.11599C39.3671 6.53999 39.4991 6.11999 39.7151 5.85599C39.9551 5.59199 40.1831 5.47199 40.3991 5.49599C40.8791 5.54399 41.1911 5.68799 41.3351 5.92799C41.5031 6.14399 41.5991 6.41999 41.6231 6.75599C42.4871 7.37999 43.2791 8.05199 43.9991 8.77199C44.7431 9.49199 45.4151 10.224 46.0151 10.968C46.6391 11.712 47.2031 12.456 47.7071 13.2C48.2351 13.92 48.7271 14.58 49.1831 15.18C49.4711 13.74 49.6991 12.132 49.8671 10.356C50.0591 8.57999 50.2511 6.71999 50.4431 4.77599C50.4191 4.53599 50.5631 4.30799 50.8751 4.09199C51.1871 3.85199 51.4751 3.74399 51.7391 3.76799C52.4111 3.81599 52.7471 4.15199 52.7471 4.77599Z" fill="url(#paint3_linear_1122_16799)"/>
<path d="M59.6569 16.44C59.6809 16.536 59.6929 16.68 59.6929 16.872C59.6929 17.04 59.6569 17.22 59.5849 17.412C59.5129 17.58 59.4049 17.736 59.2609 17.88C59.1409 18 58.9609 18.06 58.7209 18.06C58.1929 17.724 57.7489 17.28 57.3889 16.728C57.1969 16.008 57.0169 15.18 56.8489 14.244C56.7049 13.308 56.5849 12.336 56.4889 11.328C56.3929 10.296 56.3209 9.25199 56.2729 8.19599C56.2489 7.13999 56.2489 6.11999 56.2729 5.13599C56.2729 4.96799 56.2849 4.75199 56.3089 4.48799C56.3569 4.22399 56.4289 3.97199 56.5249 3.73199C56.6209 3.46799 56.7409 3.25199 56.8849 3.08399C57.0289 2.89199 57.2329 2.79599 57.4969 2.79599C57.8089 2.79599 58.0609 2.89199 58.2529 3.08399C58.4449 3.27599 58.5409 3.58799 58.5409 4.01999C58.5169 4.97999 58.5169 6.01199 58.5409 7.11599C58.5889 8.19599 58.6609 9.28799 58.7569 10.392C58.8529 11.496 58.9729 12.576 59.1169 13.632C59.2849 14.664 59.4649 15.6 59.6569 16.44Z" fill="url(#paint4_linear_1122_16799)"/>
<path d="M72.5075 4.16399C72.4115 4.28399 72.2315 4.37999 71.9675 4.45199C71.7275 4.49999 71.4755 4.42799 71.2115 4.23599C71.0195 4.09199 70.7915 3.94799 70.5275 3.80399C70.2635 3.63599 69.9755 3.47999 69.6635 3.33599C69.3515 3.19199 69.0395 3.07199 68.7275 2.97599C68.4155 2.87999 68.1155 2.83199 67.8275 2.83199C67.4675 2.83199 67.0835 2.91599 66.6755 3.08399C66.2915 3.25199 65.9555 3.49199 65.6675 3.80399C65.1155 4.40399 64.9115 4.99199 65.0555 5.56799C65.2235 6.11999 65.6435 6.63599 66.3155 7.11599C66.7475 7.42799 67.2155 7.75199 67.7195 8.08799C68.2235 8.39999 68.7155 8.71199 69.1955 9.02399C69.6995 9.33599 70.1675 9.63599 70.5995 9.92399C71.0555 10.212 71.4515 10.464 71.7875 10.68C72.2195 10.968 72.6275 11.28 73.0115 11.616C73.3955 11.952 73.7315 12.336 74.0195 12.768C74.3075 13.176 74.5355 13.644 74.7035 14.172C74.8715 14.7 74.9555 15.3 74.9555 15.972C74.7875 17.292 74.2595 18.348 73.3715 19.14C72.5075 19.908 71.4995 20.4 70.3475 20.616C69.3395 20.808 68.3435 20.772 67.3595 20.508C66.3995 20.244 65.5835 19.74 64.9115 18.996C64.7435 18.804 64.5995 18.54 64.4795 18.204C64.3595 17.868 64.3475 17.628 64.4435 17.484C64.5875 17.268 64.8395 17.124 65.1995 17.052C65.5595 16.956 65.8355 16.968 66.0275 17.088C66.5795 17.592 67.2275 17.964 67.9715 18.204C68.7155 18.42 69.4955 18.432 70.3115 18.24C70.9355 18.096 71.4395 17.832 71.8235 17.448C72.2075 17.04 72.4475 16.584 72.5435 16.08C72.6635 15.552 72.5915 15.012 72.3275 14.46C72.0875 13.884 71.6435 13.368 70.9955 12.912C70.0115 12.168 68.9555 11.472 67.8275 10.824C66.7235 10.176 65.5955 9.43199 64.4435 8.59199C63.8915 8.11199 63.4835 7.58399 63.2195 7.00799C62.9795 6.43199 62.8595 5.86799 62.8595 5.31599C62.8595 4.73999 62.9795 4.19999 63.2195 3.69599C63.4595 3.16799 63.7955 2.69999 64.2275 2.29199C64.6595 1.85999 65.1635 1.51199 65.7395 1.24799C66.3155 0.98399 66.9515 0.82799 67.6475 0.779989C68.6075 0.73199 69.5315 0.93599 70.4195 1.39199C71.3075 1.82399 72.0275 2.36399 72.5795 3.01199C72.6995 3.15599 72.7475 3.33599 72.7235 3.55199C72.7235 3.76799 72.6515 3.97199 72.5075 4.16399Z" fill="url(#paint5_linear_1122_16799)"/>
<path d="M89.9104 5.17199C90.2464 7.11599 90.4984 9.05999 90.6664 11.004C90.8344 12.924 90.9664 14.844 91.0624 16.764C91.0864 16.98 91.0624 17.172 90.9904 17.34C90.9184 17.484 90.8224 17.616 90.7024 17.736C90.6064 17.856 90.4984 17.952 90.3784 18.024C90.2824 18.096 90.1984 18.132 90.1264 18.132C89.8624 18.132 89.5984 18.012 89.3344 17.772C89.0944 17.508 88.9504 17.172 88.9024 16.764C88.8304 15.852 88.7584 14.94 88.6864 14.028C88.6144 13.116 88.5304 12.204 88.4344 11.292C85.9144 11.988 83.2504 12.6 80.4424 13.128C80.5384 13.656 80.6344 14.184 80.7304 14.712C80.8264 15.24 80.9344 15.768 81.0544 16.296C81.0784 16.392 81.0904 16.548 81.0904 16.764C81.1144 16.98 81.1024 17.208 81.0544 17.448C81.0304 17.688 80.9584 17.916 80.8384 18.132C80.7424 18.324 80.5864 18.468 80.3704 18.564C80.1784 18.588 79.9744 18.528 79.7584 18.384C79.5424 18.24 79.3984 18.096 79.3264 17.952C79.0384 17.208 78.7624 16.32 78.4984 15.288C78.2584 14.256 78.0424 13.176 77.8504 12.048C77.6824 10.896 77.5624 9.73199 77.4904 8.55599C77.4184 7.37999 77.4064 6.25199 77.4544 5.17199C77.5024 4.81199 77.6344 4.55999 77.8504 4.41599C78.0904 4.24799 78.3064 4.16399 78.4984 4.16399C78.7144 4.16399 78.8944 4.23599 79.0384 4.37999C79.2064 4.52399 79.3384 4.70399 79.4344 4.91999C79.5304 5.13599 79.6024 5.35199 79.6504 5.56799C79.6984 5.78399 79.7224 5.96399 79.7224 6.10799C79.7464 6.87599 79.7824 7.63199 79.8304 8.37599C79.8784 9.11999 79.9624 9.86399 80.0824 10.608C81.3064 10.44 82.6384 10.212 84.0784 9.92399C85.5184 9.61199 86.8744 9.26399 88.1464 8.87999C88.0984 8.32799 88.0384 7.77599 87.9664 7.22399C87.8944 6.64799 87.8224 6.08399 87.7504 5.53199C87.7504 5.12399 87.8704 4.76399 88.1104 4.45199C88.3744 4.13999 88.6384 3.98399 88.9024 3.98399C89.0944 3.98399 89.2864 4.07999 89.4784 4.27199C89.6944 4.46399 89.8384 4.76399 89.9104 5.17199Z" fill="url(#paint6_linear_1122_16799)"/>
<path d="M104.244 10.572C104.34 10.812 104.244 11.052 103.956 11.292C103.668 11.508 103.212 11.652 102.588 11.724C101.508 11.868 100.404 12.024 99.2757 12.192C98.1477 12.336 96.9957 12.492 95.8197 12.66C95.7717 13.884 95.7717 15.108 95.8197 16.332C96.3717 16.332 97.0317 16.284 97.7997 16.188C98.5917 16.068 99.3957 15.924 100.212 15.756C101.028 15.588 101.808 15.42 102.552 15.252C103.32 15.06 103.968 14.904 104.496 14.784C104.76 14.712 105.036 14.664 105.324 14.64C105.612 14.592 105.864 14.592 106.08 14.64C106.32 14.664 106.512 14.748 106.656 14.892C106.8 15.036 106.872 15.24 106.872 15.504C106.872 15.576 106.788 15.684 106.62 15.828C106.452 15.972 106.236 16.128 105.972 16.296C105.732 16.44 105.468 16.584 105.18 16.728C104.916 16.848 104.676 16.944 104.46 17.016C102.972 17.496 101.508 17.916 100.068 18.276C98.6277 18.612 97.2237 18.792 95.8557 18.816C95.0637 18.84 94.4637 18.636 94.0557 18.204C93.6477 17.748 93.4317 17.1 93.4077 16.26C93.3597 15.084 93.3597 13.896 93.4077 12.696C92.9997 12.456 92.7957 12.12 92.7957 11.688C92.8437 11.232 93.0597 10.92 93.4437 10.752C93.4917 10.056 93.5277 9.35999 93.5517 8.66399C93.5757 7.94399 93.6117 7.23599 93.6597 6.53999C93.3957 6.49199 93.1557 6.35999 92.9397 6.14399C92.7477 5.92799 92.6517 5.68799 92.6517 5.42399C92.6517 5.20799 92.6997 5.01599 92.7957 4.84799C92.8917 4.65599 93.0717 4.51199 93.3357 4.41599C93.7677 4.31999 94.2957 4.21199 94.9197 4.09199C95.5437 3.97199 96.1797 3.86399 96.8277 3.76799C97.4997 3.67199 98.1357 3.58799 98.7357 3.51599C99.3597 3.44399 99.8877 3.39599 100.32 3.37199C100.824 3.32399 101.304 3.37199 101.76 3.51599C102.24 3.65999 102.684 3.93599 103.092 4.34399C103.188 4.67999 103.116 4.93199 102.876 5.09999C102.66 5.26799 102.372 5.37599 102.012 5.42399C101.652 5.47199 101.22 5.53199 100.716 5.60399C100.212 5.65199 99.6837 5.71199 99.1317 5.78399C98.6037 5.85599 98.0637 5.92799 97.5117 5.99999C96.9837 6.04799 96.4797 6.10799 95.9997 6.17999C95.9997 6.22799 95.9997 6.28799 95.9997 6.35999C96.0237 6.40799 96.0357 6.45599 96.0357 6.50399C95.9877 7.12799 95.9517 7.75199 95.9277 8.37599C95.9037 8.99999 95.8797 9.62399 95.8557 10.248C96.8637 10.08 97.8957 9.93599 98.9517 9.81599C100.008 9.67199 100.848 9.57599 101.472 9.52799C101.976 9.47999 102.468 9.53999 102.948 9.70799C103.428 9.87599 103.86 10.164 104.244 10.572Z" fill="url(#paint7_linear_1122_16799)"/>
<path d="M108.641 5.27999C108.281 5.42399 107.969 5.43599 107.705 5.31599C107.441 5.19599 107.249 5.03999 107.129 4.84799C106.961 4.60799 106.913 4.35599 106.985 4.09199C107.057 3.82799 107.261 3.59999 107.597 3.40799C108.149 3.09599 108.845 2.84399 109.685 2.65199C110.525 2.43599 111.425 2.37599 112.385 2.47199C113.345 2.56799 114.221 2.83199 115.013 3.26399C115.829 3.67199 116.513 4.19999 117.065 4.84799C117.641 5.49599 118.073 6.23999 118.361 7.07999C118.673 7.89599 118.817 8.75999 118.793 9.67199C118.745 10.632 118.553 11.592 118.217 12.552C117.905 13.512 117.461 14.412 116.885 15.252C116.333 16.092 115.661 16.86 114.869 17.556C114.101 18.228 113.249 18.756 112.313 19.14C111.665 19.308 111.173 19.332 110.837 19.212C110.501 19.092 110.273 18.948 110.153 18.78C110.105 18.66 110.081 18.504 110.081 18.312C110.105 18.096 110.237 17.88 110.477 17.664C110.189 15.336 110.009 13.092 109.937 10.932C109.889 8.74799 109.865 6.75599 109.865 4.95599C109.457 5.02799 109.049 5.13599 108.641 5.27999ZM112.565 4.81199C112.421 4.78799 112.265 4.77599 112.097 4.77599C111.953 4.75199 111.809 4.73999 111.665 4.73999C111.809 4.93199 111.929 5.17199 112.025 5.45999C112.121 5.72399 112.169 5.98799 112.169 6.25199C112.169 7.71599 112.181 9.28799 112.205 10.968C112.253 12.648 112.373 14.46 112.565 16.404C113.621 15.636 114.521 14.676 115.265 13.524C116.033 12.348 116.441 11.112 116.489 9.81599C116.513 8.61599 116.213 7.55999 115.589 6.64799C114.965 5.71199 113.957 5.09999 112.565 4.81199Z" fill="url(#paint8_linear_1122_16799)"/>
<path d="M149.702 20.832C149.438 20.832 149.162 20.628 148.874 20.22C148.61 19.812 148.466 19.416 148.442 19.032C148.25 17.64 148.01 16.02 147.722 14.172C147.458 12.3 147.098 10.092 146.642 7.54799C145.922 8.91599 145.214 10.272 144.518 11.616C143.822 12.96 143.126 14.304 142.43 15.648C141.998 16.488 141.554 16.908 141.098 16.908C140.426 16.908 139.898 16.56 139.514 15.864C138.674 14.64 137.798 13.5 136.886 12.444C135.998 11.364 135.074 10.296 134.114 9.23999C134.066 10.848 134.078 12.432 134.15 13.992C134.246 15.528 134.402 17.028 134.618 18.492C134.666 18.756 134.63 18.996 134.51 19.212C134.414 19.404 134.306 19.524 134.186 19.572C133.85 19.692 133.514 19.62 133.178 19.356C132.842 19.092 132.638 18.804 132.566 18.492C132.35 17.628 132.194 16.668 132.098 15.612C132.002 14.556 131.93 13.488 131.882 12.408C131.858 11.328 131.846 10.26 131.846 9.20399C131.846 8.14799 131.858 7.18799 131.882 6.32399C131.882 5.36399 132.194 4.88399 132.818 4.88399C133.202 4.88399 133.526 5.02799 133.79 5.31599C134.054 5.57999 134.198 5.96399 134.222 6.46799C135.422 7.66799 136.55 8.90399 137.606 10.176C138.686 11.424 139.73 12.696 140.738 13.992C141.578 12.48 142.43 10.932 143.294 9.34799C144.158 7.73999 145.13 6.17999 146.21 4.66799C146.258 4.40399 146.39 4.13999 146.606 3.87599C146.822 3.58799 147.062 3.39599 147.326 3.29999C147.59 3.20399 147.866 3.31199 148.154 3.62399C148.442 3.93599 148.634 4.29599 148.73 4.70399C149.138 7.12799 149.486 9.55199 149.774 11.976C150.086 14.4 150.386 16.824 150.674 19.248C150.722 19.704 150.638 20.088 150.422 20.4C150.206 20.688 149.966 20.832 149.702 20.832Z" fill="url(#paint9_linear_1122_16799)"/>
<path d="M164.115 10.572C164.211 10.812 164.115 11.052 163.827 11.292C163.539 11.508 163.083 11.652 162.459 11.724C161.379 11.868 160.275 12.024 159.147 12.192C158.019 12.336 156.867 12.492 155.691 12.66C155.643 13.884 155.643 15.108 155.691 16.332C156.243 16.332 156.903 16.284 157.671 16.188C158.463 16.068 159.267 15.924 160.083 15.756C160.899 15.588 161.679 15.42 162.423 15.252C163.191 15.06 163.839 14.904 164.367 14.784C164.631 14.712 164.907 14.664 165.195 14.64C165.483 14.592 165.735 14.592 165.951 14.64C166.191 14.664 166.383 14.748 166.527 14.892C166.671 15.036 166.743 15.24 166.743 15.504C166.743 15.576 166.659 15.684 166.491 15.828C166.323 15.972 166.107 16.128 165.843 16.296C165.603 16.44 165.339 16.584 165.051 16.728C164.787 16.848 164.547 16.944 164.331 17.016C162.843 17.496 161.379 17.916 159.939 18.276C158.499 18.612 157.095 18.792 155.727 18.816C154.935 18.84 154.335 18.636 153.927 18.204C153.519 17.748 153.303 17.1 153.279 16.26C153.231 15.084 153.231 13.896 153.279 12.696C152.871 12.456 152.667 12.12 152.667 11.688C152.715 11.232 152.931 10.92 153.315 10.752C153.363 10.056 153.399 9.35999 153.423 8.66399C153.447 7.94399 153.483 7.23599 153.531 6.53999C153.267 6.49199 153.027 6.35999 152.811 6.14399C152.619 5.92799 152.523 5.68799 152.523 5.42399C152.523 5.20799 152.571 5.01599 152.667 4.84799C152.763 4.65599 152.943 4.51199 153.207 4.41599C153.639 4.31999 154.167 4.21199 154.791 4.09199C155.415 3.97199 156.051 3.86399 156.699 3.76799C157.371 3.67199 158.007 3.58799 158.607 3.51599C159.231 3.44399 159.759 3.39599 160.191 3.37199C160.695 3.32399 161.175 3.37199 161.631 3.51599C162.111 3.65999 162.555 3.93599 162.963 4.34399C163.059 4.67999 162.987 4.93199 162.747 5.09999C162.531 5.26799 162.243 5.37599 161.883 5.42399C161.523 5.47199 161.091 5.53199 160.587 5.60399C160.083 5.65199 159.555 5.71199 159.003 5.78399C158.475 5.85599 157.935 5.92799 157.383 5.99999C156.855 6.04799 156.351 6.10799 155.871 6.17999C155.871 6.22799 155.871 6.28799 155.871 6.35999C155.895 6.40799 155.907 6.45599 155.907 6.50399C155.859 7.12799 155.823 7.75199 155.799 8.37599C155.775 8.99999 155.751 9.62399 155.727 10.248C156.735 10.08 157.767 9.93599 158.823 9.81599C159.879 9.67199 160.719 9.57599 161.343 9.52799C161.847 9.47999 162.339 9.53999 162.819 9.70799C163.299 9.87599 163.731 10.164 164.115 10.572Z" fill="url(#paint10_linear_1122_16799)"/>
<path d="M168.512 5.27999C168.152 5.42399 167.84 5.43599 167.576 5.31599C167.312 5.19599 167.12 5.03999 167 4.84799C166.832 4.60799 166.784 4.35599 166.856 4.09199C166.928 3.82799 167.132 3.59999 167.468 3.40799C168.02 3.09599 168.716 2.84399 169.556 2.65199C170.396 2.43599 171.296 2.37599 172.256 2.47199C173.216 2.56799 174.092 2.83199 174.884 3.26399C175.7 3.67199 176.384 4.19999 176.936 4.84799C177.512 5.49599 177.944 6.23999 178.232 7.07999C178.544 7.89599 178.688 8.75999 178.664 9.67199C178.616 10.632 178.424 11.592 178.088 12.552C177.776 13.512 177.332 14.412 176.756 15.252C176.204 16.092 175.532 16.86 174.74 17.556C173.972 18.228 173.12 18.756 172.184 19.14C171.536 19.308 171.044 19.332 170.708 19.212C170.372 19.092 170.144 18.948 170.024 18.78C169.976 18.66 169.952 18.504 169.952 18.312C169.976 18.096 170.108 17.88 170.348 17.664C170.06 15.336 169.88 13.092 169.808 10.932C169.76 8.74799 169.736 6.75599 169.736 4.95599C169.328 5.02799 168.92 5.13599 168.512 5.27999ZM172.436 4.81199C172.292 4.78799 172.136 4.77599 171.968 4.77599C171.824 4.75199 171.68 4.73999 171.536 4.73999C171.68 4.93199 171.8 5.17199 171.896 5.45999C171.992 5.72399 172.04 5.98799 172.04 6.25199C172.04 7.71599 172.052 9.28799 172.076 10.968C172.124 12.648 172.244 14.46 172.436 16.404C173.492 15.636 174.392 14.676 175.136 13.524C175.904 12.348 176.312 11.112 176.36 9.81599C176.384 8.61599 176.084 7.55999 175.46 6.64799C174.836 5.71199 173.828 5.09999 172.436 4.81199Z" fill="url(#paint11_linear_1122_16799)"/>
<path d="M185.551 16.44C185.575 16.536 185.587 16.68 185.587 16.872C185.587 17.04 185.551 17.22 185.479 17.412C185.407 17.58 185.299 17.736 185.155 17.88C185.035 18 184.855 18.06 184.615 18.06C184.087 17.724 183.643 17.28 183.283 16.728C183.091 16.008 182.911 15.18 182.743 14.244C182.599 13.308 182.479 12.336 182.383 11.328C182.287 10.296 182.215 9.25199 182.167 8.19599C182.143 7.13999 182.143 6.11999 182.167 5.13599C182.167 4.96799 182.179 4.75199 182.203 4.48799C182.251 4.22399 182.323 3.97199 182.419 3.73199C182.515 3.46799 182.635 3.25199 182.779 3.08399C182.923 2.89199 183.127 2.79599 183.391 2.79599C183.703 2.79599 183.955 2.89199 184.147 3.08399C184.339 3.27599 184.435 3.58799 184.435 4.01999C184.411 4.97999 184.411 6.01199 184.435 7.11599C184.483 8.19599 184.555 9.28799 184.651 10.392C184.747 11.496 184.867 12.576 185.011 13.632C185.179 14.664 185.359 15.6 185.551 16.44Z" fill="url(#paint12_linear_1122_16799)"/>
<path d="M196.422 6.32399C196.518 6.44399 196.566 6.59999 196.566 6.79199C196.59 6.95999 196.566 7.10399 196.494 7.22399C196.374 7.48799 196.17 7.58399 195.882 7.51199C195.378 7.39199 194.85 7.34399 194.298 7.36799C193.746 7.39199 193.194 7.60799 192.642 8.01599C192.09 8.42399 191.658 9.02399 191.346 9.81599C191.034 10.584 190.878 11.388 190.878 12.228C190.878 13.044 191.07 13.752 191.454 14.352C191.862 14.928 192.378 15.348 193.002 15.612C193.386 15.78 193.818 15.876 194.298 15.9C194.778 15.924 195.258 15.912 195.738 15.864C196.242 15.792 196.734 15.696 197.214 15.576C197.694 15.432 198.15 15.276 198.582 15.108C198.726 15.06 198.858 15.072 198.978 15.144C199.122 15.216 199.218 15.312 199.266 15.432C199.386 15.744 199.326 16.056 199.086 16.368C198.798 16.68 198.414 16.956 197.934 17.196C197.454 17.436 196.926 17.628 196.35 17.772C195.774 17.916 195.186 18 194.586 18.024C193.986 18.024 193.422 17.952 192.894 17.808C192.15 17.616 191.514 17.34 190.986 16.98C190.482 16.596 190.062 16.164 189.726 15.684C189.39 15.18 189.138 14.652 188.97 14.1C188.802 13.524 188.706 12.936 188.682 12.336C188.634 10.896 188.91 9.59999 189.51 8.44799C190.134 7.29599 190.998 6.44399 192.102 5.89199C192.918 5.48399 193.734 5.32799 194.55 5.42399C195.39 5.49599 196.014 5.79599 196.422 6.32399Z" fill="url(#paint13_linear_1122_16799)"/>
<path d="M205.485 16.44C205.509 16.536 205.521 16.68 205.521 16.872C205.521 17.04 205.485 17.22 205.413 17.412C205.341 17.58 205.233 17.736 205.089 17.88C204.969 18 204.789 18.06 204.549 18.06C204.021 17.724 203.577 17.28 203.217 16.728C203.025 16.008 202.845 15.18 202.677 14.244C202.533 13.308 202.413 12.336 202.317 11.328C202.221 10.296 202.149 9.25199 202.101 8.19599C202.077 7.13999 202.077 6.11999 202.101 5.13599C202.101 4.96799 202.113 4.75199 202.137 4.48799C202.185 4.22399 202.257 3.97199 202.353 3.73199C202.449 3.46799 202.569 3.25199 202.713 3.08399C202.857 2.89199 203.061 2.79599 203.325 2.79599C203.637 2.79599 203.889 2.89199 204.081 3.08399C204.273 3.27599 204.369 3.58799 204.369 4.01999C204.345 4.97999 204.345 6.01199 204.369 7.11599C204.417 8.19599 204.489 9.28799 204.585 10.392C204.681 11.496 204.801 12.576 204.945 13.632C205.113 14.664 205.293 15.6 205.485 16.44Z" fill="url(#paint14_linear_1122_16799)"/>
<path d="M222.728 4.77599C222.56 6.81599 222.356 8.90399 222.116 11.04C221.9 13.152 221.6 15.144 221.216 17.016C221.12 17.472 220.988 17.796 220.82 17.988C220.652 18.18 220.412 18.312 220.1 18.384C219.836 18.432 219.464 18.348 218.984 18.132C218.528 17.916 218.144 17.604 217.832 17.196C217.424 16.644 216.98 16.044 216.5 15.396C216.044 14.724 215.54 14.052 214.988 13.38C214.46 12.684 213.896 12 213.296 11.328C212.72 10.656 212.108 10.032 211.46 9.45599C211.388 11.04 211.328 12.612 211.28 14.172C211.232 15.708 211.232 17.256 211.28 18.816C211.28 19.032 211.088 19.14 210.704 19.14C210.248 19.14 209.876 18.912 209.588 18.456C209.3 17.976 209.132 17.496 209.084 17.016C209.012 16.536 208.976 15.852 208.976 14.964C208.976 14.052 208.988 13.104 209.012 12.12C209.06 11.136 209.108 10.188 209.156 9.27599C209.204 8.36399 209.252 7.64399 209.3 7.11599C209.348 6.53999 209.48 6.11999 209.696 5.85599C209.936 5.59199 210.164 5.47199 210.38 5.49599C210.86 5.54399 211.172 5.68799 211.316 5.92799C211.484 6.14399 211.58 6.41999 211.604 6.75599C212.468 7.37999 213.26 8.05199 213.98 8.77199C214.724 9.49199 215.396 10.224 215.996 10.968C216.62 11.712 217.184 12.456 217.688 13.2C218.216 13.92 218.708 14.58 219.164 15.18C219.452 13.74 219.68 12.132 219.848 10.356C220.04 8.57999 220.232 6.71999 220.424 4.77599C220.4 4.53599 220.544 4.30799 220.856 4.09199C221.168 3.85199 221.456 3.74399 221.72 3.76799C222.392 3.81599 222.728 4.15199 222.728 4.77599Z" fill="url(#paint15_linear_1122_16799)"/>
<path d="M236.009 10.572C236.105 10.812 236.009 11.052 235.721 11.292C235.433 11.508 234.977 11.652 234.353 11.724C233.273 11.868 232.169 12.024 231.041 12.192C229.913 12.336 228.761 12.492 227.585 12.66C227.537 13.884 227.537 15.108 227.585 16.332C228.137 16.332 228.797 16.284 229.565 16.188C230.357 16.068 231.161 15.924 231.977 15.756C232.793 15.588 233.573 15.42 234.317 15.252C235.085 15.06 235.733 14.904 236.261 14.784C236.525 14.712 236.801 14.664 237.089 14.64C237.377 14.592 237.629 14.592 237.845 14.64C238.085 14.664 238.277 14.748 238.421 14.892C238.565 15.036 238.637 15.24 238.637 15.504C238.637 15.576 238.553 15.684 238.385 15.828C238.217 15.972 238.001 16.128 237.737 16.296C237.497 16.44 237.233 16.584 236.945 16.728C236.681 16.848 236.441 16.944 236.225 17.016C234.737 17.496 233.273 17.916 231.833 18.276C230.393 18.612 228.989 18.792 227.621 18.816C226.829 18.84 226.229 18.636 225.821 18.204C225.413 17.748 225.197 17.1 225.173 16.26C225.125 15.084 225.125 13.896 225.173 12.696C224.765 12.456 224.561 12.12 224.561 11.688C224.609 11.232 224.825 10.92 225.209 10.752C225.257 10.056 225.293 9.35999 225.317 8.66399C225.341 7.94399 225.377 7.23599 225.425 6.53999C225.161 6.49199 224.921 6.35999 224.705 6.14399C224.513 5.92799 224.417 5.68799 224.417 5.42399C224.417 5.20799 224.465 5.01599 224.561 4.84799C224.657 4.65599 224.837 4.51199 225.101 4.41599C225.533 4.31999 226.061 4.21199 226.685 4.09199C227.309 3.97199 227.945 3.86399 228.593 3.76799C229.265 3.67199 229.901 3.58799 230.501 3.51599C231.125 3.44399 231.653 3.39599 232.085 3.37199C232.589 3.32399 233.069 3.37199 233.525 3.51599C234.005 3.65999 234.449 3.93599 234.857 4.34399C234.953 4.67999 234.881 4.93199 234.641 5.09999C234.425 5.26799 234.137 5.37599 233.777 5.42399C233.417 5.47199 232.985 5.53199 232.481 5.60399C231.977 5.65199 231.449 5.71199 230.897 5.78399C230.369 5.85599 229.829 5.92799 229.277 5.99999C228.749 6.04799 228.245 6.10799 227.765 6.17999C227.765 6.22799 227.765 6.28799 227.765 6.35999C227.789 6.40799 227.801 6.45599 227.801 6.50399C227.753 7.12799 227.717 7.75199 227.693 8.37599C227.669 8.99999 227.645 9.62399 227.621 10.248C228.629 10.08 229.661 9.93599 230.717 9.81599C231.773 9.67199 232.613 9.57599 233.237 9.52799C233.741 9.47999 234.233 9.53999 234.713 9.70799C235.193 9.87599 235.625 10.164 236.009 10.572Z" fill="url(#paint16_linear_1122_16799)"/>
<path d="M12.8604 46C12.9564 46.432 13.0524 46.948 13.1484 47.548C13.2444 48.124 13.3044 48.736 13.3284 49.384C13.3764 50.008 13.3884 50.656 13.3644 51.328C13.3404 52 13.2684 52.648 13.1484 53.272C13.0044 53.992 12.7164 54.652 12.2844 55.252C11.8524 55.852 11.3244 56.392 10.7004 56.872C10.1004 57.352 9.4284 57.748 8.6844 58.06C7.9644 58.348 7.2324 58.564 6.4884 58.708C5.7684 58.828 5.0484 58.852 4.3284 58.78C3.6324 58.684 3.0084 58.48 2.4564 58.168C1.8324 57.808 1.3284 57.34 0.944399 56.764C0.560399 56.188 0.392399 55.48 0.440399 54.64C0.488399 53.824 0.560399 53.08 0.656399 52.408C0.752399 51.712 0.872399 51.052 1.0164 50.428C1.1844 49.804 1.3644 49.18 1.5564 48.556C1.7484 47.908 1.9524 47.236 2.1684 46.54C2.2884 46.228 2.5044 46.048 2.8164 46C2.9364 45.976 3.0804 45.976 3.2484 46C3.3204 46 3.4164 46.048 3.5364 46.144C3.6804 46.216 3.8124 46.324 3.9324 46.468C4.0524 46.612 4.1484 46.78 4.2204 46.972C4.3164 47.164 4.3284 47.38 4.2564 47.62C4.0404 48.388 3.8244 49.168 3.6084 49.96C3.3924 50.752 3.2004 51.508 3.0324 52.228C2.8884 52.948 2.7924 53.596 2.7444 54.172C2.7204 54.724 2.7804 55.156 2.9244 55.468C3.2364 55.924 3.6564 56.224 4.1844 56.368C4.7364 56.488 5.3124 56.5 5.9124 56.404C6.5124 56.308 7.0884 56.152 7.6404 55.936C8.2164 55.696 8.7084 55.444 9.1164 55.18C9.7644 54.748 10.2324 54.208 10.5204 53.56C10.8324 52.912 11.0244 52.204 11.0964 51.436C11.1684 50.668 11.1564 49.864 11.0604 49.024C10.9884 48.184 10.8804 47.356 10.7364 46.54C10.6884 46.324 10.7004 46.048 10.7724 45.712C10.8444 45.376 11.0364 45.112 11.3484 44.92C11.6844 44.728 11.9844 44.752 12.2484 44.992C12.5364 45.232 12.7404 45.568 12.8604 46Z" fill="url(#paint17_linear_1122_16799)"/>
<path d="M30.0186 44.776C29.8506 46.816 29.6466 48.904 29.4066 51.04C29.1906 53.152 28.8906 55.144 28.5066 57.016C28.4106 57.472 28.2786 57.796 28.1106 57.988C27.9426 58.18 27.7026 58.312 27.3906 58.384C27.1266 58.432 26.7546 58.348 26.2746 58.132C25.8186 57.916 25.4346 57.604 25.1226 57.196C24.7146 56.644 24.2706 56.044 23.7906 55.396C23.3346 54.724 22.8306 54.052 22.2786 53.38C21.7506 52.684 21.1866 52 20.5866 51.328C20.0106 50.656 19.3986 50.032 18.7506 49.456C18.6786 51.04 18.6186 52.612 18.5706 54.172C18.5226 55.708 18.5226 57.256 18.5706 58.816C18.5706 59.032 18.3786 59.14 17.9946 59.14C17.5386 59.14 17.1666 58.912 16.8786 58.456C16.5906 57.976 16.4226 57.496 16.3746 57.016C16.3026 56.536 16.2666 55.852 16.2666 54.964C16.2666 54.052 16.2786 53.104 16.3026 52.12C16.3506 51.136 16.3986 50.188 16.4466 49.276C16.4946 48.364 16.5426 47.644 16.5906 47.116C16.6386 46.54 16.7706 46.12 16.9866 45.856C17.2266 45.592 17.4546 45.472 17.6706 45.496C18.1506 45.544 18.4626 45.688 18.6066 45.928C18.7746 46.144 18.8706 46.42 18.8946 46.756C19.7586 47.38 20.5506 48.052 21.2706 48.772C22.0146 49.492 22.6866 50.224 23.2866 50.968C23.9106 51.712 24.4746 52.456 24.9786 53.2C25.5066 53.92 25.9986 54.58 26.4546 55.18C26.7426 53.74 26.9706 52.132 27.1386 50.356C27.3306 48.58 27.5226 46.72 27.7146 44.776C27.6906 44.536 27.8346 44.308 28.1466 44.092C28.4586 43.852 28.7466 43.744 29.0106 43.768C29.6826 43.816 30.0186 44.152 30.0186 44.776Z" fill="url(#paint18_linear_1122_16799)"/>
<path d="M36.9284 56.44C36.9524 56.536 36.9644 56.68 36.9644 56.872C36.9644 57.04 36.9284 57.22 36.8564 57.412C36.7844 57.58 36.6764 57.736 36.5324 57.88C36.4124 58 36.2324 58.06 35.9924 58.06C35.4644 57.724 35.0204 57.28 34.6604 56.728C34.4684 56.008 34.2884 55.18 34.1204 54.244C33.9764 53.308 33.8564 52.336 33.7604 51.328C33.6644 50.296 33.5924 49.252 33.5444 48.196C33.5204 47.14 33.5204 46.12 33.5444 45.136C33.5444 44.968 33.5564 44.752 33.5804 44.488C33.6284 44.224 33.7004 43.972 33.7964 43.732C33.8924 43.468 34.0124 43.252 34.1564 43.084C34.3004 42.892 34.5044 42.796 34.7684 42.796C35.0804 42.796 35.3324 42.892 35.5244 43.084C35.7164 43.276 35.8124 43.588 35.8124 44.02C35.7884 44.98 35.7884 46.012 35.8124 47.116C35.8604 48.196 35.9324 49.288 36.0284 50.392C36.1244 51.496 36.2444 52.576 36.3884 53.632C36.5564 54.664 36.7364 55.6 36.9284 56.44Z" fill="url(#paint19_linear_1122_16799)"/>
<path d="M52.695 46.612C51.879 48.796 50.979 50.836 49.995 52.732C49.035 54.628 47.979 56.356 46.827 57.916C46.491 58.396 46.083 58.612 45.603 58.564C45.219 58.516 44.919 58.36 44.703 58.096C44.487 57.832 44.319 57.58 44.199 57.34C43.911 56.74 43.587 55.984 43.227 55.072C42.891 54.16 42.567 53.248 42.255 52.336C41.943 51.4 41.667 50.56 41.427 49.816C41.187 49.048 41.019 48.532 40.923 48.268C40.779 48.148 40.611 47.98 40.419 47.764C40.227 47.548 40.071 47.32 39.951 47.08C39.831 46.816 39.771 46.564 39.771 46.324C39.771 46.084 39.879 45.868 40.095 45.676C40.407 45.532 40.707 45.484 40.995 45.532C41.283 45.58 41.547 45.688 41.787 45.856C42.027 46.024 42.243 46.228 42.435 46.468C42.627 46.708 42.783 46.936 42.903 47.152C43.095 47.704 43.311 48.34 43.551 49.06C43.791 49.756 44.031 50.488 44.271 51.256C44.535 52 44.787 52.732 45.027 53.452C45.267 54.172 45.495 54.82 45.711 55.396C46.143 54.844 46.587 54.172 47.043 53.38C47.523 52.564 47.991 51.712 48.447 50.824C48.927 49.936 49.383 49.036 49.815 48.124C50.247 47.188 50.643 46.312 51.003 45.496C51.147 45.16 51.351 44.872 51.615 44.632C51.879 44.392 52.143 44.296 52.407 44.344C52.743 44.464 52.923 44.728 52.947 45.136C52.995 45.544 52.911 46.036 52.695 46.612Z" fill="url(#paint20_linear_1122_16799)"/>
<path d="M65.8004 50.572C65.8964 50.812 65.8004 51.052 65.5124 51.292C65.2244 51.508 64.7684 51.652 64.1444 51.724C63.0644 51.868 61.9604 52.024 60.8324 52.192C59.7044 52.336 58.5524 52.492 57.3764 52.66C57.3284 53.884 57.3284 55.108 57.3764 56.332C57.9284 56.332 58.5884 56.284 59.3564 56.188C60.1484 56.068 60.9524 55.924 61.7684 55.756C62.5844 55.588 63.3644 55.42 64.1084 55.252C64.8764 55.06 65.5244 54.904 66.0524 54.784C66.3164 54.712 66.5924 54.664 66.8804 54.64C67.1684 54.592 67.4204 54.592 67.6364 54.64C67.8764 54.664 68.0684 54.748 68.2124 54.892C68.3564 55.036 68.4284 55.24 68.4284 55.504C68.4284 55.576 68.3444 55.684 68.1764 55.828C68.0084 55.972 67.7924 56.128 67.5284 56.296C67.2884 56.44 67.0244 56.584 66.7364 56.728C66.4724 56.848 66.2324 56.944 66.0164 57.016C64.5284 57.496 63.0644 57.916 61.6244 58.276C60.1844 58.612 58.7804 58.792 57.4124 58.816C56.6204 58.84 56.0204 58.636 55.6124 58.204C55.2044 57.748 54.9884 57.1 54.9644 56.26C54.9164 55.084 54.9164 53.896 54.9644 52.696C54.5564 52.456 54.3524 52.12 54.3524 51.688C54.4004 51.232 54.6164 50.92 55.0004 50.752C55.0484 50.056 55.0844 49.36 55.1084 48.664C55.1324 47.944 55.1684 47.236 55.2164 46.54C54.9524 46.492 54.7124 46.36 54.4964 46.144C54.3044 45.928 54.2084 45.688 54.2084 45.424C54.2084 45.208 54.2564 45.016 54.3524 44.848C54.4484 44.656 54.6284 44.512 54.8924 44.416C55.3244 44.32 55.8524 44.212 56.4764 44.092C57.1004 43.972 57.7364 43.864 58.3844 43.768C59.0564 43.672 59.6924 43.588 60.2924 43.516C60.9164 43.444 61.4444 43.396 61.8764 43.372C62.3804 43.324 62.8604 43.372 63.3164 43.516C63.7964 43.66 64.2404 43.936 64.6484 44.344C64.7444 44.68 64.6724 44.932 64.4324 45.1C64.2164 45.268 63.9284 45.376 63.5684 45.424C63.2084 45.472 62.7764 45.532 62.2724 45.604C61.7684 45.652 61.2404 45.712 60.6884 45.784C60.1604 45.856 59.6204 45.928 59.0684 46C58.5404 46.048 58.0364 46.108 57.5564 46.18C57.5564 46.228 57.5564 46.288 57.5564 46.36C57.5804 46.408 57.5924 46.456 57.5924 46.504C57.5444 47.128 57.5084 47.752 57.4844 48.376C57.4604 49 57.4364 49.624 57.4124 50.248C58.4204 50.08 59.4524 49.936 60.5084 49.816C61.5644 49.672 62.4044 49.576 63.0284 49.528C63.5324 49.48 64.0244 49.54 64.5044 49.708C64.9844 49.876 65.4164 50.164 65.8004 50.572Z" fill="url(#paint21_linear_1122_16799)"/>
<path d="M72.574 58.924C72.502 58.036 72.442 57.028 72.394 55.9C72.37 54.772 72.358 53.62 72.358 52.444C72.358 51.244 72.358 50.068 72.358 48.916C72.382 47.764 72.418 46.72 72.466 45.784C72.466 45.544 72.574 45.364 72.79 45.244C73.03 45.1 73.222 45.04 73.366 45.064C73.798 45.112 74.086 45.268 74.23 45.532C74.398 45.772 74.506 46.12 74.554 46.576C74.53 47.344 74.506 48.112 74.482 48.88C74.482 49.648 74.494 50.416 74.518 51.184C75.598 50.992 76.498 50.596 77.218 49.996C77.962 49.396 78.49 48.712 78.802 47.944C78.922 47.656 79.006 47.308 79.054 46.9C79.126 46.492 79.138 46.084 79.09 45.676C79.042 45.244 78.922 44.848 78.73 44.488C78.562 44.104 78.298 43.804 77.938 43.588C77.41 43.276 76.834 43.108 76.21 43.084C75.586 43.06 74.938 43.156 74.266 43.372C73.618 43.564 72.97 43.876 72.322 44.308C71.698 44.74 71.11 45.256 70.558 45.856C70.63 46.216 70.582 46.54 70.414 46.828C70.246 47.092 70.006 47.284 69.694 47.404C69.502 47.452 69.274 47.356 69.01 47.116C68.746 46.852 68.614 46.588 68.614 46.324C68.614 45.364 68.878 44.536 69.406 43.84C69.958 43.12 70.642 42.52 71.458 42.04C72.274 41.56 73.15 41.2 74.086 40.96C75.022 40.72 75.886 40.6 76.678 40.6C77.854 40.6 78.838 40.948 79.63 41.644C80.422 42.316 80.962 43.168 81.25 44.2C81.754 46 81.622 47.62 80.854 49.06C80.11 50.5 78.886 51.748 77.182 52.804C78.43 53.572 79.594 54.304 80.674 55C81.778 55.696 82.882 56.452 83.986 57.268C84.13 57.412 84.286 57.628 84.454 57.916C84.646 58.18 84.622 58.588 84.382 59.14C84.238 59.476 83.986 59.668 83.626 59.716C83.29 59.74 82.954 59.632 82.618 59.392C82.09 58.96 81.49 58.516 80.818 58.06C80.17 57.58 79.486 57.112 78.766 56.656C78.046 56.176 77.326 55.72 76.606 55.288C75.886 54.832 75.202 54.412 74.554 54.028C74.578 54.988 74.59 55.948 74.59 56.908C74.614 57.844 74.65 58.768 74.698 59.68C74.698 60.016 74.602 60.256 74.41 60.4C74.218 60.52 73.978 60.58 73.69 60.58C73.546 60.556 73.414 60.484 73.294 60.364C73.174 60.22 73.054 60.064 72.934 59.896C72.838 59.704 72.754 59.524 72.682 59.356C72.61 59.164 72.574 59.02 72.574 58.924Z" fill="url(#paint22_linear_1122_16799)"/>
<path d="M95.6227 44.164C95.5267 44.284 95.3467 44.38 95.0827 44.452C94.8427 44.5 94.5907 44.428 94.3267 44.236C94.1347 44.092 93.9067 43.948 93.6427 43.804C93.3787 43.636 93.0907 43.48 92.7787 43.336C92.4667 43.192 92.1547 43.072 91.8427 42.976C91.5307 42.88 91.2307 42.832 90.9427 42.832C90.5827 42.832 90.1987 42.916 89.7907 43.084C89.4067 43.252 89.0707 43.492 88.7827 43.804C88.2307 44.404 88.0267 44.992 88.1707 45.568C88.3387 46.12 88.7587 46.636 89.4307 47.116C89.8627 47.428 90.3307 47.752 90.8347 48.088C91.3387 48.4 91.8307 48.712 92.3107 49.024C92.8147 49.336 93.2827 49.636 93.7147 49.924C94.1707 50.212 94.5667 50.464 94.9027 50.68C95.3347 50.968 95.7427 51.28 96.1267 51.616C96.5107 51.952 96.8467 52.336 97.1347 52.768C97.4227 53.176 97.6507 53.644 97.8187 54.172C97.9867 54.7 98.0707 55.3 98.0707 55.972C97.9027 57.292 97.3747 58.348 96.4867 59.14C95.6227 59.908 94.6147 60.4 93.4627 60.616C92.4547 60.808 91.4587 60.772 90.4747 60.508C89.5147 60.244 88.6987 59.74 88.0267 58.996C87.8587 58.804 87.7147 58.54 87.5947 58.204C87.4747 57.868 87.4627 57.628 87.5587 57.484C87.7027 57.268 87.9547 57.124 88.3147 57.052C88.6747 56.956 88.9507 56.968 89.1427 57.088C89.6947 57.592 90.3427 57.964 91.0867 58.204C91.8307 58.42 92.6107 58.432 93.4267 58.24C94.0507 58.096 94.5547 57.832 94.9387 57.448C95.3227 57.04 95.5627 56.584 95.6587 56.08C95.7787 55.552 95.7067 55.012 95.4427 54.46C95.2027 53.884 94.7587 53.368 94.1107 52.912C93.1267 52.168 92.0707 51.472 90.9427 50.824C89.8387 50.176 88.7107 49.432 87.5587 48.592C87.0067 48.112 86.5987 47.584 86.3347 47.008C86.0947 46.432 85.9747 45.868 85.9747 45.316C85.9747 44.74 86.0947 44.2 86.3347 43.696C86.5747 43.168 86.9107 42.7 87.3427 42.292C87.7747 41.86 88.2787 41.512 88.8547 41.248C89.4307 40.984 90.0667 40.828 90.7627 40.78C91.7227 40.732 92.6467 40.936 93.5347 41.392C94.4227 41.824 95.1427 42.364 95.6947 43.012C95.8147 43.156 95.8627 43.336 95.8387 43.552C95.8387 43.768 95.7667 43.972 95.6227 44.164Z" fill="url(#paint23_linear_1122_16799)"/>
<path d="M104.71 56.44C104.734 56.536 104.746 56.68 104.746 56.872C104.746 57.04 104.71 57.22 104.638 57.412C104.566 57.58 104.458 57.736 104.314 57.88C104.194 58 104.014 58.06 103.774 58.06C103.246 57.724 102.802 57.28 102.442 56.728C102.25 56.008 102.07 55.18 101.902 54.244C101.758 53.308 101.638 52.336 101.542 51.328C101.446 50.296 101.374 49.252 101.326 48.196C101.302 47.14 101.302 46.12 101.326 45.136C101.326 44.968 101.338 44.752 101.362 44.488C101.41 44.224 101.482 43.972 101.578 43.732C101.674 43.468 101.794 43.252 101.938 43.084C102.082 42.892 102.286 42.796 102.55 42.796C102.862 42.796 103.114 42.892 103.306 43.084C103.498 43.276 103.594 43.588 103.594 44.02C103.57 44.98 103.57 46.012 103.594 47.116C103.642 48.196 103.714 49.288 103.81 50.392C103.906 51.496 104.026 52.576 104.17 53.632C104.338 54.664 104.518 55.6 104.71 56.44Z" fill="url(#paint24_linear_1122_16799)"/>
<path d="M122.924 45.172C120.452 45.052 118.076 45.244 115.796 45.748C113.516 46.252 111.26 46.936 109.028 47.8C108.452 48.016 108.008 47.992 107.696 47.728C107.408 47.464 107.264 47.2 107.264 46.936C107.432 46.48 107.732 46.108 108.164 45.82C113.084 43.42 118.004 42.532 122.924 43.156C123.164 43.228 123.356 43.408 123.5 43.696C123.668 43.96 123.728 44.188 123.68 44.38C123.632 44.62 123.56 44.824 123.464 44.992C123.368 45.136 123.188 45.196 122.924 45.172ZM117.812 57.736C117.812 58 117.716 58.24 117.524 58.456C117.356 58.648 117.14 58.768 116.876 58.816C116.396 58.888 116.084 58.804 115.94 58.564C115.796 58.324 115.712 58.048 115.688 57.736C115.664 56.056 115.628 54.388 115.58 52.732C115.556 51.052 115.484 49.372 115.364 47.692C115.364 47.596 115.352 47.488 115.328 47.368C115.304 47.224 115.304 47.092 115.328 46.972C115.352 46.828 115.4 46.708 115.472 46.612C115.568 46.516 115.712 46.444 115.904 46.396C116.456 46.3 116.852 46.396 117.092 46.684C117.332 46.948 117.452 47.212 117.452 47.476C117.644 49.204 117.764 50.92 117.812 52.624C117.86 54.328 117.86 56.032 117.812 57.736Z" fill="url(#paint25_linear_1122_16799)"/>
<path d="M132.362 51.472C132.266 51.856 132.17 52.42 132.074 53.164C132.002 53.884 131.93 54.652 131.858 55.468C131.81 56.26 131.762 57.028 131.714 57.772C131.69 58.516 131.678 59.092 131.678 59.5C131.678 60.196 131.294 60.544 130.526 60.544C130.262 60.544 130.01 60.472 129.77 60.328C129.554 60.184 129.446 59.908 129.446 59.5C129.446 58.492 129.482 57.4 129.554 56.224C129.626 55.048 129.722 53.836 129.842 52.588C129.002 51.052 128.21 49.54 127.466 48.052C126.746 46.564 126.134 45.196 125.63 43.948C125.534 43.732 125.45 43.504 125.378 43.264C125.33 43 125.306 42.76 125.306 42.544C125.33 42.328 125.39 42.148 125.486 42.004C125.582 41.836 125.75 41.728 125.99 41.68C126.254 41.656 126.506 41.68 126.746 41.752C127.01 41.8 127.238 41.956 127.43 42.22C127.622 42.724 127.862 43.3 128.15 43.948C128.438 44.596 128.738 45.256 129.05 45.928C129.362 46.6 129.674 47.248 129.986 47.872C130.298 48.472 130.574 48.988 130.814 49.42C131.894 47.98 132.914 46.504 133.874 44.992C134.858 43.48 135.77 42.04 136.61 40.672C136.922 40.192 137.246 39.928 137.582 39.88C137.918 39.832 138.194 39.904 138.41 40.096C138.602 40.24 138.71 40.48 138.734 40.816C138.782 41.152 138.746 41.452 138.626 41.716C138.218 42.436 137.738 43.228 137.186 44.092C136.658 44.932 136.106 45.784 135.53 46.648C134.978 47.512 134.426 48.364 133.874 49.204C133.322 50.044 132.818 50.8 132.362 51.472Z" fill="url(#paint26_linear_1122_16799)"/>
<path d="M155.37 56.44C155.394 56.536 155.406 56.68 155.406 56.872C155.406 57.04 155.37 57.22 155.298 57.412C155.226 57.58 155.118 57.736 154.974 57.88C154.854 58 154.674 58.06 154.434 58.06C153.906 57.724 153.462 57.28 153.102 56.728C152.91 56.008 152.73 55.18 152.562 54.244C152.418 53.308 152.298 52.336 152.202 51.328C152.106 50.296 152.034 49.252 151.986 48.196C151.962 47.14 151.962 46.12 151.986 45.136C151.986 44.968 151.998 44.752 152.022 44.488C152.07 44.224 152.142 43.972 152.238 43.732C152.334 43.468 152.454 43.252 152.598 43.084C152.742 42.892 152.946 42.796 153.21 42.796C153.522 42.796 153.774 42.892 153.966 43.084C154.158 43.276 154.254 43.588 154.254 44.02C154.23 44.98 154.23 46.012 154.254 47.116C154.302 48.196 154.374 49.288 154.47 50.392C154.566 51.496 154.686 52.576 154.83 53.632C154.998 54.664 155.178 55.6 155.37 56.44Z" fill="url(#paint27_linear_1122_16799)"/>
<path d="M172.612 44.776C172.444 46.816 172.24 48.904 172 51.04C171.784 53.152 171.484 55.144 171.1 57.016C171.004 57.472 170.872 57.796 170.704 57.988C170.536 58.18 170.296 58.312 169.984 58.384C169.72 58.432 169.348 58.348 168.868 58.132C168.412 57.916 168.028 57.604 167.716 57.196C167.308 56.644 166.864 56.044 166.384 55.396C165.928 54.724 165.424 54.052 164.872 53.38C164.344 52.684 163.78 52 163.18 51.328C162.604 50.656 161.992 50.032 161.344 49.456C161.272 51.04 161.212 52.612 161.164 54.172C161.116 55.708 161.116 57.256 161.164 58.816C161.164 59.032 160.972 59.14 160.588 59.14C160.132 59.14 159.76 58.912 159.472 58.456C159.184 57.976 159.016 57.496 158.968 57.016C158.896 56.536 158.86 55.852 158.86 54.964C158.86 54.052 158.872 53.104 158.896 52.12C158.944 51.136 158.992 50.188 159.04 49.276C159.088 48.364 159.136 47.644 159.184 47.116C159.232 46.54 159.364 46.12 159.58 45.856C159.82 45.592 160.048 45.472 160.264 45.496C160.744 45.544 161.056 45.688 161.2 45.928C161.368 46.144 161.464 46.42 161.488 46.756C162.352 47.38 163.144 48.052 163.864 48.772C164.608 49.492 165.28 50.224 165.88 50.968C166.504 51.712 167.068 52.456 167.572 53.2C168.1 53.92 168.592 54.58 169.048 55.18C169.336 53.74 169.564 52.132 169.732 50.356C169.924 48.58 170.116 46.72 170.308 44.776C170.284 44.536 170.428 44.308 170.74 44.092C171.052 43.852 171.34 43.744 171.604 43.768C172.276 43.816 172.612 44.152 172.612 44.776Z" fill="url(#paint28_linear_1122_16799)"/>
<path d="M193.32 45.676C193.632 46.684 193.62 47.632 193.284 48.52C193.092 49 192.84 49.528 192.528 50.104C192.216 50.68 191.868 51.268 191.484 51.868C191.1 52.444 190.704 53.008 190.296 53.56C189.888 54.088 189.516 54.568 189.18 55C189.612 54.952 190.14 54.892 190.764 54.82C191.412 54.724 192.072 54.628 192.744 54.532C193.44 54.436 194.112 54.352 194.76 54.28C195.432 54.184 196.032 54.112 196.56 54.064C196.824 54.04 197.124 54.064 197.46 54.136C197.82 54.208 198.06 54.268 198.18 54.316C198.324 54.388 198.372 54.52 198.324 54.712C198.3 54.88 198.228 55.06 198.108 55.252C197.988 55.444 197.844 55.624 197.676 55.792C197.532 55.936 197.412 56.008 197.316 56.008C196.548 56.128 195.696 56.26 194.76 56.404C193.848 56.548 192.924 56.692 191.988 56.836C191.052 56.98 190.128 57.124 189.216 57.268C188.328 57.388 187.524 57.484 186.804 57.556C186.468 57.604 186.18 57.472 185.94 57.16C185.724 56.848 185.592 56.524 185.544 56.188C185.544 56.14 185.556 56.056 185.58 55.936C185.604 55.816 185.748 55.624 186.012 55.36C187.02 54.232 188.004 52.996 188.964 51.652C189.948 50.284 190.716 48.928 191.268 47.584C191.34 47.392 191.364 47.212 191.34 47.044C191.316 46.852 191.268 46.732 191.196 46.684C191.076 46.588 190.92 46.54 190.728 46.54C190.56 46.516 190.356 46.516 190.116 46.54C189.78 46.564 189.432 46.624 189.072 46.72C188.712 46.816 188.352 46.924 187.992 47.044C187.656 47.164 187.344 47.296 187.056 47.44C186.768 47.56 186.516 47.668 186.3 47.764C186.012 47.908 185.772 47.968 185.58 47.944C185.388 47.92 185.22 47.872 185.076 47.8C184.956 47.704 184.86 47.608 184.788 47.512C184.716 47.416 184.68 47.344 184.68 47.296C184.656 47.176 184.668 47.02 184.716 46.828C184.764 46.636 184.812 46.48 184.86 46.36C185.076 46.096 185.412 45.82 185.868 45.532C186.348 45.244 186.888 45.004 187.488 44.812C188.112 44.596 188.76 44.44 189.432 44.344C190.128 44.248 190.824 44.248 191.52 44.344C191.976 44.464 192.348 44.644 192.636 44.884C192.948 45.124 193.176 45.388 193.32 45.676Z" fill="url(#paint29_linear_1122_16799)"/>
<path d="M209.687 48.916C209.687 49.468 209.591 50.152 209.399 50.968C209.231 51.76 208.943 52.564 208.535 53.38C208.127 54.196 207.587 54.964 206.915 55.684C206.267 56.404 205.463 56.956 204.503 57.34C203.903 57.604 203.303 57.748 202.703 57.772C202.127 57.772 201.599 57.652 201.119 57.412C200.663 57.172 200.279 56.812 199.967 56.332C199.655 55.828 199.463 55.18 199.391 54.388C199.319 53.452 199.391 52.516 199.607 51.58C199.847 50.62 200.207 49.732 200.687 48.916C201.191 48.076 201.791 47.332 202.487 46.684C203.183 46.036 203.963 45.52 204.827 45.136C205.019 45.04 205.199 45.052 205.367 45.172C205.559 45.268 205.679 45.484 205.727 45.82C206.975 45.94 207.947 46.276 208.643 46.828C209.339 47.356 209.687 48.052 209.687 48.916ZM201.839 54.316C201.887 54.652 201.983 54.892 202.127 55.036C202.271 55.18 202.439 55.276 202.631 55.324C202.823 55.348 203.039 55.324 203.279 55.252C203.519 55.18 203.747 55.096 203.963 55C204.203 54.88 204.419 54.76 204.611 54.64C204.803 54.496 204.959 54.364 205.079 54.244C205.751 53.62 206.291 52.864 206.699 51.976C207.107 51.064 207.359 50.068 207.455 48.988C207.455 48.844 207.359 48.7 207.167 48.556C206.975 48.412 206.723 48.304 206.411 48.232C206.123 48.136 205.799 48.064 205.439 48.016C205.079 47.968 204.731 47.956 204.395 47.98C204.035 48.388 203.687 48.832 203.351 49.312C203.015 49.792 202.727 50.308 202.487 50.86C202.247 51.388 202.067 51.952 201.947 52.552C201.827 53.128 201.791 53.716 201.839 54.316Z" fill="url(#paint30_linear_1122_16799)"/>
<path d="M220.25 45.676C220.562 46.684 220.55 47.632 220.214 48.52C220.022 49 219.77 49.528 219.458 50.104C219.146 50.68 218.798 51.268 218.414 51.868C218.03 52.444 217.634 53.008 217.226 53.56C216.818 54.088 216.446 54.568 216.11 55C216.542 54.952 217.07 54.892 217.694 54.82C218.342 54.724 219.002 54.628 219.674 54.532C220.37 54.436 221.042 54.352 221.69 54.28C222.362 54.184 222.962 54.112 223.49 54.064C223.754 54.04 224.054 54.064 224.39 54.136C224.75 54.208 224.99 54.268 225.11 54.316C225.254 54.388 225.302 54.52 225.254 54.712C225.23 54.88 225.158 55.06 225.038 55.252C224.918 55.444 224.774 55.624 224.606 55.792C224.462 55.936 224.342 56.008 224.246 56.008C223.478 56.128 222.626 56.26 221.69 56.404C220.778 56.548 219.854 56.692 218.918 56.836C217.982 56.98 217.058 57.124 216.146 57.268C215.258 57.388 214.454 57.484 213.734 57.556C213.398 57.604 213.11 57.472 212.87 57.16C212.654 56.848 212.522 56.524 212.474 56.188C212.474 56.14 212.486 56.056 212.51 55.936C212.534 55.816 212.678 55.624 212.942 55.36C213.95 54.232 214.934 52.996 215.894 51.652C216.878 50.284 217.646 48.928 218.198 47.584C218.27 47.392 218.294 47.212 218.27 47.044C218.246 46.852 218.198 46.732 218.126 46.684C218.006 46.588 217.85 46.54 217.658 46.54C217.49 46.516 217.286 46.516 217.046 46.54C216.71 46.564 216.362 46.624 216.002 46.72C215.642 46.816 215.282 46.924 214.922 47.044C214.586 47.164 214.274 47.296 213.986 47.44C213.698 47.56 213.446 47.668 213.23 47.764C212.942 47.908 212.702 47.968 212.51 47.944C212.318 47.92 212.15 47.872 212.006 47.8C211.886 47.704 211.79 47.608 211.718 47.512C211.646 47.416 211.61 47.344 211.61 47.296C211.586 47.176 211.598 47.02 211.646 46.828C211.694 46.636 211.742 46.48 211.79 46.36C212.006 46.096 212.342 45.82 212.798 45.532C213.278 45.244 213.818 45.004 214.418 44.812C215.042 44.596 215.69 44.44 216.362 44.344C217.058 44.248 217.754 44.248 218.45 44.344C218.906 44.464 219.278 44.644 219.566 44.884C219.878 45.124 220.106 45.388 220.25 45.676Z" fill="url(#paint31_linear_1122_16799)"/>
<path d="M236.617 48.916C236.617 49.468 236.521 50.152 236.329 50.968C236.161 51.76 235.873 52.564 235.465 53.38C235.057 54.196 234.517 54.964 233.845 55.684C233.197 56.404 232.393 56.956 231.433 57.34C230.833 57.604 230.233 57.748 229.633 57.772C229.057 57.772 228.529 57.652 228.049 57.412C227.593 57.172 227.209 56.812 226.897 56.332C226.585 55.828 226.393 55.18 226.321 54.388C226.249 53.452 226.321 52.516 226.537 51.58C226.777 50.62 227.137 49.732 227.617 48.916C228.121 48.076 228.721 47.332 229.417 46.684C230.113 46.036 230.893 45.52 231.757 45.136C231.949 45.04 232.129 45.052 232.297 45.172C232.489 45.268 232.609 45.484 232.657 45.82C233.905 45.94 234.877 46.276 235.573 46.828C236.269 47.356 236.617 48.052 236.617 48.916ZM228.769 54.316C228.817 54.652 228.913 54.892 229.057 55.036C229.201 55.18 229.369 55.276 229.561 55.324C229.753 55.348 229.969 55.324 230.209 55.252C230.449 55.18 230.677 55.096 230.893 55C231.133 54.88 231.349 54.76 231.541 54.64C231.733 54.496 231.889 54.364 232.009 54.244C232.681 53.62 233.221 52.864 233.629 51.976C234.037 51.064 234.289 50.068 234.385 48.988C234.385 48.844 234.289 48.7 234.097 48.556C233.905 48.412 233.653 48.304 233.341 48.232C233.053 48.136 232.729 48.064 232.369 48.016C232.009 47.968 231.661 47.956 231.325 47.98C230.965 48.388 230.617 48.832 230.281 49.312C229.945 49.792 229.657 50.308 229.417 50.86C229.177 51.388 228.997 51.952 228.877 52.552C228.757 53.128 228.721 53.716 228.769 54.316Z" fill="url(#paint32_linear_1122_16799)"/>
<defs>
<linearGradient id="paint0_linear_1122_16799" x1="210.354" y1="30.7552" x2="0.426758" y2="30.7552" gradientUnits="userSpaceOnUse">
<stop stop-color="#FFE597"/>
<stop offset="1" stop-color="#AAFF82"/>
</linearGradient>
<linearGradient id="paint1_linear_1122_16799" x1="210.354" y1="30.7552" x2="0.426758" y2="30.7552" gradientUnits="userSpaceOnUse">
<stop stop-color="#FFE597"/>
<stop offset="1" stop-color="#AAFF82"/>
</linearGradient>
<linearGradient id="paint2_linear_1122_16799" x1="210.354" y1="30.7552" x2="0.426758" y2="30.7552" gradientUnits="userSpaceOnUse">
<stop stop-color="#FFE597"/>
<stop offset="1" stop-color="#AAFF82"/>
</linearGradient>
<linearGradient id="paint3_linear_1122_16799" x1="210.354" y1="30.7552" x2="0.426758" y2="30.7552" gradientUnits="userSpaceOnUse">
<stop stop-color="#FFE597"/>
<stop offset="1" stop-color="#AAFF82"/>
</linearGradient>
<linearGradient id="paint4_linear_1122_16799" x1="210.354" y1="30.7552" x2="0.426758" y2="30.7552" gradientUnits="userSpaceOnUse">
<stop stop-color="#FFE597"/>
<stop offset="1" stop-color="#AAFF82"/>
</linearGradient>
<linearGradient id="paint5_linear_1122_16799" x1="210.354" y1="30.7552" x2="0.426758" y2="30.7552" gradientUnits="userSpaceOnUse">
<stop stop-color="#FFE597"/>
<stop offset="1" stop-color="#AAFF82"/>
</linearGradient>
<linearGradient id="paint6_linear_1122_16799" x1="210.354" y1="30.7552" x2="0.426758" y2="30.7552" gradientUnits="userSpaceOnUse">
<stop stop-color="#FFE597"/>
<stop offset="1" stop-color="#AAFF82"/>
</linearGradient>
<linearGradient id="paint7_linear_1122_16799" x1="210.354" y1="30.7552" x2="0.426758" y2="30.7552" gradientUnits="userSpaceOnUse">
<stop stop-color="#FFE597"/>
<stop offset="1" stop-color="#AAFF82"/>
</linearGradient>
<linearGradient id="paint8_linear_1122_16799" x1="210.354" y1="30.7552" x2="0.426758" y2="30.7552" gradientUnits="userSpaceOnUse">
<stop stop-color="#FFE597"/>
<stop offset="1" stop-color="#AAFF82"/>
</linearGradient>
<linearGradient id="paint9_linear_1122_16799" x1="210.354" y1="30.7552" x2="0.426758" y2="30.7552" gradientUnits="userSpaceOnUse">
<stop stop-color="#FFE597"/>
<stop offset="1" stop-color="#AAFF82"/>
</linearGradient>
<linearGradient id="paint10_linear_1122_16799" x1="210.354" y1="30.7552" x2="0.426758" y2="30.7552" gradientUnits="userSpaceOnUse">
<stop stop-color="#FFE597"/>
<stop offset="1" stop-color="#AAFF82"/>
</linearGradient>
<linearGradient id="paint11_linear_1122_16799" x1="210.354" y1="30.7552" x2="0.426758" y2="30.7552" gradientUnits="userSpaceOnUse">
<stop stop-color="#FFE597"/>
<stop offset="1" stop-color="#AAFF82"/>
</linearGradient>
<linearGradient id="paint12_linear_1122_16799" x1="210.354" y1="30.7552" x2="0.426758" y2="30.7552" gradientUnits="userSpaceOnUse">
<stop stop-color="#FFE597"/>
<stop offset="1" stop-color="#AAFF82"/>
</linearGradient>
<linearGradient id="paint13_linear_1122_16799" x1="210.354" y1="30.7552" x2="0.426758" y2="30.7552" gradientUnits="userSpaceOnUse">
<stop stop-color="#FFE597"/>
<stop offset="1" stop-color="#AAFF82"/>
</linearGradient>
<linearGradient id="paint14_linear_1122_16799" x1="210.354" y1="30.7552" x2="0.426758" y2="30.7552" gradientUnits="userSpaceOnUse">
<stop stop-color="#FFE597"/>
<stop offset="1" stop-color="#AAFF82"/>
</linearGradient>
<linearGradient id="paint15_linear_1122_16799" x1="210.354" y1="30.7552" x2="0.426758" y2="30.7552" gradientUnits="userSpaceOnUse">
<stop stop-color="#FFE597"/>
<stop offset="1" stop-color="#AAFF82"/>
</linearGradient>
<linearGradient id="paint16_linear_1122_16799" x1="210.354" y1="30.7552" x2="0.426758" y2="30.7552" gradientUnits="userSpaceOnUse">
<stop stop-color="#FFE597"/>
<stop offset="1" stop-color="#AAFF82"/>
</linearGradient>
<linearGradient id="paint17_linear_1122_16799" x1="210.354" y1="30.7552" x2="0.426758" y2="30.7552" gradientUnits="userSpaceOnUse">
<stop stop-color="#FFE597"/>
<stop offset="1" stop-color="#AAFF82"/>
</linearGradient>
<linearGradient id="paint18_linear_1122_16799" x1="210.354" y1="30.7552" x2="0.426758" y2="30.7552" gradientUnits="userSpaceOnUse">
<stop stop-color="#FFE597"/>
<stop offset="1" stop-color="#AAFF82"/>
</linearGradient>
<linearGradient id="paint19_linear_1122_16799" x1="210.354" y1="30.7552" x2="0.426758" y2="30.7552" gradientUnits="userSpaceOnUse">
<stop stop-color="#FFE597"/>
<stop offset="1" stop-color="#AAFF82"/>
</linearGradient>
<linearGradient id="paint20_linear_1122_16799" x1="210.354" y1="30.7552" x2="0.426758" y2="30.7552" gradientUnits="userSpaceOnUse">
<stop stop-color="#FFE597"/>
<stop offset="1" stop-color="#AAFF82"/>
</linearGradient>
<linearGradient id="paint21_linear_1122_16799" x1="210.354" y1="30.7552" x2="0.426758" y2="30.7552" gradientUnits="userSpaceOnUse">
<stop stop-color="#FFE597"/>
<stop offset="1" stop-color="#AAFF82"/>
</linearGradient>
<linearGradient id="paint22_linear_1122_16799" x1="210.354" y1="30.7552" x2="0.426758" y2="30.7552" gradientUnits="userSpaceOnUse">
<stop stop-color="#FFE597"/>
<stop offset="1" stop-color="#AAFF82"/>
</linearGradient>
<linearGradient id="paint23_linear_1122_16799" x1="210.354" y1="30.7552" x2="0.426758" y2="30.7552" gradientUnits="userSpaceOnUse">
<stop stop-color="#FFE597"/>
<stop offset="1" stop-color="#AAFF82"/>
</linearGradient>
<linearGradient id="paint24_linear_1122_16799" x1="210.354" y1="30.7552" x2="0.426758" y2="30.7552" gradientUnits="userSpaceOnUse">
<stop stop-color="#FFE597"/>
<stop offset="1" stop-color="#AAFF82"/>
</linearGradient>
<linearGradient id="paint25_linear_1122_16799" x1="210.354" y1="30.7552" x2="0.426758" y2="30.7552" gradientUnits="userSpaceOnUse">
<stop stop-color="#FFE597"/>
<stop offset="1" stop-color="#AAFF82"/>
</linearGradient>
<linearGradient id="paint26_linear_1122_16799" x1="210.354" y1="30.7552" x2="0.426758" y2="30.7552" gradientUnits="userSpaceOnUse">
<stop stop-color="#FFE597"/>
<stop offset="1" stop-color="#AAFF82"/>
</linearGradient>
<linearGradient id="paint27_linear_1122_16799" x1="210.354" y1="30.7552" x2="0.426758" y2="30.7552" gradientUnits="userSpaceOnUse">
<stop stop-color="#FFE597"/>
<stop offset="1" stop-color="#AAFF82"/>
</linearGradient>
<linearGradient id="paint28_linear_1122_16799" x1="210.354" y1="30.7552" x2="0.426758" y2="30.7552" gradientUnits="userSpaceOnUse">
<stop stop-color="#FFE597"/>
<stop offset="1" stop-color="#AAFF82"/>
</linearGradient>
<linearGradient id="paint29_linear_1122_16799" x1="210.354" y1="30.7552" x2="0.426758" y2="30.7552" gradientUnits="userSpaceOnUse">
<stop stop-color="#FFE597"/>
<stop offset="1" stop-color="#AAFF82"/>
</linearGradient>
<linearGradient id="paint30_linear_1122_16799" x1="210.354" y1="30.7552" x2="0.426758" y2="30.7552" gradientUnits="userSpaceOnUse">
<stop stop-color="#FFE597"/>
<stop offset="1" stop-color="#AAFF82"/>
</linearGradient>
<linearGradient id="paint31_linear_1122_16799" x1="210.354" y1="30.7552" x2="0.426758" y2="30.7552" gradientUnits="userSpaceOnUse">
<stop stop-color="#FFE597"/>
<stop offset="1" stop-color="#AAFF82"/>
</linearGradient>
<linearGradient id="paint32_linear_1122_16799" x1="210.354" y1="30.7552" x2="0.426758" y2="30.7552" gradientUnits="userSpaceOnUse">
<stop stop-color="#FFE597"/>
<stop offset="1" stop-color="#AAFF82"/>
</linearGradient>
</defs>
</svg>
