<svg width="16" height="16" viewBox="0 0 16 16" fill="none" xmlns="http://www.w3.org/2000/svg">
<path d="M5.66685 1.93333H3.98685C2.94142 1.93333 2.41831 1.93333 2.01901 2.13679C1.66777 2.31575 1.38241 2.60111 1.20346 2.95235C1 3.35165 1 3.87475 1 4.92019V12.0135C1 13.0589 1 13.5814 1.20346 13.9807C1.38241 14.3319 1.66777 14.6178 2.01901 14.7967C2.41792 15 2.94039 15 3.98378 15H11.0829C12.1263 15 12.648 15 13.0469 14.7967C13.3981 14.6178 13.6845 14.3316 13.8634 13.9804C14.0667 13.5815 14.0667 13.0596 14.0667 12.0162V10.3333M15 5.66667V1M15 1H10.3333M15 1L8.46667 7.53333" stroke="white" stroke-width="2" stroke-linecap="round" stroke-linejoin="round"/>
</svg>
