<svg width="18" height="16" viewBox="0 0 18 16" fill="none" xmlns="http://www.w3.org/2000/svg">
<path d="M10.0547 1.9248C11.6116 0.292941 14.0657 0.0161722 15.7637 1.33887L15.9258 1.47168C17.852 3.14201 18.0127 6.10957 16.3975 7.99512L16.2354 8.17383L9.43262 15.3096C9.22046 15.5317 8.90028 15.5593 8.66113 15.3926L8.56445 15.3096L1.76172 8.17383C0.0351577 6.3604 0.0821299 3.38913 1.89453 1.6377L2.0752 1.47168C3.72287 0.0455713 6.18325 0.226855 7.79297 1.77051L7.94531 1.9248H7.94629L8.63867 2.65039L9 3.02832L9.36133 2.65039L10.0547 1.9248Z" fill="url(#paint0_linear_88_810)" stroke="#B43B3B"/>
<defs>
<linearGradient id="paint0_linear_88_810" x1="9.56232" y1="15.9997" x2="-0.789615" y2="0.148327" gradientUnits="userSpaceOnUse">
<stop stop-color="#E82D2D"/>
<stop offset="1" stop-color="#821919" stop-opacity="0.6"/>
</linearGradient>
</defs>
</svg>
