<svg width="20" height="14" viewBox="0 0 20 14" fill="none" xmlns="http://www.w3.org/2000/svg">
<path d="M9.48331 6.73645C9.63178 6.85547 9.81715 6.92043 10.0083 6.92043C10.1995 6.92043 10.3849 6.85547 10.5334 6.73645L18.2754 0.148235C18.0266 0.0585761 17.765 0.00854066 17.5004 0H2.49965C2.23588 0.00324317 1.9743 0.0477145 1.72461 0.131764L9.48331 6.73645Z" fill="white"/>
<path d="M19.9999 2.47036C19.9974 2.00981 19.8646 1.55913 19.6166 1.16919L12.8496 6.93388L19.7499 12.5997C19.9135 12.2659 19.999 11.9 19.9999 11.5292V2.47036Z" fill="white"/>
<path d="M0.383352 1.16919C0.135334 1.55913 0.00255446 2.00981 0 2.47036V11.5292C0.00220753 11.8973 0.0876263 12.2602 0.250012 12.5915L7.15034 6.92564L0.383352 1.16919Z" fill="white"/>
<path d="M11.5664 8.0127C11.1232 8.36792 10.5704 8.56262 9.99969 8.56446C9.42902 8.56262 8.87617 8.36792 8.43295 8.0127L1.43262 13.7774C1.76731 13.9281 2.13154 14.0041 2.49933 13.9997H17.5C17.8697 13.9963 18.2341 13.912 18.5668 13.7527L11.5664 8.0127Z" fill="white"/>
</svg>
